G04 #@! TF.GenerationSoftware,KiCad,Pcbnew,(5.1.6)-1*
G04 #@! TF.CreationDate,2021-01-14T14:31:44+01:00*
G04 #@! TF.ProjectId,Thermolino2,54686572-6d6f-46c6-996e-6f322e6b6963,C*
G04 #@! TF.SameCoordinates,Original*
G04 #@! TF.FileFunction,Copper,L2,Bot*
G04 #@! TF.FilePolarity,Positive*
%FSLAX46Y46*%
G04 Gerber Fmt 4.6, Leading zero omitted, Abs format (unit mm)*
G04 Created by KiCad (PCBNEW (5.1.6)-1) date 2021-01-14 14:31:44*
%MOMM*%
%LPD*%
G01*
G04 APERTURE LIST*
G04 #@! TA.AperFunction,ComponentPad*
%ADD10C,2.000000*%
G04 #@! TD*
G04 #@! TA.AperFunction,ComponentPad*
%ADD11O,1.727200X1.727200*%
G04 #@! TD*
G04 #@! TA.AperFunction,ComponentPad*
%ADD12R,1.700000X1.700000*%
G04 #@! TD*
G04 #@! TA.AperFunction,ComponentPad*
%ADD13O,1.700000X1.700000*%
G04 #@! TD*
G04 #@! TA.AperFunction,ComponentPad*
%ADD14C,1.524000*%
G04 #@! TD*
G04 #@! TA.AperFunction,ViaPad*
%ADD15C,0.800000*%
G04 #@! TD*
G04 #@! TA.AperFunction,Conductor*
%ADD16C,0.250000*%
G04 #@! TD*
G04 #@! TA.AperFunction,Conductor*
%ADD17C,0.150000*%
G04 #@! TD*
G04 APERTURE END LIST*
D10*
X138359000Y-114427000D03*
X143439000Y-114427000D03*
D11*
X178181000Y-124714000D03*
X175641000Y-124714000D03*
X173101000Y-124714000D03*
X170561000Y-124714000D03*
X168021000Y-124714000D03*
X142621000Y-124714000D03*
X148717000Y-76454000D03*
X146177000Y-76454000D03*
X143637000Y-76454000D03*
X138557000Y-76454000D03*
X136017000Y-76454000D03*
X133477000Y-76454000D03*
X151257000Y-76454000D03*
X153797000Y-76454000D03*
X156337000Y-76454000D03*
X141097000Y-76454000D03*
X160401000Y-76454000D03*
X162941000Y-76454000D03*
X165481000Y-76454000D03*
X168021000Y-76454000D03*
X170561000Y-76454000D03*
X173101000Y-76454000D03*
X175641000Y-76454000D03*
X178181000Y-76454000D03*
X145161000Y-124714000D03*
X147701000Y-124714000D03*
X150241000Y-124714000D03*
X152781000Y-124714000D03*
X155321000Y-124714000D03*
X157861000Y-124714000D03*
X160401000Y-124714000D03*
X165481000Y-124714000D03*
D12*
X149606000Y-120523000D03*
D13*
X152146000Y-120523000D03*
D12*
X175641000Y-80899000D03*
D13*
X173101000Y-80899000D03*
D14*
X173355000Y-96520000D03*
X173355000Y-99060000D03*
X170815000Y-96520000D03*
X170815000Y-99060000D03*
X168275000Y-96520000D03*
X168275000Y-99060000D03*
X165735000Y-96520000D03*
X165735000Y-99060000D03*
X163195000Y-96520000D03*
X163195000Y-99060000D03*
X160655000Y-96520000D03*
X160655000Y-99060000D03*
X158115000Y-96520000D03*
X158115000Y-99060000D03*
X155575000Y-96520000D03*
X155575000Y-99060000D03*
D15*
X141859000Y-90170000D03*
X139192000Y-90170000D03*
X144526000Y-90170000D03*
X138557000Y-97028000D03*
X140462000Y-90170000D03*
X144780000Y-101600000D03*
D16*
X173355000Y-99060000D02*
X172085000Y-97790000D01*
X156845000Y-97790000D02*
X155575000Y-96520000D01*
X172085000Y-97790000D02*
X156845000Y-97790000D01*
X155575000Y-96520000D02*
X154178000Y-97917000D01*
X154178000Y-119126000D02*
X154178000Y-123317000D01*
X154178000Y-97917000D02*
X154178000Y-119126000D01*
X152781000Y-124714000D02*
X154178000Y-123317000D01*
X147701000Y-122428000D02*
X149606000Y-120523000D01*
X147701000Y-124714000D02*
X147701000Y-122428000D01*
X140208000Y-91821000D02*
X141859000Y-90170000D01*
X143637000Y-76454000D02*
X136652000Y-83439000D01*
X137922000Y-91821000D02*
X140208000Y-91821000D01*
X136652000Y-90551000D02*
X137922000Y-91821000D01*
X136652000Y-83439000D02*
X136652000Y-90551000D01*
X139192000Y-85979000D02*
X148717000Y-76454000D01*
X139192000Y-90170000D02*
X139192000Y-85979000D01*
X144526000Y-83185000D02*
X151257000Y-76454000D01*
X144526000Y-90170000D02*
X144526000Y-83185000D01*
X173101000Y-76454000D02*
X173101000Y-80899000D01*
X170815000Y-117348000D02*
X178181000Y-124714000D01*
X170815000Y-99060000D02*
X170815000Y-117348000D01*
X168275000Y-117348000D02*
X175641000Y-124714000D01*
X168275000Y-99060000D02*
X168275000Y-117348000D01*
X168021000Y-94234000D02*
X165735000Y-96520000D01*
X168021000Y-76454000D02*
X168021000Y-94234000D01*
X165735000Y-117348000D02*
X173101000Y-124714000D01*
X165735000Y-99060000D02*
X165735000Y-117348000D01*
X165481000Y-94234000D02*
X163195000Y-96520000D01*
X165481000Y-76454000D02*
X165481000Y-94234000D01*
X163195000Y-117348000D02*
X170561000Y-124714000D01*
X163195000Y-99060000D02*
X163195000Y-117348000D01*
X162941000Y-94234000D02*
X160655000Y-96520000D01*
X162941000Y-76454000D02*
X162941000Y-94234000D01*
X160655000Y-117348000D02*
X168021000Y-124714000D01*
X160655000Y-99060000D02*
X160655000Y-117348000D01*
X160401000Y-94234000D02*
X158115000Y-96520000D01*
X160401000Y-76454000D02*
X160401000Y-94234000D01*
X158115000Y-117348000D02*
X165481000Y-124714000D01*
X158115000Y-99060000D02*
X158115000Y-117348000D01*
X153797000Y-83693000D02*
X153797000Y-76454000D01*
X138557000Y-97028000D02*
X140462000Y-97028000D01*
X140462000Y-97028000D02*
X153797000Y-83693000D01*
X137922000Y-90424000D02*
X137922000Y-84709000D01*
X137922000Y-84709000D02*
X146177000Y-76454000D01*
X138557000Y-91059000D02*
X137922000Y-90424000D01*
X139573000Y-91059000D02*
X138557000Y-91059000D01*
X140462000Y-90170000D02*
X139573000Y-91059000D01*
X156337000Y-90043000D02*
X144780000Y-101600000D01*
X156337000Y-79629000D02*
X156337000Y-90043000D01*
X156337000Y-79629000D02*
X156337000Y-76454000D01*
X156337000Y-79813685D02*
X156337000Y-79629000D01*
D17*
G36*
X180471000Y-75541554D02*
G01*
X180471001Y-86601715D01*
X180469791Y-86614000D01*
X180474618Y-86663008D01*
X180488913Y-86710133D01*
X180488914Y-86710134D01*
X180512128Y-86753564D01*
X180543369Y-86791632D01*
X180552910Y-86799462D01*
X183011000Y-89257554D01*
X183011001Y-123340445D01*
X180552914Y-125798534D01*
X180543368Y-125806368D01*
X180512127Y-125844436D01*
X180488914Y-125887866D01*
X180488913Y-125887867D01*
X180474618Y-125934992D01*
X180469791Y-125984000D01*
X180471000Y-125996275D01*
X180471001Y-127004000D01*
X132710405Y-127004000D01*
X132704698Y-124606782D01*
X141532400Y-124606782D01*
X141532400Y-124821218D01*
X141574235Y-125031533D01*
X141656295Y-125229645D01*
X141775429Y-125407942D01*
X141927058Y-125559571D01*
X142105355Y-125678705D01*
X142303467Y-125760765D01*
X142513782Y-125802600D01*
X142728218Y-125802600D01*
X142938533Y-125760765D01*
X143136645Y-125678705D01*
X143314942Y-125559571D01*
X143466571Y-125407942D01*
X143585705Y-125229645D01*
X143667765Y-125031533D01*
X143709600Y-124821218D01*
X143709600Y-124606782D01*
X144072400Y-124606782D01*
X144072400Y-124821218D01*
X144114235Y-125031533D01*
X144196295Y-125229645D01*
X144315429Y-125407942D01*
X144467058Y-125559571D01*
X144645355Y-125678705D01*
X144843467Y-125760765D01*
X145053782Y-125802600D01*
X145268218Y-125802600D01*
X145478533Y-125760765D01*
X145676645Y-125678705D01*
X145854942Y-125559571D01*
X146006571Y-125407942D01*
X146125705Y-125229645D01*
X146207765Y-125031533D01*
X146249600Y-124821218D01*
X146249600Y-124606782D01*
X146612400Y-124606782D01*
X146612400Y-124821218D01*
X146654235Y-125031533D01*
X146736295Y-125229645D01*
X146855429Y-125407942D01*
X147007058Y-125559571D01*
X147185355Y-125678705D01*
X147383467Y-125760765D01*
X147593782Y-125802600D01*
X147808218Y-125802600D01*
X148018533Y-125760765D01*
X148216645Y-125678705D01*
X148394942Y-125559571D01*
X148546571Y-125407942D01*
X148665705Y-125229645D01*
X148747765Y-125031533D01*
X148789600Y-124821218D01*
X148789600Y-124606782D01*
X149152400Y-124606782D01*
X149152400Y-124821218D01*
X149194235Y-125031533D01*
X149276295Y-125229645D01*
X149395429Y-125407942D01*
X149547058Y-125559571D01*
X149725355Y-125678705D01*
X149923467Y-125760765D01*
X150133782Y-125802600D01*
X150348218Y-125802600D01*
X150558533Y-125760765D01*
X150756645Y-125678705D01*
X150934942Y-125559571D01*
X151086571Y-125407942D01*
X151205705Y-125229645D01*
X151287765Y-125031533D01*
X151329600Y-124821218D01*
X151329600Y-124606782D01*
X151692400Y-124606782D01*
X151692400Y-124821218D01*
X151734235Y-125031533D01*
X151816295Y-125229645D01*
X151935429Y-125407942D01*
X152087058Y-125559571D01*
X152265355Y-125678705D01*
X152463467Y-125760765D01*
X152673782Y-125802600D01*
X152888218Y-125802600D01*
X153098533Y-125760765D01*
X153296645Y-125678705D01*
X153474942Y-125559571D01*
X153626571Y-125407942D01*
X153745705Y-125229645D01*
X153827765Y-125031533D01*
X153853821Y-124900541D01*
X154223135Y-124900541D01*
X154235318Y-124961791D01*
X154304521Y-125168836D01*
X154412787Y-125358402D01*
X154555955Y-125523204D01*
X154728523Y-125656908D01*
X154923860Y-125754377D01*
X155134459Y-125811865D01*
X155308500Y-125765030D01*
X155308500Y-124726500D01*
X155333500Y-124726500D01*
X155333500Y-125765030D01*
X155507541Y-125811865D01*
X155718140Y-125754377D01*
X155913477Y-125656908D01*
X156086045Y-125523204D01*
X156229213Y-125358402D01*
X156337479Y-125168836D01*
X156406682Y-124961791D01*
X156418865Y-124900541D01*
X156763135Y-124900541D01*
X156775318Y-124961791D01*
X156844521Y-125168836D01*
X156952787Y-125358402D01*
X157095955Y-125523204D01*
X157268523Y-125656908D01*
X157463860Y-125754377D01*
X157674459Y-125811865D01*
X157848500Y-125765030D01*
X157848500Y-124726500D01*
X157873500Y-124726500D01*
X157873500Y-125765030D01*
X158047541Y-125811865D01*
X158258140Y-125754377D01*
X158453477Y-125656908D01*
X158626045Y-125523204D01*
X158769213Y-125358402D01*
X158877479Y-125168836D01*
X158946682Y-124961791D01*
X158958865Y-124900541D01*
X158912026Y-124726500D01*
X157873500Y-124726500D01*
X157848500Y-124726500D01*
X156809974Y-124726500D01*
X156763135Y-124900541D01*
X156418865Y-124900541D01*
X156372026Y-124726500D01*
X155333500Y-124726500D01*
X155308500Y-124726500D01*
X154269974Y-124726500D01*
X154223135Y-124900541D01*
X153853821Y-124900541D01*
X153869600Y-124821218D01*
X153869600Y-124606782D01*
X153853822Y-124527459D01*
X154223135Y-124527459D01*
X154269974Y-124701500D01*
X155308500Y-124701500D01*
X155308500Y-123662970D01*
X155333500Y-123662970D01*
X155333500Y-124701500D01*
X156372026Y-124701500D01*
X156418865Y-124527459D01*
X156763135Y-124527459D01*
X156809974Y-124701500D01*
X157848500Y-124701500D01*
X157848500Y-123662970D01*
X157873500Y-123662970D01*
X157873500Y-124701500D01*
X158912026Y-124701500D01*
X158937517Y-124606782D01*
X159312400Y-124606782D01*
X159312400Y-124821218D01*
X159354235Y-125031533D01*
X159436295Y-125229645D01*
X159555429Y-125407942D01*
X159707058Y-125559571D01*
X159885355Y-125678705D01*
X160083467Y-125760765D01*
X160293782Y-125802600D01*
X160508218Y-125802600D01*
X160718533Y-125760765D01*
X160916645Y-125678705D01*
X161094942Y-125559571D01*
X161246571Y-125407942D01*
X161365705Y-125229645D01*
X161447765Y-125031533D01*
X161489600Y-124821218D01*
X161489600Y-124606782D01*
X161447765Y-124396467D01*
X161365705Y-124198355D01*
X161246571Y-124020058D01*
X161094942Y-123868429D01*
X160916645Y-123749295D01*
X160718533Y-123667235D01*
X160508218Y-123625400D01*
X160293782Y-123625400D01*
X160083467Y-123667235D01*
X159885355Y-123749295D01*
X159707058Y-123868429D01*
X159555429Y-124020058D01*
X159436295Y-124198355D01*
X159354235Y-124396467D01*
X159312400Y-124606782D01*
X158937517Y-124606782D01*
X158958865Y-124527459D01*
X158946682Y-124466209D01*
X158877479Y-124259164D01*
X158769213Y-124069598D01*
X158626045Y-123904796D01*
X158453477Y-123771092D01*
X158258140Y-123673623D01*
X158047541Y-123616135D01*
X157873500Y-123662970D01*
X157848500Y-123662970D01*
X157674459Y-123616135D01*
X157463860Y-123673623D01*
X157268523Y-123771092D01*
X157095955Y-123904796D01*
X156952787Y-124069598D01*
X156844521Y-124259164D01*
X156775318Y-124466209D01*
X156763135Y-124527459D01*
X156418865Y-124527459D01*
X156406682Y-124466209D01*
X156337479Y-124259164D01*
X156229213Y-124069598D01*
X156086045Y-123904796D01*
X155913477Y-123771092D01*
X155718140Y-123673623D01*
X155507541Y-123616135D01*
X155333500Y-123662970D01*
X155308500Y-123662970D01*
X155134459Y-123616135D01*
X154923860Y-123673623D01*
X154728523Y-123771092D01*
X154555955Y-123904796D01*
X154412787Y-124069598D01*
X154304521Y-124259164D01*
X154235318Y-124466209D01*
X154223135Y-124527459D01*
X153853822Y-124527459D01*
X153827765Y-124396467D01*
X153759153Y-124230821D01*
X154413330Y-123576645D01*
X154426685Y-123565685D01*
X154470422Y-123512390D01*
X154502922Y-123451587D01*
X154522935Y-123385612D01*
X154528000Y-123334189D01*
X154528000Y-123334187D01*
X154529693Y-123317001D01*
X154528000Y-123299815D01*
X154528000Y-99743641D01*
X154909036Y-99743641D01*
X154987441Y-99889972D01*
X155160650Y-99988651D01*
X155349783Y-100051643D01*
X155547571Y-100076526D01*
X155746413Y-100062345D01*
X155938666Y-100009644D01*
X156116945Y-99920450D01*
X156162559Y-99889972D01*
X156240964Y-99743641D01*
X155575000Y-99077678D01*
X154909036Y-99743641D01*
X154528000Y-99743641D01*
X154528000Y-99032571D01*
X154558474Y-99032571D01*
X154572655Y-99231413D01*
X154625356Y-99423666D01*
X154714550Y-99601945D01*
X154745028Y-99647559D01*
X154891359Y-99725964D01*
X155557322Y-99060000D01*
X155592678Y-99060000D01*
X156258641Y-99725964D01*
X156404972Y-99647559D01*
X156503651Y-99474350D01*
X156566643Y-99285217D01*
X156591526Y-99087429D01*
X156577345Y-98888587D01*
X156524644Y-98696334D01*
X156435450Y-98518055D01*
X156404972Y-98472441D01*
X156258641Y-98394036D01*
X155592678Y-99060000D01*
X155557322Y-99060000D01*
X154891359Y-98394036D01*
X154745028Y-98472441D01*
X154646349Y-98645650D01*
X154583357Y-98834783D01*
X154558474Y-99032571D01*
X154528000Y-99032571D01*
X154528000Y-98376359D01*
X154909036Y-98376359D01*
X155575000Y-99042322D01*
X156240964Y-98376359D01*
X156162559Y-98230028D01*
X155989350Y-98131349D01*
X155800217Y-98068357D01*
X155602429Y-98043474D01*
X155403587Y-98057655D01*
X155211334Y-98110356D01*
X155033055Y-98199550D01*
X154987441Y-98230028D01*
X154909036Y-98376359D01*
X154528000Y-98376359D01*
X154528000Y-98061973D01*
X155169582Y-97420392D01*
X155287103Y-97469070D01*
X155477789Y-97507000D01*
X155672211Y-97507000D01*
X155862897Y-97469070D01*
X155980418Y-97420392D01*
X156585355Y-98025330D01*
X156596315Y-98038685D01*
X156649610Y-98082422D01*
X156710413Y-98114922D01*
X156756374Y-98128864D01*
X156776387Y-98134935D01*
X156844999Y-98141693D01*
X156862188Y-98140000D01*
X157756922Y-98140000D01*
X157647480Y-98185332D01*
X157485824Y-98293347D01*
X157348347Y-98430824D01*
X157240332Y-98592480D01*
X157165930Y-98772103D01*
X157128000Y-98962789D01*
X157128000Y-99157211D01*
X157165930Y-99347897D01*
X157240332Y-99527520D01*
X157348347Y-99689176D01*
X157485824Y-99826653D01*
X157647480Y-99934668D01*
X157765000Y-99983346D01*
X157765001Y-117330802D01*
X157763307Y-117348000D01*
X157770065Y-117416611D01*
X157790079Y-117482587D01*
X157822579Y-117543390D01*
X157866316Y-117596685D01*
X157879676Y-117607649D01*
X164502847Y-124230821D01*
X164434235Y-124396467D01*
X164392400Y-124606782D01*
X164392400Y-124821218D01*
X164434235Y-125031533D01*
X164516295Y-125229645D01*
X164635429Y-125407942D01*
X164787058Y-125559571D01*
X164965355Y-125678705D01*
X165163467Y-125760765D01*
X165373782Y-125802600D01*
X165588218Y-125802600D01*
X165798533Y-125760765D01*
X165996645Y-125678705D01*
X166174942Y-125559571D01*
X166326571Y-125407942D01*
X166445705Y-125229645D01*
X166527765Y-125031533D01*
X166569600Y-124821218D01*
X166569600Y-124606782D01*
X166527765Y-124396467D01*
X166445705Y-124198355D01*
X166326571Y-124020058D01*
X166174942Y-123868429D01*
X165996645Y-123749295D01*
X165798533Y-123667235D01*
X165588218Y-123625400D01*
X165373782Y-123625400D01*
X165163467Y-123667235D01*
X164997821Y-123735847D01*
X158465000Y-117203027D01*
X158465000Y-99983346D01*
X158582520Y-99934668D01*
X158744176Y-99826653D01*
X158881653Y-99689176D01*
X158989668Y-99527520D01*
X159064070Y-99347897D01*
X159102000Y-99157211D01*
X159102000Y-98962789D01*
X159064070Y-98772103D01*
X158989668Y-98592480D01*
X158881653Y-98430824D01*
X158744176Y-98293347D01*
X158582520Y-98185332D01*
X158473078Y-98140000D01*
X160296922Y-98140000D01*
X160187480Y-98185332D01*
X160025824Y-98293347D01*
X159888347Y-98430824D01*
X159780332Y-98592480D01*
X159705930Y-98772103D01*
X159668000Y-98962789D01*
X159668000Y-99157211D01*
X159705930Y-99347897D01*
X159780332Y-99527520D01*
X159888347Y-99689176D01*
X160025824Y-99826653D01*
X160187480Y-99934668D01*
X160305000Y-99983346D01*
X160305001Y-117330802D01*
X160303307Y-117348000D01*
X160310065Y-117416611D01*
X160330079Y-117482587D01*
X160362579Y-117543390D01*
X160406316Y-117596685D01*
X160419676Y-117607649D01*
X167042847Y-124230821D01*
X166974235Y-124396467D01*
X166932400Y-124606782D01*
X166932400Y-124821218D01*
X166974235Y-125031533D01*
X167056295Y-125229645D01*
X167175429Y-125407942D01*
X167327058Y-125559571D01*
X167505355Y-125678705D01*
X167703467Y-125760765D01*
X167913782Y-125802600D01*
X168128218Y-125802600D01*
X168338533Y-125760765D01*
X168536645Y-125678705D01*
X168714942Y-125559571D01*
X168866571Y-125407942D01*
X168985705Y-125229645D01*
X169067765Y-125031533D01*
X169109600Y-124821218D01*
X169109600Y-124606782D01*
X169067765Y-124396467D01*
X168985705Y-124198355D01*
X168866571Y-124020058D01*
X168714942Y-123868429D01*
X168536645Y-123749295D01*
X168338533Y-123667235D01*
X168128218Y-123625400D01*
X167913782Y-123625400D01*
X167703467Y-123667235D01*
X167537821Y-123735847D01*
X161005000Y-117203027D01*
X161005000Y-99983346D01*
X161122520Y-99934668D01*
X161284176Y-99826653D01*
X161421653Y-99689176D01*
X161529668Y-99527520D01*
X161604070Y-99347897D01*
X161642000Y-99157211D01*
X161642000Y-98962789D01*
X161604070Y-98772103D01*
X161529668Y-98592480D01*
X161421653Y-98430824D01*
X161284176Y-98293347D01*
X161122520Y-98185332D01*
X161013078Y-98140000D01*
X162836922Y-98140000D01*
X162727480Y-98185332D01*
X162565824Y-98293347D01*
X162428347Y-98430824D01*
X162320332Y-98592480D01*
X162245930Y-98772103D01*
X162208000Y-98962789D01*
X162208000Y-99157211D01*
X162245930Y-99347897D01*
X162320332Y-99527520D01*
X162428347Y-99689176D01*
X162565824Y-99826653D01*
X162727480Y-99934668D01*
X162845000Y-99983346D01*
X162845001Y-117330802D01*
X162843307Y-117348000D01*
X162850065Y-117416611D01*
X162870079Y-117482587D01*
X162902579Y-117543390D01*
X162946316Y-117596685D01*
X162959676Y-117607649D01*
X169582847Y-124230821D01*
X169514235Y-124396467D01*
X169472400Y-124606782D01*
X169472400Y-124821218D01*
X169514235Y-125031533D01*
X169596295Y-125229645D01*
X169715429Y-125407942D01*
X169867058Y-125559571D01*
X170045355Y-125678705D01*
X170243467Y-125760765D01*
X170453782Y-125802600D01*
X170668218Y-125802600D01*
X170878533Y-125760765D01*
X171076645Y-125678705D01*
X171254942Y-125559571D01*
X171406571Y-125407942D01*
X171525705Y-125229645D01*
X171607765Y-125031533D01*
X171649600Y-124821218D01*
X171649600Y-124606782D01*
X171607765Y-124396467D01*
X171525705Y-124198355D01*
X171406571Y-124020058D01*
X171254942Y-123868429D01*
X171076645Y-123749295D01*
X170878533Y-123667235D01*
X170668218Y-123625400D01*
X170453782Y-123625400D01*
X170243467Y-123667235D01*
X170077821Y-123735847D01*
X163545000Y-117203027D01*
X163545000Y-99983346D01*
X163662520Y-99934668D01*
X163824176Y-99826653D01*
X163961653Y-99689176D01*
X164069668Y-99527520D01*
X164144070Y-99347897D01*
X164182000Y-99157211D01*
X164182000Y-98962789D01*
X164144070Y-98772103D01*
X164069668Y-98592480D01*
X163961653Y-98430824D01*
X163824176Y-98293347D01*
X163662520Y-98185332D01*
X163553078Y-98140000D01*
X165376922Y-98140000D01*
X165267480Y-98185332D01*
X165105824Y-98293347D01*
X164968347Y-98430824D01*
X164860332Y-98592480D01*
X164785930Y-98772103D01*
X164748000Y-98962789D01*
X164748000Y-99157211D01*
X164785930Y-99347897D01*
X164860332Y-99527520D01*
X164968347Y-99689176D01*
X165105824Y-99826653D01*
X165267480Y-99934668D01*
X165385000Y-99983346D01*
X165385001Y-117330802D01*
X165383307Y-117348000D01*
X165390065Y-117416611D01*
X165410079Y-117482587D01*
X165442579Y-117543390D01*
X165486316Y-117596685D01*
X165499676Y-117607649D01*
X172122847Y-124230821D01*
X172054235Y-124396467D01*
X172012400Y-124606782D01*
X172012400Y-124821218D01*
X172054235Y-125031533D01*
X172136295Y-125229645D01*
X172255429Y-125407942D01*
X172407058Y-125559571D01*
X172585355Y-125678705D01*
X172783467Y-125760765D01*
X172993782Y-125802600D01*
X173208218Y-125802600D01*
X173418533Y-125760765D01*
X173616645Y-125678705D01*
X173794942Y-125559571D01*
X173946571Y-125407942D01*
X174065705Y-125229645D01*
X174147765Y-125031533D01*
X174189600Y-124821218D01*
X174189600Y-124606782D01*
X174147765Y-124396467D01*
X174065705Y-124198355D01*
X173946571Y-124020058D01*
X173794942Y-123868429D01*
X173616645Y-123749295D01*
X173418533Y-123667235D01*
X173208218Y-123625400D01*
X172993782Y-123625400D01*
X172783467Y-123667235D01*
X172617821Y-123735847D01*
X166085000Y-117203027D01*
X166085000Y-99983346D01*
X166202520Y-99934668D01*
X166364176Y-99826653D01*
X166501653Y-99689176D01*
X166609668Y-99527520D01*
X166684070Y-99347897D01*
X166722000Y-99157211D01*
X166722000Y-98962789D01*
X166684070Y-98772103D01*
X166609668Y-98592480D01*
X166501653Y-98430824D01*
X166364176Y-98293347D01*
X166202520Y-98185332D01*
X166093078Y-98140000D01*
X167916922Y-98140000D01*
X167807480Y-98185332D01*
X167645824Y-98293347D01*
X167508347Y-98430824D01*
X167400332Y-98592480D01*
X167325930Y-98772103D01*
X167288000Y-98962789D01*
X167288000Y-99157211D01*
X167325930Y-99347897D01*
X167400332Y-99527520D01*
X167508347Y-99689176D01*
X167645824Y-99826653D01*
X167807480Y-99934668D01*
X167925000Y-99983346D01*
X167925001Y-117330802D01*
X167923307Y-117348000D01*
X167930065Y-117416611D01*
X167950079Y-117482587D01*
X167982579Y-117543390D01*
X168026316Y-117596685D01*
X168039676Y-117607649D01*
X174662847Y-124230821D01*
X174594235Y-124396467D01*
X174552400Y-124606782D01*
X174552400Y-124821218D01*
X174594235Y-125031533D01*
X174676295Y-125229645D01*
X174795429Y-125407942D01*
X174947058Y-125559571D01*
X175125355Y-125678705D01*
X175323467Y-125760765D01*
X175533782Y-125802600D01*
X175748218Y-125802600D01*
X175958533Y-125760765D01*
X176156645Y-125678705D01*
X176334942Y-125559571D01*
X176486571Y-125407942D01*
X176605705Y-125229645D01*
X176687765Y-125031533D01*
X176729600Y-124821218D01*
X176729600Y-124606782D01*
X176687765Y-124396467D01*
X176605705Y-124198355D01*
X176486571Y-124020058D01*
X176334942Y-123868429D01*
X176156645Y-123749295D01*
X175958533Y-123667235D01*
X175748218Y-123625400D01*
X175533782Y-123625400D01*
X175323467Y-123667235D01*
X175157821Y-123735847D01*
X168625000Y-117203027D01*
X168625000Y-99983346D01*
X168742520Y-99934668D01*
X168904176Y-99826653D01*
X169041653Y-99689176D01*
X169149668Y-99527520D01*
X169224070Y-99347897D01*
X169262000Y-99157211D01*
X169262000Y-98962789D01*
X169224070Y-98772103D01*
X169149668Y-98592480D01*
X169041653Y-98430824D01*
X168904176Y-98293347D01*
X168742520Y-98185332D01*
X168633078Y-98140000D01*
X170456922Y-98140000D01*
X170347480Y-98185332D01*
X170185824Y-98293347D01*
X170048347Y-98430824D01*
X169940332Y-98592480D01*
X169865930Y-98772103D01*
X169828000Y-98962789D01*
X169828000Y-99157211D01*
X169865930Y-99347897D01*
X169940332Y-99527520D01*
X170048347Y-99689176D01*
X170185824Y-99826653D01*
X170347480Y-99934668D01*
X170465000Y-99983346D01*
X170465001Y-117330802D01*
X170463307Y-117348000D01*
X170470065Y-117416611D01*
X170490079Y-117482587D01*
X170522579Y-117543390D01*
X170566316Y-117596685D01*
X170579676Y-117607649D01*
X177202847Y-124230821D01*
X177134235Y-124396467D01*
X177092400Y-124606782D01*
X177092400Y-124821218D01*
X177134235Y-125031533D01*
X177216295Y-125229645D01*
X177335429Y-125407942D01*
X177487058Y-125559571D01*
X177665355Y-125678705D01*
X177863467Y-125760765D01*
X178073782Y-125802600D01*
X178288218Y-125802600D01*
X178498533Y-125760765D01*
X178696645Y-125678705D01*
X178874942Y-125559571D01*
X179026571Y-125407942D01*
X179145705Y-125229645D01*
X179227765Y-125031533D01*
X179269600Y-124821218D01*
X179269600Y-124606782D01*
X179227765Y-124396467D01*
X179145705Y-124198355D01*
X179026571Y-124020058D01*
X178874942Y-123868429D01*
X178696645Y-123749295D01*
X178498533Y-123667235D01*
X178288218Y-123625400D01*
X178073782Y-123625400D01*
X177863467Y-123667235D01*
X177697821Y-123735847D01*
X171165000Y-117203027D01*
X171165000Y-99983346D01*
X171282520Y-99934668D01*
X171444176Y-99826653D01*
X171581653Y-99689176D01*
X171689668Y-99527520D01*
X171764070Y-99347897D01*
X171802000Y-99157211D01*
X171802000Y-98962789D01*
X171764070Y-98772103D01*
X171689668Y-98592480D01*
X171581653Y-98430824D01*
X171444176Y-98293347D01*
X171282520Y-98185332D01*
X171173078Y-98140000D01*
X171940027Y-98140000D01*
X172454608Y-98654582D01*
X172405930Y-98772103D01*
X172368000Y-98962789D01*
X172368000Y-99157211D01*
X172405930Y-99347897D01*
X172480332Y-99527520D01*
X172588347Y-99689176D01*
X172725824Y-99826653D01*
X172887480Y-99934668D01*
X173067103Y-100009070D01*
X173257789Y-100047000D01*
X173452211Y-100047000D01*
X173642897Y-100009070D01*
X173822520Y-99934668D01*
X173984176Y-99826653D01*
X174121653Y-99689176D01*
X174229668Y-99527520D01*
X174304070Y-99347897D01*
X174342000Y-99157211D01*
X174342000Y-98962789D01*
X174304070Y-98772103D01*
X174229668Y-98592480D01*
X174121653Y-98430824D01*
X173984176Y-98293347D01*
X173822520Y-98185332D01*
X173642897Y-98110930D01*
X173452211Y-98073000D01*
X173257789Y-98073000D01*
X173067103Y-98110930D01*
X172949582Y-98159608D01*
X172344653Y-97554680D01*
X172333685Y-97541315D01*
X172280390Y-97497578D01*
X172219587Y-97465078D01*
X172153612Y-97445065D01*
X172102189Y-97440000D01*
X172102188Y-97440000D01*
X172085000Y-97438307D01*
X172067812Y-97440000D01*
X171173078Y-97440000D01*
X171282520Y-97394668D01*
X171444176Y-97286653D01*
X171527188Y-97203641D01*
X172689036Y-97203641D01*
X172767441Y-97349972D01*
X172940650Y-97448651D01*
X173129783Y-97511643D01*
X173327571Y-97536526D01*
X173526413Y-97522345D01*
X173718666Y-97469644D01*
X173896945Y-97380450D01*
X173942559Y-97349972D01*
X174020964Y-97203641D01*
X173355000Y-96537678D01*
X172689036Y-97203641D01*
X171527188Y-97203641D01*
X171581653Y-97149176D01*
X171689668Y-96987520D01*
X171764070Y-96807897D01*
X171802000Y-96617211D01*
X171802000Y-96492571D01*
X172338474Y-96492571D01*
X172352655Y-96691413D01*
X172405356Y-96883666D01*
X172494550Y-97061945D01*
X172525028Y-97107559D01*
X172671359Y-97185964D01*
X173337322Y-96520000D01*
X173372678Y-96520000D01*
X174038641Y-97185964D01*
X174184972Y-97107559D01*
X174283651Y-96934350D01*
X174346643Y-96745217D01*
X174371526Y-96547429D01*
X174357345Y-96348587D01*
X174304644Y-96156334D01*
X174215450Y-95978055D01*
X174184972Y-95932441D01*
X174038641Y-95854036D01*
X173372678Y-96520000D01*
X173337322Y-96520000D01*
X172671359Y-95854036D01*
X172525028Y-95932441D01*
X172426349Y-96105650D01*
X172363357Y-96294783D01*
X172338474Y-96492571D01*
X171802000Y-96492571D01*
X171802000Y-96422789D01*
X171764070Y-96232103D01*
X171689668Y-96052480D01*
X171581653Y-95890824D01*
X171527188Y-95836359D01*
X172689036Y-95836359D01*
X173355000Y-96502322D01*
X174020964Y-95836359D01*
X173942559Y-95690028D01*
X173769350Y-95591349D01*
X173580217Y-95528357D01*
X173382429Y-95503474D01*
X173183587Y-95517655D01*
X172991334Y-95570356D01*
X172813055Y-95659550D01*
X172767441Y-95690028D01*
X172689036Y-95836359D01*
X171527188Y-95836359D01*
X171444176Y-95753347D01*
X171282520Y-95645332D01*
X171102897Y-95570930D01*
X170912211Y-95533000D01*
X170717789Y-95533000D01*
X170527103Y-95570930D01*
X170347480Y-95645332D01*
X170185824Y-95753347D01*
X170048347Y-95890824D01*
X169940332Y-96052480D01*
X169865930Y-96232103D01*
X169828000Y-96422789D01*
X169828000Y-96617211D01*
X169865930Y-96807897D01*
X169940332Y-96987520D01*
X170048347Y-97149176D01*
X170185824Y-97286653D01*
X170347480Y-97394668D01*
X170456922Y-97440000D01*
X168697918Y-97440000D01*
X168816945Y-97380450D01*
X168862559Y-97349972D01*
X168940964Y-97203641D01*
X168275000Y-96537678D01*
X167609036Y-97203641D01*
X167687441Y-97349972D01*
X167845465Y-97440000D01*
X166093078Y-97440000D01*
X166202520Y-97394668D01*
X166364176Y-97286653D01*
X166501653Y-97149176D01*
X166609668Y-96987520D01*
X166684070Y-96807897D01*
X166722000Y-96617211D01*
X166722000Y-96492571D01*
X167258474Y-96492571D01*
X167272655Y-96691413D01*
X167325356Y-96883666D01*
X167414550Y-97061945D01*
X167445028Y-97107559D01*
X167591359Y-97185964D01*
X168257322Y-96520000D01*
X168292678Y-96520000D01*
X168958641Y-97185964D01*
X169104972Y-97107559D01*
X169203651Y-96934350D01*
X169266643Y-96745217D01*
X169291526Y-96547429D01*
X169277345Y-96348587D01*
X169224644Y-96156334D01*
X169135450Y-95978055D01*
X169104972Y-95932441D01*
X168958641Y-95854036D01*
X168292678Y-96520000D01*
X168257322Y-96520000D01*
X167591359Y-95854036D01*
X167445028Y-95932441D01*
X167346349Y-96105650D01*
X167283357Y-96294783D01*
X167258474Y-96492571D01*
X166722000Y-96492571D01*
X166722000Y-96422789D01*
X166684070Y-96232103D01*
X166635391Y-96114582D01*
X166913614Y-95836359D01*
X167609036Y-95836359D01*
X168275000Y-96502322D01*
X168940964Y-95836359D01*
X168862559Y-95690028D01*
X168689350Y-95591349D01*
X168500217Y-95528357D01*
X168302429Y-95503474D01*
X168103587Y-95517655D01*
X167911334Y-95570356D01*
X167733055Y-95659550D01*
X167687441Y-95690028D01*
X167609036Y-95836359D01*
X166913614Y-95836359D01*
X168256330Y-94493645D01*
X168269685Y-94482685D01*
X168313422Y-94429390D01*
X168345922Y-94368587D01*
X168365935Y-94302612D01*
X168371000Y-94251189D01*
X168372693Y-94234001D01*
X168371000Y-94216812D01*
X168371000Y-77487317D01*
X168536645Y-77418705D01*
X168714942Y-77299571D01*
X168866571Y-77147942D01*
X168985705Y-76969645D01*
X169067765Y-76771533D01*
X169109600Y-76561218D01*
X169109600Y-76346782D01*
X169472400Y-76346782D01*
X169472400Y-76561218D01*
X169514235Y-76771533D01*
X169596295Y-76969645D01*
X169715429Y-77147942D01*
X169867058Y-77299571D01*
X170045355Y-77418705D01*
X170243467Y-77500765D01*
X170453782Y-77542600D01*
X170668218Y-77542600D01*
X170878533Y-77500765D01*
X171076645Y-77418705D01*
X171254942Y-77299571D01*
X171406571Y-77147942D01*
X171525705Y-76969645D01*
X171607765Y-76771533D01*
X171649600Y-76561218D01*
X171649600Y-76346782D01*
X172012400Y-76346782D01*
X172012400Y-76561218D01*
X172054235Y-76771533D01*
X172136295Y-76969645D01*
X172255429Y-77147942D01*
X172407058Y-77299571D01*
X172585355Y-77418705D01*
X172751000Y-77487317D01*
X172751001Y-79880403D01*
X172591797Y-79946348D01*
X172415728Y-80063993D01*
X172265993Y-80213728D01*
X172148348Y-80389797D01*
X172067312Y-80585434D01*
X172026000Y-80793122D01*
X172026000Y-81004878D01*
X172067312Y-81212566D01*
X172148348Y-81408203D01*
X172265993Y-81584272D01*
X172415728Y-81734007D01*
X172591797Y-81851652D01*
X172787434Y-81932688D01*
X172995122Y-81974000D01*
X173206878Y-81974000D01*
X173414566Y-81932688D01*
X173610203Y-81851652D01*
X173763833Y-81749000D01*
X174539790Y-81749000D01*
X174544617Y-81798009D01*
X174558912Y-81845134D01*
X174582127Y-81888565D01*
X174613368Y-81926632D01*
X174651435Y-81957873D01*
X174694866Y-81981088D01*
X174741991Y-81995383D01*
X174791000Y-82000210D01*
X175566000Y-81999000D01*
X175628500Y-81936500D01*
X175628500Y-80911500D01*
X175653500Y-80911500D01*
X175653500Y-81936500D01*
X175716000Y-81999000D01*
X176491000Y-82000210D01*
X176540009Y-81995383D01*
X176587134Y-81981088D01*
X176630565Y-81957873D01*
X176668632Y-81926632D01*
X176699873Y-81888565D01*
X176723088Y-81845134D01*
X176737383Y-81798009D01*
X176742210Y-81749000D01*
X176741000Y-80974000D01*
X176678500Y-80911500D01*
X175653500Y-80911500D01*
X175628500Y-80911500D01*
X174603500Y-80911500D01*
X174541000Y-80974000D01*
X174539790Y-81749000D01*
X173763833Y-81749000D01*
X173786272Y-81734007D01*
X173936007Y-81584272D01*
X174053652Y-81408203D01*
X174134688Y-81212566D01*
X174176000Y-81004878D01*
X174176000Y-80793122D01*
X174134688Y-80585434D01*
X174053652Y-80389797D01*
X173936007Y-80213728D01*
X173786272Y-80063993D01*
X173763834Y-80049000D01*
X174539790Y-80049000D01*
X174541000Y-80824000D01*
X174603500Y-80886500D01*
X175628500Y-80886500D01*
X175628500Y-79861500D01*
X175653500Y-79861500D01*
X175653500Y-80886500D01*
X176678500Y-80886500D01*
X176741000Y-80824000D01*
X176742210Y-80049000D01*
X176737383Y-79999991D01*
X176723088Y-79952866D01*
X176699873Y-79909435D01*
X176668632Y-79871368D01*
X176630565Y-79840127D01*
X176587134Y-79816912D01*
X176540009Y-79802617D01*
X176491000Y-79797790D01*
X175716000Y-79799000D01*
X175653500Y-79861500D01*
X175628500Y-79861500D01*
X175566000Y-79799000D01*
X174791000Y-79797790D01*
X174741991Y-79802617D01*
X174694866Y-79816912D01*
X174651435Y-79840127D01*
X174613368Y-79871368D01*
X174582127Y-79909435D01*
X174558912Y-79952866D01*
X174544617Y-79999991D01*
X174539790Y-80049000D01*
X173763834Y-80049000D01*
X173610203Y-79946348D01*
X173451000Y-79880404D01*
X173451000Y-77487317D01*
X173616645Y-77418705D01*
X173794942Y-77299571D01*
X173946571Y-77147942D01*
X174065705Y-76969645D01*
X174147765Y-76771533D01*
X174189600Y-76561218D01*
X174189600Y-76346782D01*
X174552400Y-76346782D01*
X174552400Y-76561218D01*
X174594235Y-76771533D01*
X174676295Y-76969645D01*
X174795429Y-77147942D01*
X174947058Y-77299571D01*
X175125355Y-77418705D01*
X175323467Y-77500765D01*
X175533782Y-77542600D01*
X175748218Y-77542600D01*
X175958533Y-77500765D01*
X176156645Y-77418705D01*
X176334942Y-77299571D01*
X176486571Y-77147942D01*
X176605705Y-76969645D01*
X176687765Y-76771533D01*
X176729600Y-76561218D01*
X176729600Y-76346782D01*
X177092400Y-76346782D01*
X177092400Y-76561218D01*
X177134235Y-76771533D01*
X177216295Y-76969645D01*
X177335429Y-77147942D01*
X177487058Y-77299571D01*
X177665355Y-77418705D01*
X177863467Y-77500765D01*
X178073782Y-77542600D01*
X178288218Y-77542600D01*
X178498533Y-77500765D01*
X178696645Y-77418705D01*
X178874942Y-77299571D01*
X179026571Y-77147942D01*
X179145705Y-76969645D01*
X179227765Y-76771533D01*
X179269600Y-76561218D01*
X179269600Y-76346782D01*
X179227765Y-76136467D01*
X179145705Y-75938355D01*
X179026571Y-75760058D01*
X178874942Y-75608429D01*
X178696645Y-75489295D01*
X178498533Y-75407235D01*
X178288218Y-75365400D01*
X178073782Y-75365400D01*
X177863467Y-75407235D01*
X177665355Y-75489295D01*
X177487058Y-75608429D01*
X177335429Y-75760058D01*
X177216295Y-75938355D01*
X177134235Y-76136467D01*
X177092400Y-76346782D01*
X176729600Y-76346782D01*
X176687765Y-76136467D01*
X176605705Y-75938355D01*
X176486571Y-75760058D01*
X176334942Y-75608429D01*
X176156645Y-75489295D01*
X175958533Y-75407235D01*
X175748218Y-75365400D01*
X175533782Y-75365400D01*
X175323467Y-75407235D01*
X175125355Y-75489295D01*
X174947058Y-75608429D01*
X174795429Y-75760058D01*
X174676295Y-75938355D01*
X174594235Y-76136467D01*
X174552400Y-76346782D01*
X174189600Y-76346782D01*
X174147765Y-76136467D01*
X174065705Y-75938355D01*
X173946571Y-75760058D01*
X173794942Y-75608429D01*
X173616645Y-75489295D01*
X173418533Y-75407235D01*
X173208218Y-75365400D01*
X172993782Y-75365400D01*
X172783467Y-75407235D01*
X172585355Y-75489295D01*
X172407058Y-75608429D01*
X172255429Y-75760058D01*
X172136295Y-75938355D01*
X172054235Y-76136467D01*
X172012400Y-76346782D01*
X171649600Y-76346782D01*
X171607765Y-76136467D01*
X171525705Y-75938355D01*
X171406571Y-75760058D01*
X171254942Y-75608429D01*
X171076645Y-75489295D01*
X170878533Y-75407235D01*
X170668218Y-75365400D01*
X170453782Y-75365400D01*
X170243467Y-75407235D01*
X170045355Y-75489295D01*
X169867058Y-75608429D01*
X169715429Y-75760058D01*
X169596295Y-75938355D01*
X169514235Y-76136467D01*
X169472400Y-76346782D01*
X169109600Y-76346782D01*
X169067765Y-76136467D01*
X168985705Y-75938355D01*
X168866571Y-75760058D01*
X168714942Y-75608429D01*
X168536645Y-75489295D01*
X168338533Y-75407235D01*
X168128218Y-75365400D01*
X167913782Y-75365400D01*
X167703467Y-75407235D01*
X167505355Y-75489295D01*
X167327058Y-75608429D01*
X167175429Y-75760058D01*
X167056295Y-75938355D01*
X166974235Y-76136467D01*
X166932400Y-76346782D01*
X166932400Y-76561218D01*
X166974235Y-76771533D01*
X167056295Y-76969645D01*
X167175429Y-77147942D01*
X167327058Y-77299571D01*
X167505355Y-77418705D01*
X167671000Y-77487317D01*
X167671001Y-94089024D01*
X166140418Y-95619609D01*
X166022897Y-95570930D01*
X165832211Y-95533000D01*
X165637789Y-95533000D01*
X165447103Y-95570930D01*
X165267480Y-95645332D01*
X165105824Y-95753347D01*
X164968347Y-95890824D01*
X164860332Y-96052480D01*
X164785930Y-96232103D01*
X164748000Y-96422789D01*
X164748000Y-96617211D01*
X164785930Y-96807897D01*
X164860332Y-96987520D01*
X164968347Y-97149176D01*
X165105824Y-97286653D01*
X165267480Y-97394668D01*
X165376922Y-97440000D01*
X163553078Y-97440000D01*
X163662520Y-97394668D01*
X163824176Y-97286653D01*
X163961653Y-97149176D01*
X164069668Y-96987520D01*
X164144070Y-96807897D01*
X164182000Y-96617211D01*
X164182000Y-96422789D01*
X164144070Y-96232103D01*
X164095391Y-96114582D01*
X165716330Y-94493645D01*
X165729685Y-94482685D01*
X165773422Y-94429390D01*
X165805922Y-94368587D01*
X165825935Y-94302612D01*
X165831000Y-94251189D01*
X165832693Y-94234001D01*
X165831000Y-94216812D01*
X165831000Y-77487317D01*
X165996645Y-77418705D01*
X166174942Y-77299571D01*
X166326571Y-77147942D01*
X166445705Y-76969645D01*
X166527765Y-76771533D01*
X166569600Y-76561218D01*
X166569600Y-76346782D01*
X166527765Y-76136467D01*
X166445705Y-75938355D01*
X166326571Y-75760058D01*
X166174942Y-75608429D01*
X165996645Y-75489295D01*
X165798533Y-75407235D01*
X165588218Y-75365400D01*
X165373782Y-75365400D01*
X165163467Y-75407235D01*
X164965355Y-75489295D01*
X164787058Y-75608429D01*
X164635429Y-75760058D01*
X164516295Y-75938355D01*
X164434235Y-76136467D01*
X164392400Y-76346782D01*
X164392400Y-76561218D01*
X164434235Y-76771533D01*
X164516295Y-76969645D01*
X164635429Y-77147942D01*
X164787058Y-77299571D01*
X164965355Y-77418705D01*
X165131000Y-77487317D01*
X165131001Y-94089024D01*
X163600418Y-95619609D01*
X163482897Y-95570930D01*
X163292211Y-95533000D01*
X163097789Y-95533000D01*
X162907103Y-95570930D01*
X162727480Y-95645332D01*
X162565824Y-95753347D01*
X162428347Y-95890824D01*
X162320332Y-96052480D01*
X162245930Y-96232103D01*
X162208000Y-96422789D01*
X162208000Y-96617211D01*
X162245930Y-96807897D01*
X162320332Y-96987520D01*
X162428347Y-97149176D01*
X162565824Y-97286653D01*
X162727480Y-97394668D01*
X162836922Y-97440000D01*
X161013078Y-97440000D01*
X161122520Y-97394668D01*
X161284176Y-97286653D01*
X161421653Y-97149176D01*
X161529668Y-96987520D01*
X161604070Y-96807897D01*
X161642000Y-96617211D01*
X161642000Y-96422789D01*
X161604070Y-96232103D01*
X161555391Y-96114582D01*
X163176330Y-94493645D01*
X163189685Y-94482685D01*
X163233422Y-94429390D01*
X163265922Y-94368587D01*
X163285935Y-94302612D01*
X163291000Y-94251189D01*
X163292693Y-94234001D01*
X163291000Y-94216812D01*
X163291000Y-77487317D01*
X163456645Y-77418705D01*
X163634942Y-77299571D01*
X163786571Y-77147942D01*
X163905705Y-76969645D01*
X163987765Y-76771533D01*
X164029600Y-76561218D01*
X164029600Y-76346782D01*
X163987765Y-76136467D01*
X163905705Y-75938355D01*
X163786571Y-75760058D01*
X163634942Y-75608429D01*
X163456645Y-75489295D01*
X163258533Y-75407235D01*
X163048218Y-75365400D01*
X162833782Y-75365400D01*
X162623467Y-75407235D01*
X162425355Y-75489295D01*
X162247058Y-75608429D01*
X162095429Y-75760058D01*
X161976295Y-75938355D01*
X161894235Y-76136467D01*
X161852400Y-76346782D01*
X161852400Y-76561218D01*
X161894235Y-76771533D01*
X161976295Y-76969645D01*
X162095429Y-77147942D01*
X162247058Y-77299571D01*
X162425355Y-77418705D01*
X162591000Y-77487317D01*
X162591001Y-94089024D01*
X161060418Y-95619609D01*
X160942897Y-95570930D01*
X160752211Y-95533000D01*
X160557789Y-95533000D01*
X160367103Y-95570930D01*
X160187480Y-95645332D01*
X160025824Y-95753347D01*
X159888347Y-95890824D01*
X159780332Y-96052480D01*
X159705930Y-96232103D01*
X159668000Y-96422789D01*
X159668000Y-96617211D01*
X159705930Y-96807897D01*
X159780332Y-96987520D01*
X159888347Y-97149176D01*
X160025824Y-97286653D01*
X160187480Y-97394668D01*
X160296922Y-97440000D01*
X158473078Y-97440000D01*
X158582520Y-97394668D01*
X158744176Y-97286653D01*
X158881653Y-97149176D01*
X158989668Y-96987520D01*
X159064070Y-96807897D01*
X159102000Y-96617211D01*
X159102000Y-96422789D01*
X159064070Y-96232103D01*
X159015391Y-96114582D01*
X160636330Y-94493645D01*
X160649685Y-94482685D01*
X160693422Y-94429390D01*
X160725922Y-94368587D01*
X160745935Y-94302612D01*
X160751000Y-94251189D01*
X160752693Y-94234001D01*
X160751000Y-94216812D01*
X160751000Y-77487317D01*
X160916645Y-77418705D01*
X161094942Y-77299571D01*
X161246571Y-77147942D01*
X161365705Y-76969645D01*
X161447765Y-76771533D01*
X161489600Y-76561218D01*
X161489600Y-76346782D01*
X161447765Y-76136467D01*
X161365705Y-75938355D01*
X161246571Y-75760058D01*
X161094942Y-75608429D01*
X160916645Y-75489295D01*
X160718533Y-75407235D01*
X160508218Y-75365400D01*
X160293782Y-75365400D01*
X160083467Y-75407235D01*
X159885355Y-75489295D01*
X159707058Y-75608429D01*
X159555429Y-75760058D01*
X159436295Y-75938355D01*
X159354235Y-76136467D01*
X159312400Y-76346782D01*
X159312400Y-76561218D01*
X159354235Y-76771533D01*
X159436295Y-76969645D01*
X159555429Y-77147942D01*
X159707058Y-77299571D01*
X159885355Y-77418705D01*
X160051000Y-77487317D01*
X160051001Y-94089024D01*
X158520418Y-95619609D01*
X158402897Y-95570930D01*
X158212211Y-95533000D01*
X158017789Y-95533000D01*
X157827103Y-95570930D01*
X157647480Y-95645332D01*
X157485824Y-95753347D01*
X157348347Y-95890824D01*
X157240332Y-96052480D01*
X157165930Y-96232103D01*
X157128000Y-96422789D01*
X157128000Y-96617211D01*
X157165930Y-96807897D01*
X157240332Y-96987520D01*
X157348347Y-97149176D01*
X157485824Y-97286653D01*
X157647480Y-97394668D01*
X157756922Y-97440000D01*
X156989975Y-97440000D01*
X156475392Y-96925418D01*
X156524070Y-96807897D01*
X156562000Y-96617211D01*
X156562000Y-96422789D01*
X156524070Y-96232103D01*
X156449668Y-96052480D01*
X156341653Y-95890824D01*
X156204176Y-95753347D01*
X156042520Y-95645332D01*
X155862897Y-95570930D01*
X155672211Y-95533000D01*
X155477789Y-95533000D01*
X155287103Y-95570930D01*
X155107480Y-95645332D01*
X154945824Y-95753347D01*
X154808347Y-95890824D01*
X154700332Y-96052480D01*
X154625930Y-96232103D01*
X154588000Y-96422789D01*
X154588000Y-96617211D01*
X154625930Y-96807897D01*
X154674608Y-96925418D01*
X153942676Y-97657351D01*
X153929315Y-97668316D01*
X153885578Y-97721611D01*
X153853078Y-97782414D01*
X153850777Y-97790000D01*
X153833065Y-97848389D01*
X153826307Y-97917000D01*
X153828000Y-97934188D01*
X153828001Y-119108802D01*
X153828000Y-119108812D01*
X153828001Y-123172024D01*
X153264179Y-123735847D01*
X153098533Y-123667235D01*
X152888218Y-123625400D01*
X152673782Y-123625400D01*
X152463467Y-123667235D01*
X152265355Y-123749295D01*
X152087058Y-123868429D01*
X151935429Y-124020058D01*
X151816295Y-124198355D01*
X151734235Y-124396467D01*
X151692400Y-124606782D01*
X151329600Y-124606782D01*
X151287765Y-124396467D01*
X151205705Y-124198355D01*
X151086571Y-124020058D01*
X150934942Y-123868429D01*
X150756645Y-123749295D01*
X150558533Y-123667235D01*
X150348218Y-123625400D01*
X150133782Y-123625400D01*
X149923467Y-123667235D01*
X149725355Y-123749295D01*
X149547058Y-123868429D01*
X149395429Y-124020058D01*
X149276295Y-124198355D01*
X149194235Y-124396467D01*
X149152400Y-124606782D01*
X148789600Y-124606782D01*
X148747765Y-124396467D01*
X148665705Y-124198355D01*
X148546571Y-124020058D01*
X148394942Y-123868429D01*
X148216645Y-123749295D01*
X148051000Y-123680683D01*
X148051000Y-122572973D01*
X149024886Y-121599088D01*
X150456000Y-121599088D01*
X150500108Y-121594744D01*
X150542520Y-121581878D01*
X150581608Y-121560985D01*
X150615868Y-121532868D01*
X150643985Y-121498608D01*
X150664878Y-121459520D01*
X150677744Y-121417108D01*
X150682088Y-121373000D01*
X150682088Y-120417122D01*
X151071000Y-120417122D01*
X151071000Y-120628878D01*
X151112312Y-120836566D01*
X151193348Y-121032203D01*
X151310993Y-121208272D01*
X151460728Y-121358007D01*
X151636797Y-121475652D01*
X151832434Y-121556688D01*
X152040122Y-121598000D01*
X152251878Y-121598000D01*
X152459566Y-121556688D01*
X152655203Y-121475652D01*
X152831272Y-121358007D01*
X152981007Y-121208272D01*
X153098652Y-121032203D01*
X153179688Y-120836566D01*
X153221000Y-120628878D01*
X153221000Y-120417122D01*
X153179688Y-120209434D01*
X153098652Y-120013797D01*
X152981007Y-119837728D01*
X152831272Y-119687993D01*
X152655203Y-119570348D01*
X152459566Y-119489312D01*
X152251878Y-119448000D01*
X152040122Y-119448000D01*
X151832434Y-119489312D01*
X151636797Y-119570348D01*
X151460728Y-119687993D01*
X151310993Y-119837728D01*
X151193348Y-120013797D01*
X151112312Y-120209434D01*
X151071000Y-120417122D01*
X150682088Y-120417122D01*
X150682088Y-119673000D01*
X150677744Y-119628892D01*
X150664878Y-119586480D01*
X150643985Y-119547392D01*
X150615868Y-119513132D01*
X150581608Y-119485015D01*
X150542520Y-119464122D01*
X150500108Y-119451256D01*
X150456000Y-119446912D01*
X148756000Y-119446912D01*
X148711892Y-119451256D01*
X148669480Y-119464122D01*
X148630392Y-119485015D01*
X148596132Y-119513132D01*
X148568015Y-119547392D01*
X148547122Y-119586480D01*
X148534256Y-119628892D01*
X148529912Y-119673000D01*
X148529912Y-121104114D01*
X147465676Y-122168351D01*
X147452316Y-122179315D01*
X147408579Y-122232610D01*
X147376079Y-122293413D01*
X147356065Y-122359389D01*
X147349307Y-122428000D01*
X147351001Y-122445198D01*
X147351000Y-123680683D01*
X147185355Y-123749295D01*
X147007058Y-123868429D01*
X146855429Y-124020058D01*
X146736295Y-124198355D01*
X146654235Y-124396467D01*
X146612400Y-124606782D01*
X146249600Y-124606782D01*
X146207765Y-124396467D01*
X146125705Y-124198355D01*
X146006571Y-124020058D01*
X145854942Y-123868429D01*
X145676645Y-123749295D01*
X145478533Y-123667235D01*
X145268218Y-123625400D01*
X145053782Y-123625400D01*
X144843467Y-123667235D01*
X144645355Y-123749295D01*
X144467058Y-123868429D01*
X144315429Y-124020058D01*
X144196295Y-124198355D01*
X144114235Y-124396467D01*
X144072400Y-124606782D01*
X143709600Y-124606782D01*
X143667765Y-124396467D01*
X143585705Y-124198355D01*
X143466571Y-124020058D01*
X143314942Y-123868429D01*
X143136645Y-123749295D01*
X142938533Y-123667235D01*
X142728218Y-123625400D01*
X142513782Y-123625400D01*
X142303467Y-123667235D01*
X142105355Y-123749295D01*
X141927058Y-123868429D01*
X141775429Y-124020058D01*
X141656295Y-124198355D01*
X141574235Y-124396467D01*
X141532400Y-124606782D01*
X132704698Y-124606782D01*
X132680173Y-114306348D01*
X137134000Y-114306348D01*
X137134000Y-114547652D01*
X137181076Y-114784319D01*
X137273419Y-115007255D01*
X137407481Y-115207892D01*
X137578108Y-115378519D01*
X137778745Y-115512581D01*
X138001681Y-115604924D01*
X138238348Y-115652000D01*
X138479652Y-115652000D01*
X138716319Y-115604924D01*
X138939255Y-115512581D01*
X139139892Y-115378519D01*
X139310519Y-115207892D01*
X139444581Y-115007255D01*
X139536924Y-114784319D01*
X139584000Y-114547652D01*
X139584000Y-114306348D01*
X142214000Y-114306348D01*
X142214000Y-114547652D01*
X142261076Y-114784319D01*
X142353419Y-115007255D01*
X142487481Y-115207892D01*
X142658108Y-115378519D01*
X142858745Y-115512581D01*
X143081681Y-115604924D01*
X143318348Y-115652000D01*
X143559652Y-115652000D01*
X143796319Y-115604924D01*
X144019255Y-115512581D01*
X144219892Y-115378519D01*
X144390519Y-115207892D01*
X144524581Y-115007255D01*
X144616924Y-114784319D01*
X144664000Y-114547652D01*
X144664000Y-114306348D01*
X144616924Y-114069681D01*
X144524581Y-113846745D01*
X144390519Y-113646108D01*
X144219892Y-113475481D01*
X144019255Y-113341419D01*
X143796319Y-113249076D01*
X143559652Y-113202000D01*
X143318348Y-113202000D01*
X143081681Y-113249076D01*
X142858745Y-113341419D01*
X142658108Y-113475481D01*
X142487481Y-113646108D01*
X142353419Y-113846745D01*
X142261076Y-114069681D01*
X142214000Y-114306348D01*
X139584000Y-114306348D01*
X139536924Y-114069681D01*
X139444581Y-113846745D01*
X139310519Y-113646108D01*
X139139892Y-113475481D01*
X138939255Y-113341419D01*
X138716319Y-113249076D01*
X138479652Y-113202000D01*
X138238348Y-113202000D01*
X138001681Y-113249076D01*
X137778745Y-113341419D01*
X137578108Y-113475481D01*
X137407481Y-113646108D01*
X137273419Y-113846745D01*
X137181076Y-114069681D01*
X137134000Y-114306348D01*
X132680173Y-114306348D01*
X132649774Y-101538443D01*
X144155000Y-101538443D01*
X144155000Y-101661557D01*
X144179019Y-101782306D01*
X144226132Y-101896048D01*
X144294531Y-101998414D01*
X144381586Y-102085469D01*
X144483952Y-102153868D01*
X144597694Y-102200981D01*
X144718443Y-102225000D01*
X144841557Y-102225000D01*
X144962306Y-102200981D01*
X145076048Y-102153868D01*
X145178414Y-102085469D01*
X145265469Y-101998414D01*
X145333868Y-101896048D01*
X145380981Y-101782306D01*
X145405000Y-101661557D01*
X145405000Y-101538443D01*
X145393640Y-101481333D01*
X156572331Y-90302644D01*
X156585685Y-90291685D01*
X156629422Y-90238390D01*
X156661922Y-90177587D01*
X156681935Y-90111612D01*
X156683170Y-90099079D01*
X156688693Y-90043001D01*
X156687000Y-90025812D01*
X156687000Y-77487317D01*
X156852645Y-77418705D01*
X157030942Y-77299571D01*
X157182571Y-77147942D01*
X157301705Y-76969645D01*
X157383765Y-76771533D01*
X157425600Y-76561218D01*
X157425600Y-76346782D01*
X157383765Y-76136467D01*
X157301705Y-75938355D01*
X157182571Y-75760058D01*
X157030942Y-75608429D01*
X156852645Y-75489295D01*
X156654533Y-75407235D01*
X156444218Y-75365400D01*
X156229782Y-75365400D01*
X156019467Y-75407235D01*
X155821355Y-75489295D01*
X155643058Y-75608429D01*
X155491429Y-75760058D01*
X155372295Y-75938355D01*
X155290235Y-76136467D01*
X155248400Y-76346782D01*
X155248400Y-76561218D01*
X155290235Y-76771533D01*
X155372295Y-76969645D01*
X155491429Y-77147942D01*
X155643058Y-77299571D01*
X155821355Y-77418705D01*
X155987001Y-77487317D01*
X155987000Y-79611811D01*
X155987000Y-79611812D01*
X155987001Y-89898024D01*
X144898667Y-100986360D01*
X144841557Y-100975000D01*
X144718443Y-100975000D01*
X144597694Y-100999019D01*
X144483952Y-101046132D01*
X144381586Y-101114531D01*
X144294531Y-101201586D01*
X144226132Y-101303952D01*
X144179019Y-101417694D01*
X144155000Y-101538443D01*
X132649774Y-101538443D01*
X132638888Y-96966443D01*
X137932000Y-96966443D01*
X137932000Y-97089557D01*
X137956019Y-97210306D01*
X138003132Y-97324048D01*
X138071531Y-97426414D01*
X138158586Y-97513469D01*
X138260952Y-97581868D01*
X138374694Y-97628981D01*
X138495443Y-97653000D01*
X138618557Y-97653000D01*
X138739306Y-97628981D01*
X138853048Y-97581868D01*
X138955414Y-97513469D01*
X139042469Y-97426414D01*
X139074818Y-97378000D01*
X140444812Y-97378000D01*
X140462000Y-97379693D01*
X140479188Y-97378000D01*
X140479189Y-97378000D01*
X140530612Y-97372935D01*
X140596587Y-97352922D01*
X140657390Y-97320422D01*
X140710685Y-97276685D01*
X140721654Y-97263319D01*
X154032330Y-83952644D01*
X154045684Y-83941685D01*
X154089422Y-83888390D01*
X154110601Y-83848767D01*
X154121922Y-83827588D01*
X154141935Y-83761612D01*
X154148693Y-83693000D01*
X154147000Y-83675811D01*
X154147000Y-77487317D01*
X154312645Y-77418705D01*
X154490942Y-77299571D01*
X154642571Y-77147942D01*
X154761705Y-76969645D01*
X154843765Y-76771533D01*
X154885600Y-76561218D01*
X154885600Y-76346782D01*
X154843765Y-76136467D01*
X154761705Y-75938355D01*
X154642571Y-75760058D01*
X154490942Y-75608429D01*
X154312645Y-75489295D01*
X154114533Y-75407235D01*
X153904218Y-75365400D01*
X153689782Y-75365400D01*
X153479467Y-75407235D01*
X153281355Y-75489295D01*
X153103058Y-75608429D01*
X152951429Y-75760058D01*
X152832295Y-75938355D01*
X152750235Y-76136467D01*
X152708400Y-76346782D01*
X152708400Y-76561218D01*
X152750235Y-76771533D01*
X152832295Y-76969645D01*
X152951429Y-77147942D01*
X153103058Y-77299571D01*
X153281355Y-77418705D01*
X153447001Y-77487317D01*
X153447000Y-83548026D01*
X140317027Y-96678000D01*
X139074818Y-96678000D01*
X139042469Y-96629586D01*
X138955414Y-96542531D01*
X138853048Y-96474132D01*
X138739306Y-96427019D01*
X138618557Y-96403000D01*
X138495443Y-96403000D01*
X138374694Y-96427019D01*
X138260952Y-96474132D01*
X138158586Y-96542531D01*
X138071531Y-96629586D01*
X138003132Y-96731952D01*
X137956019Y-96845694D01*
X137932000Y-96966443D01*
X132638888Y-96966443D01*
X132606679Y-83439000D01*
X136300307Y-83439000D01*
X136302000Y-83456188D01*
X136302001Y-90533802D01*
X136300307Y-90551000D01*
X136307065Y-90619611D01*
X136323165Y-90672684D01*
X136327079Y-90685587D01*
X136359579Y-90746390D01*
X136403316Y-90799685D01*
X136416676Y-90810649D01*
X137662355Y-92056330D01*
X137673315Y-92069685D01*
X137726610Y-92113422D01*
X137787413Y-92145922D01*
X137833374Y-92159864D01*
X137853387Y-92165935D01*
X137921999Y-92172693D01*
X137939188Y-92171000D01*
X140190812Y-92171000D01*
X140208000Y-92172693D01*
X140225188Y-92171000D01*
X140225189Y-92171000D01*
X140276612Y-92165935D01*
X140342587Y-92145922D01*
X140403390Y-92113422D01*
X140456685Y-92069685D01*
X140467653Y-92056320D01*
X141740334Y-90783640D01*
X141797443Y-90795000D01*
X141920557Y-90795000D01*
X142041306Y-90770981D01*
X142155048Y-90723868D01*
X142257414Y-90655469D01*
X142344469Y-90568414D01*
X142412868Y-90466048D01*
X142459981Y-90352306D01*
X142484000Y-90231557D01*
X142484000Y-90108443D01*
X143901000Y-90108443D01*
X143901000Y-90231557D01*
X143925019Y-90352306D01*
X143972132Y-90466048D01*
X144040531Y-90568414D01*
X144127586Y-90655469D01*
X144229952Y-90723868D01*
X144343694Y-90770981D01*
X144464443Y-90795000D01*
X144587557Y-90795000D01*
X144708306Y-90770981D01*
X144822048Y-90723868D01*
X144924414Y-90655469D01*
X145011469Y-90568414D01*
X145079868Y-90466048D01*
X145126981Y-90352306D01*
X145151000Y-90231557D01*
X145151000Y-90108443D01*
X145126981Y-89987694D01*
X145079868Y-89873952D01*
X145011469Y-89771586D01*
X144924414Y-89684531D01*
X144876000Y-89652182D01*
X144876000Y-83329973D01*
X150773822Y-77432153D01*
X150939467Y-77500765D01*
X151149782Y-77542600D01*
X151364218Y-77542600D01*
X151574533Y-77500765D01*
X151772645Y-77418705D01*
X151950942Y-77299571D01*
X152102571Y-77147942D01*
X152221705Y-76969645D01*
X152303765Y-76771533D01*
X152345600Y-76561218D01*
X152345600Y-76346782D01*
X152303765Y-76136467D01*
X152221705Y-75938355D01*
X152102571Y-75760058D01*
X151950942Y-75608429D01*
X151772645Y-75489295D01*
X151574533Y-75407235D01*
X151364218Y-75365400D01*
X151149782Y-75365400D01*
X150939467Y-75407235D01*
X150741355Y-75489295D01*
X150563058Y-75608429D01*
X150411429Y-75760058D01*
X150292295Y-75938355D01*
X150210235Y-76136467D01*
X150168400Y-76346782D01*
X150168400Y-76561218D01*
X150210235Y-76771533D01*
X150278847Y-76937178D01*
X144290676Y-82925351D01*
X144277316Y-82936315D01*
X144233579Y-82989610D01*
X144201079Y-83050413D01*
X144181065Y-83116389D01*
X144174307Y-83185000D01*
X144176001Y-83202198D01*
X144176000Y-89652182D01*
X144127586Y-89684531D01*
X144040531Y-89771586D01*
X143972132Y-89873952D01*
X143925019Y-89987694D01*
X143901000Y-90108443D01*
X142484000Y-90108443D01*
X142459981Y-89987694D01*
X142412868Y-89873952D01*
X142344469Y-89771586D01*
X142257414Y-89684531D01*
X142155048Y-89616132D01*
X142041306Y-89569019D01*
X141920557Y-89545000D01*
X141797443Y-89545000D01*
X141676694Y-89569019D01*
X141562952Y-89616132D01*
X141460586Y-89684531D01*
X141373531Y-89771586D01*
X141305132Y-89873952D01*
X141258019Y-89987694D01*
X141234000Y-90108443D01*
X141234000Y-90231557D01*
X141245360Y-90288666D01*
X140063027Y-91471000D01*
X138066975Y-91471000D01*
X137002000Y-90406027D01*
X137002000Y-84709000D01*
X137570307Y-84709000D01*
X137572001Y-84726198D01*
X137572000Y-90406812D01*
X137570307Y-90424000D01*
X137572000Y-90441188D01*
X137577065Y-90492611D01*
X137597078Y-90558586D01*
X137629578Y-90619389D01*
X137673315Y-90672684D01*
X137686676Y-90683649D01*
X138297355Y-91294330D01*
X138308315Y-91307685D01*
X138361609Y-91351421D01*
X138361610Y-91351422D01*
X138422413Y-91383922D01*
X138488388Y-91403935D01*
X138557000Y-91410693D01*
X138574189Y-91409000D01*
X139555812Y-91409000D01*
X139573000Y-91410693D01*
X139590188Y-91409000D01*
X139590189Y-91409000D01*
X139641612Y-91403935D01*
X139707587Y-91383922D01*
X139768390Y-91351422D01*
X139821685Y-91307685D01*
X139832653Y-91294320D01*
X140343334Y-90783640D01*
X140400443Y-90795000D01*
X140523557Y-90795000D01*
X140644306Y-90770981D01*
X140758048Y-90723868D01*
X140860414Y-90655469D01*
X140947469Y-90568414D01*
X141015868Y-90466048D01*
X141062981Y-90352306D01*
X141087000Y-90231557D01*
X141087000Y-90108443D01*
X141062981Y-89987694D01*
X141015868Y-89873952D01*
X140947469Y-89771586D01*
X140860414Y-89684531D01*
X140758048Y-89616132D01*
X140644306Y-89569019D01*
X140523557Y-89545000D01*
X140400443Y-89545000D01*
X140279694Y-89569019D01*
X140165952Y-89616132D01*
X140063586Y-89684531D01*
X139976531Y-89771586D01*
X139908132Y-89873952D01*
X139861019Y-89987694D01*
X139837000Y-90108443D01*
X139837000Y-90231557D01*
X139848360Y-90288666D01*
X139795032Y-90341994D01*
X139817000Y-90231557D01*
X139817000Y-90108443D01*
X139792981Y-89987694D01*
X139745868Y-89873952D01*
X139677469Y-89771586D01*
X139590414Y-89684531D01*
X139542000Y-89652182D01*
X139542000Y-86123973D01*
X148233822Y-77432153D01*
X148399467Y-77500765D01*
X148609782Y-77542600D01*
X148824218Y-77542600D01*
X149034533Y-77500765D01*
X149232645Y-77418705D01*
X149410942Y-77299571D01*
X149562571Y-77147942D01*
X149681705Y-76969645D01*
X149763765Y-76771533D01*
X149805600Y-76561218D01*
X149805600Y-76346782D01*
X149763765Y-76136467D01*
X149681705Y-75938355D01*
X149562571Y-75760058D01*
X149410942Y-75608429D01*
X149232645Y-75489295D01*
X149034533Y-75407235D01*
X148824218Y-75365400D01*
X148609782Y-75365400D01*
X148399467Y-75407235D01*
X148201355Y-75489295D01*
X148023058Y-75608429D01*
X147871429Y-75760058D01*
X147752295Y-75938355D01*
X147670235Y-76136467D01*
X147628400Y-76346782D01*
X147628400Y-76561218D01*
X147670235Y-76771533D01*
X147738847Y-76937178D01*
X138956676Y-85719351D01*
X138943316Y-85730315D01*
X138899579Y-85783610D01*
X138867079Y-85844413D01*
X138847065Y-85910389D01*
X138840307Y-85979000D01*
X138842001Y-85996198D01*
X138842000Y-89652182D01*
X138793586Y-89684531D01*
X138706531Y-89771586D01*
X138638132Y-89873952D01*
X138591019Y-89987694D01*
X138567000Y-90108443D01*
X138567000Y-90231557D01*
X138591019Y-90352306D01*
X138638132Y-90466048D01*
X138706531Y-90568414D01*
X138793586Y-90655469D01*
X138873701Y-90709000D01*
X138701975Y-90709000D01*
X138272000Y-90279027D01*
X138272000Y-84853973D01*
X145693821Y-77432153D01*
X145859467Y-77500765D01*
X146069782Y-77542600D01*
X146284218Y-77542600D01*
X146494533Y-77500765D01*
X146692645Y-77418705D01*
X146870942Y-77299571D01*
X147022571Y-77147942D01*
X147141705Y-76969645D01*
X147223765Y-76771533D01*
X147265600Y-76561218D01*
X147265600Y-76346782D01*
X147223765Y-76136467D01*
X147141705Y-75938355D01*
X147022571Y-75760058D01*
X146870942Y-75608429D01*
X146692645Y-75489295D01*
X146494533Y-75407235D01*
X146284218Y-75365400D01*
X146069782Y-75365400D01*
X145859467Y-75407235D01*
X145661355Y-75489295D01*
X145483058Y-75608429D01*
X145331429Y-75760058D01*
X145212295Y-75938355D01*
X145130235Y-76136467D01*
X145088400Y-76346782D01*
X145088400Y-76561218D01*
X145130235Y-76771533D01*
X145198847Y-76937179D01*
X137686676Y-84449351D01*
X137673316Y-84460315D01*
X137629579Y-84513610D01*
X137597079Y-84574413D01*
X137577065Y-84640389D01*
X137570307Y-84709000D01*
X137002000Y-84709000D01*
X137002000Y-83583973D01*
X143153822Y-77432153D01*
X143319467Y-77500765D01*
X143529782Y-77542600D01*
X143744218Y-77542600D01*
X143954533Y-77500765D01*
X144152645Y-77418705D01*
X144330942Y-77299571D01*
X144482571Y-77147942D01*
X144601705Y-76969645D01*
X144683765Y-76771533D01*
X144725600Y-76561218D01*
X144725600Y-76346782D01*
X144683765Y-76136467D01*
X144601705Y-75938355D01*
X144482571Y-75760058D01*
X144330942Y-75608429D01*
X144152645Y-75489295D01*
X143954533Y-75407235D01*
X143744218Y-75365400D01*
X143529782Y-75365400D01*
X143319467Y-75407235D01*
X143121355Y-75489295D01*
X142943058Y-75608429D01*
X142791429Y-75760058D01*
X142672295Y-75938355D01*
X142590235Y-76136467D01*
X142548400Y-76346782D01*
X142548400Y-76561218D01*
X142590235Y-76771533D01*
X142658847Y-76937178D01*
X136416676Y-83179351D01*
X136403315Y-83190316D01*
X136359578Y-83243611D01*
X136327078Y-83304414D01*
X136315887Y-83341307D01*
X136307065Y-83370389D01*
X136300307Y-83439000D01*
X132606679Y-83439000D01*
X132591558Y-77088271D01*
X132631429Y-77147942D01*
X132783058Y-77299571D01*
X132961355Y-77418705D01*
X133159467Y-77500765D01*
X133369782Y-77542600D01*
X133584218Y-77542600D01*
X133794533Y-77500765D01*
X133992645Y-77418705D01*
X134170942Y-77299571D01*
X134322571Y-77147942D01*
X134441705Y-76969645D01*
X134523765Y-76771533D01*
X134565600Y-76561218D01*
X134565600Y-76346782D01*
X134928400Y-76346782D01*
X134928400Y-76561218D01*
X134970235Y-76771533D01*
X135052295Y-76969645D01*
X135171429Y-77147942D01*
X135323058Y-77299571D01*
X135501355Y-77418705D01*
X135699467Y-77500765D01*
X135909782Y-77542600D01*
X136124218Y-77542600D01*
X136334533Y-77500765D01*
X136532645Y-77418705D01*
X136710942Y-77299571D01*
X136862571Y-77147942D01*
X136981705Y-76969645D01*
X137063765Y-76771533D01*
X137105600Y-76561218D01*
X137105600Y-76346782D01*
X137468400Y-76346782D01*
X137468400Y-76561218D01*
X137510235Y-76771533D01*
X137592295Y-76969645D01*
X137711429Y-77147942D01*
X137863058Y-77299571D01*
X138041355Y-77418705D01*
X138239467Y-77500765D01*
X138449782Y-77542600D01*
X138664218Y-77542600D01*
X138874533Y-77500765D01*
X139072645Y-77418705D01*
X139250942Y-77299571D01*
X139402571Y-77147942D01*
X139521705Y-76969645D01*
X139603765Y-76771533D01*
X139629821Y-76640541D01*
X139999135Y-76640541D01*
X140011318Y-76701791D01*
X140080521Y-76908836D01*
X140188787Y-77098402D01*
X140331955Y-77263204D01*
X140504523Y-77396908D01*
X140699860Y-77494377D01*
X140910459Y-77551865D01*
X141084500Y-77505030D01*
X141084500Y-76466500D01*
X141109500Y-76466500D01*
X141109500Y-77505030D01*
X141283541Y-77551865D01*
X141494140Y-77494377D01*
X141689477Y-77396908D01*
X141862045Y-77263204D01*
X142005213Y-77098402D01*
X142113479Y-76908836D01*
X142182682Y-76701791D01*
X142194865Y-76640541D01*
X142148026Y-76466500D01*
X141109500Y-76466500D01*
X141084500Y-76466500D01*
X140045974Y-76466500D01*
X139999135Y-76640541D01*
X139629821Y-76640541D01*
X139645600Y-76561218D01*
X139645600Y-76346782D01*
X139629822Y-76267459D01*
X139999135Y-76267459D01*
X140045974Y-76441500D01*
X141084500Y-76441500D01*
X141084500Y-75402970D01*
X141109500Y-75402970D01*
X141109500Y-76441500D01*
X142148026Y-76441500D01*
X142194865Y-76267459D01*
X142182682Y-76206209D01*
X142113479Y-75999164D01*
X142005213Y-75809598D01*
X141862045Y-75644796D01*
X141689477Y-75511092D01*
X141494140Y-75413623D01*
X141283541Y-75356135D01*
X141109500Y-75402970D01*
X141084500Y-75402970D01*
X140910459Y-75356135D01*
X140699860Y-75413623D01*
X140504523Y-75511092D01*
X140331955Y-75644796D01*
X140188787Y-75809598D01*
X140080521Y-75999164D01*
X140011318Y-76206209D01*
X139999135Y-76267459D01*
X139629822Y-76267459D01*
X139603765Y-76136467D01*
X139521705Y-75938355D01*
X139402571Y-75760058D01*
X139250942Y-75608429D01*
X139072645Y-75489295D01*
X138874533Y-75407235D01*
X138664218Y-75365400D01*
X138449782Y-75365400D01*
X138239467Y-75407235D01*
X138041355Y-75489295D01*
X137863058Y-75608429D01*
X137711429Y-75760058D01*
X137592295Y-75938355D01*
X137510235Y-76136467D01*
X137468400Y-76346782D01*
X137105600Y-76346782D01*
X137063765Y-76136467D01*
X136981705Y-75938355D01*
X136862571Y-75760058D01*
X136710942Y-75608429D01*
X136532645Y-75489295D01*
X136334533Y-75407235D01*
X136124218Y-75365400D01*
X135909782Y-75365400D01*
X135699467Y-75407235D01*
X135501355Y-75489295D01*
X135323058Y-75608429D01*
X135171429Y-75760058D01*
X135052295Y-75938355D01*
X134970235Y-76136467D01*
X134928400Y-76346782D01*
X134565600Y-76346782D01*
X134523765Y-76136467D01*
X134441705Y-75938355D01*
X134322571Y-75760058D01*
X134170942Y-75608429D01*
X133992645Y-75489295D01*
X133794533Y-75407235D01*
X133584218Y-75365400D01*
X133369782Y-75365400D01*
X133159467Y-75407235D01*
X132961355Y-75489295D01*
X132783058Y-75608429D01*
X132631429Y-75760058D01*
X132588549Y-75824233D01*
X132584596Y-74164000D01*
X179093448Y-74164000D01*
X180471000Y-75541554D01*
G37*
X180471000Y-75541554D02*
X180471001Y-86601715D01*
X180469791Y-86614000D01*
X180474618Y-86663008D01*
X180488913Y-86710133D01*
X180488914Y-86710134D01*
X180512128Y-86753564D01*
X180543369Y-86791632D01*
X180552910Y-86799462D01*
X183011000Y-89257554D01*
X183011001Y-123340445D01*
X180552914Y-125798534D01*
X180543368Y-125806368D01*
X180512127Y-125844436D01*
X180488914Y-125887866D01*
X180488913Y-125887867D01*
X180474618Y-125934992D01*
X180469791Y-125984000D01*
X180471000Y-125996275D01*
X180471001Y-127004000D01*
X132710405Y-127004000D01*
X132704698Y-124606782D01*
X141532400Y-124606782D01*
X141532400Y-124821218D01*
X141574235Y-125031533D01*
X141656295Y-125229645D01*
X141775429Y-125407942D01*
X141927058Y-125559571D01*
X142105355Y-125678705D01*
X142303467Y-125760765D01*
X142513782Y-125802600D01*
X142728218Y-125802600D01*
X142938533Y-125760765D01*
X143136645Y-125678705D01*
X143314942Y-125559571D01*
X143466571Y-125407942D01*
X143585705Y-125229645D01*
X143667765Y-125031533D01*
X143709600Y-124821218D01*
X143709600Y-124606782D01*
X144072400Y-124606782D01*
X144072400Y-124821218D01*
X144114235Y-125031533D01*
X144196295Y-125229645D01*
X144315429Y-125407942D01*
X144467058Y-125559571D01*
X144645355Y-125678705D01*
X144843467Y-125760765D01*
X145053782Y-125802600D01*
X145268218Y-125802600D01*
X145478533Y-125760765D01*
X145676645Y-125678705D01*
X145854942Y-125559571D01*
X146006571Y-125407942D01*
X146125705Y-125229645D01*
X146207765Y-125031533D01*
X146249600Y-124821218D01*
X146249600Y-124606782D01*
X146612400Y-124606782D01*
X146612400Y-124821218D01*
X146654235Y-125031533D01*
X146736295Y-125229645D01*
X146855429Y-125407942D01*
X147007058Y-125559571D01*
X147185355Y-125678705D01*
X147383467Y-125760765D01*
X147593782Y-125802600D01*
X147808218Y-125802600D01*
X148018533Y-125760765D01*
X148216645Y-125678705D01*
X148394942Y-125559571D01*
X148546571Y-125407942D01*
X148665705Y-125229645D01*
X148747765Y-125031533D01*
X148789600Y-124821218D01*
X148789600Y-124606782D01*
X149152400Y-124606782D01*
X149152400Y-124821218D01*
X149194235Y-125031533D01*
X149276295Y-125229645D01*
X149395429Y-125407942D01*
X149547058Y-125559571D01*
X149725355Y-125678705D01*
X149923467Y-125760765D01*
X150133782Y-125802600D01*
X150348218Y-125802600D01*
X150558533Y-125760765D01*
X150756645Y-125678705D01*
X150934942Y-125559571D01*
X151086571Y-125407942D01*
X151205705Y-125229645D01*
X151287765Y-125031533D01*
X151329600Y-124821218D01*
X151329600Y-124606782D01*
X151692400Y-124606782D01*
X151692400Y-124821218D01*
X151734235Y-125031533D01*
X151816295Y-125229645D01*
X151935429Y-125407942D01*
X152087058Y-125559571D01*
X152265355Y-125678705D01*
X152463467Y-125760765D01*
X152673782Y-125802600D01*
X152888218Y-125802600D01*
X153098533Y-125760765D01*
X153296645Y-125678705D01*
X153474942Y-125559571D01*
X153626571Y-125407942D01*
X153745705Y-125229645D01*
X153827765Y-125031533D01*
X153853821Y-124900541D01*
X154223135Y-124900541D01*
X154235318Y-124961791D01*
X154304521Y-125168836D01*
X154412787Y-125358402D01*
X154555955Y-125523204D01*
X154728523Y-125656908D01*
X154923860Y-125754377D01*
X155134459Y-125811865D01*
X155308500Y-125765030D01*
X155308500Y-124726500D01*
X155333500Y-124726500D01*
X155333500Y-125765030D01*
X155507541Y-125811865D01*
X155718140Y-125754377D01*
X155913477Y-125656908D01*
X156086045Y-125523204D01*
X156229213Y-125358402D01*
X156337479Y-125168836D01*
X156406682Y-124961791D01*
X156418865Y-124900541D01*
X156763135Y-124900541D01*
X156775318Y-124961791D01*
X156844521Y-125168836D01*
X156952787Y-125358402D01*
X157095955Y-125523204D01*
X157268523Y-125656908D01*
X157463860Y-125754377D01*
X157674459Y-125811865D01*
X157848500Y-125765030D01*
X157848500Y-124726500D01*
X157873500Y-124726500D01*
X157873500Y-125765030D01*
X158047541Y-125811865D01*
X158258140Y-125754377D01*
X158453477Y-125656908D01*
X158626045Y-125523204D01*
X158769213Y-125358402D01*
X158877479Y-125168836D01*
X158946682Y-124961791D01*
X158958865Y-124900541D01*
X158912026Y-124726500D01*
X157873500Y-124726500D01*
X157848500Y-124726500D01*
X156809974Y-124726500D01*
X156763135Y-124900541D01*
X156418865Y-124900541D01*
X156372026Y-124726500D01*
X155333500Y-124726500D01*
X155308500Y-124726500D01*
X154269974Y-124726500D01*
X154223135Y-124900541D01*
X153853821Y-124900541D01*
X153869600Y-124821218D01*
X153869600Y-124606782D01*
X153853822Y-124527459D01*
X154223135Y-124527459D01*
X154269974Y-124701500D01*
X155308500Y-124701500D01*
X155308500Y-123662970D01*
X155333500Y-123662970D01*
X155333500Y-124701500D01*
X156372026Y-124701500D01*
X156418865Y-124527459D01*
X156763135Y-124527459D01*
X156809974Y-124701500D01*
X157848500Y-124701500D01*
X157848500Y-123662970D01*
X157873500Y-123662970D01*
X157873500Y-124701500D01*
X158912026Y-124701500D01*
X158937517Y-124606782D01*
X159312400Y-124606782D01*
X159312400Y-124821218D01*
X159354235Y-125031533D01*
X159436295Y-125229645D01*
X159555429Y-125407942D01*
X159707058Y-125559571D01*
X159885355Y-125678705D01*
X160083467Y-125760765D01*
X160293782Y-125802600D01*
X160508218Y-125802600D01*
X160718533Y-125760765D01*
X160916645Y-125678705D01*
X161094942Y-125559571D01*
X161246571Y-125407942D01*
X161365705Y-125229645D01*
X161447765Y-125031533D01*
X161489600Y-124821218D01*
X161489600Y-124606782D01*
X161447765Y-124396467D01*
X161365705Y-124198355D01*
X161246571Y-124020058D01*
X161094942Y-123868429D01*
X160916645Y-123749295D01*
X160718533Y-123667235D01*
X160508218Y-123625400D01*
X160293782Y-123625400D01*
X160083467Y-123667235D01*
X159885355Y-123749295D01*
X159707058Y-123868429D01*
X159555429Y-124020058D01*
X159436295Y-124198355D01*
X159354235Y-124396467D01*
X159312400Y-124606782D01*
X158937517Y-124606782D01*
X158958865Y-124527459D01*
X158946682Y-124466209D01*
X158877479Y-124259164D01*
X158769213Y-124069598D01*
X158626045Y-123904796D01*
X158453477Y-123771092D01*
X158258140Y-123673623D01*
X158047541Y-123616135D01*
X157873500Y-123662970D01*
X157848500Y-123662970D01*
X157674459Y-123616135D01*
X157463860Y-123673623D01*
X157268523Y-123771092D01*
X157095955Y-123904796D01*
X156952787Y-124069598D01*
X156844521Y-124259164D01*
X156775318Y-124466209D01*
X156763135Y-124527459D01*
X156418865Y-124527459D01*
X156406682Y-124466209D01*
X156337479Y-124259164D01*
X156229213Y-124069598D01*
X156086045Y-123904796D01*
X155913477Y-123771092D01*
X155718140Y-123673623D01*
X155507541Y-123616135D01*
X155333500Y-123662970D01*
X155308500Y-123662970D01*
X155134459Y-123616135D01*
X154923860Y-123673623D01*
X154728523Y-123771092D01*
X154555955Y-123904796D01*
X154412787Y-124069598D01*
X154304521Y-124259164D01*
X154235318Y-124466209D01*
X154223135Y-124527459D01*
X153853822Y-124527459D01*
X153827765Y-124396467D01*
X153759153Y-124230821D01*
X154413330Y-123576645D01*
X154426685Y-123565685D01*
X154470422Y-123512390D01*
X154502922Y-123451587D01*
X154522935Y-123385612D01*
X154528000Y-123334189D01*
X154528000Y-123334187D01*
X154529693Y-123317001D01*
X154528000Y-123299815D01*
X154528000Y-99743641D01*
X154909036Y-99743641D01*
X154987441Y-99889972D01*
X155160650Y-99988651D01*
X155349783Y-100051643D01*
X155547571Y-100076526D01*
X155746413Y-100062345D01*
X155938666Y-100009644D01*
X156116945Y-99920450D01*
X156162559Y-99889972D01*
X156240964Y-99743641D01*
X155575000Y-99077678D01*
X154909036Y-99743641D01*
X154528000Y-99743641D01*
X154528000Y-99032571D01*
X154558474Y-99032571D01*
X154572655Y-99231413D01*
X154625356Y-99423666D01*
X154714550Y-99601945D01*
X154745028Y-99647559D01*
X154891359Y-99725964D01*
X155557322Y-99060000D01*
X155592678Y-99060000D01*
X156258641Y-99725964D01*
X156404972Y-99647559D01*
X156503651Y-99474350D01*
X156566643Y-99285217D01*
X156591526Y-99087429D01*
X156577345Y-98888587D01*
X156524644Y-98696334D01*
X156435450Y-98518055D01*
X156404972Y-98472441D01*
X156258641Y-98394036D01*
X155592678Y-99060000D01*
X155557322Y-99060000D01*
X154891359Y-98394036D01*
X154745028Y-98472441D01*
X154646349Y-98645650D01*
X154583357Y-98834783D01*
X154558474Y-99032571D01*
X154528000Y-99032571D01*
X154528000Y-98376359D01*
X154909036Y-98376359D01*
X155575000Y-99042322D01*
X156240964Y-98376359D01*
X156162559Y-98230028D01*
X155989350Y-98131349D01*
X155800217Y-98068357D01*
X155602429Y-98043474D01*
X155403587Y-98057655D01*
X155211334Y-98110356D01*
X155033055Y-98199550D01*
X154987441Y-98230028D01*
X154909036Y-98376359D01*
X154528000Y-98376359D01*
X154528000Y-98061973D01*
X155169582Y-97420392D01*
X155287103Y-97469070D01*
X155477789Y-97507000D01*
X155672211Y-97507000D01*
X155862897Y-97469070D01*
X155980418Y-97420392D01*
X156585355Y-98025330D01*
X156596315Y-98038685D01*
X156649610Y-98082422D01*
X156710413Y-98114922D01*
X156756374Y-98128864D01*
X156776387Y-98134935D01*
X156844999Y-98141693D01*
X156862188Y-98140000D01*
X157756922Y-98140000D01*
X157647480Y-98185332D01*
X157485824Y-98293347D01*
X157348347Y-98430824D01*
X157240332Y-98592480D01*
X157165930Y-98772103D01*
X157128000Y-98962789D01*
X157128000Y-99157211D01*
X157165930Y-99347897D01*
X157240332Y-99527520D01*
X157348347Y-99689176D01*
X157485824Y-99826653D01*
X157647480Y-99934668D01*
X157765000Y-99983346D01*
X157765001Y-117330802D01*
X157763307Y-117348000D01*
X157770065Y-117416611D01*
X157790079Y-117482587D01*
X157822579Y-117543390D01*
X157866316Y-117596685D01*
X157879676Y-117607649D01*
X164502847Y-124230821D01*
X164434235Y-124396467D01*
X164392400Y-124606782D01*
X164392400Y-124821218D01*
X164434235Y-125031533D01*
X164516295Y-125229645D01*
X164635429Y-125407942D01*
X164787058Y-125559571D01*
X164965355Y-125678705D01*
X165163467Y-125760765D01*
X165373782Y-125802600D01*
X165588218Y-125802600D01*
X165798533Y-125760765D01*
X165996645Y-125678705D01*
X166174942Y-125559571D01*
X166326571Y-125407942D01*
X166445705Y-125229645D01*
X166527765Y-125031533D01*
X166569600Y-124821218D01*
X166569600Y-124606782D01*
X166527765Y-124396467D01*
X166445705Y-124198355D01*
X166326571Y-124020058D01*
X166174942Y-123868429D01*
X165996645Y-123749295D01*
X165798533Y-123667235D01*
X165588218Y-123625400D01*
X165373782Y-123625400D01*
X165163467Y-123667235D01*
X164997821Y-123735847D01*
X158465000Y-117203027D01*
X158465000Y-99983346D01*
X158582520Y-99934668D01*
X158744176Y-99826653D01*
X158881653Y-99689176D01*
X158989668Y-99527520D01*
X159064070Y-99347897D01*
X159102000Y-99157211D01*
X159102000Y-98962789D01*
X159064070Y-98772103D01*
X158989668Y-98592480D01*
X158881653Y-98430824D01*
X158744176Y-98293347D01*
X158582520Y-98185332D01*
X158473078Y-98140000D01*
X160296922Y-98140000D01*
X160187480Y-98185332D01*
X160025824Y-98293347D01*
X159888347Y-98430824D01*
X159780332Y-98592480D01*
X159705930Y-98772103D01*
X159668000Y-98962789D01*
X159668000Y-99157211D01*
X159705930Y-99347897D01*
X159780332Y-99527520D01*
X159888347Y-99689176D01*
X160025824Y-99826653D01*
X160187480Y-99934668D01*
X160305000Y-99983346D01*
X160305001Y-117330802D01*
X160303307Y-117348000D01*
X160310065Y-117416611D01*
X160330079Y-117482587D01*
X160362579Y-117543390D01*
X160406316Y-117596685D01*
X160419676Y-117607649D01*
X167042847Y-124230821D01*
X166974235Y-124396467D01*
X166932400Y-124606782D01*
X166932400Y-124821218D01*
X166974235Y-125031533D01*
X167056295Y-125229645D01*
X167175429Y-125407942D01*
X167327058Y-125559571D01*
X167505355Y-125678705D01*
X167703467Y-125760765D01*
X167913782Y-125802600D01*
X168128218Y-125802600D01*
X168338533Y-125760765D01*
X168536645Y-125678705D01*
X168714942Y-125559571D01*
X168866571Y-125407942D01*
X168985705Y-125229645D01*
X169067765Y-125031533D01*
X169109600Y-124821218D01*
X169109600Y-124606782D01*
X169067765Y-124396467D01*
X168985705Y-124198355D01*
X168866571Y-124020058D01*
X168714942Y-123868429D01*
X168536645Y-123749295D01*
X168338533Y-123667235D01*
X168128218Y-123625400D01*
X167913782Y-123625400D01*
X167703467Y-123667235D01*
X167537821Y-123735847D01*
X161005000Y-117203027D01*
X161005000Y-99983346D01*
X161122520Y-99934668D01*
X161284176Y-99826653D01*
X161421653Y-99689176D01*
X161529668Y-99527520D01*
X161604070Y-99347897D01*
X161642000Y-99157211D01*
X161642000Y-98962789D01*
X161604070Y-98772103D01*
X161529668Y-98592480D01*
X161421653Y-98430824D01*
X161284176Y-98293347D01*
X161122520Y-98185332D01*
X161013078Y-98140000D01*
X162836922Y-98140000D01*
X162727480Y-98185332D01*
X162565824Y-98293347D01*
X162428347Y-98430824D01*
X162320332Y-98592480D01*
X162245930Y-98772103D01*
X162208000Y-98962789D01*
X162208000Y-99157211D01*
X162245930Y-99347897D01*
X162320332Y-99527520D01*
X162428347Y-99689176D01*
X162565824Y-99826653D01*
X162727480Y-99934668D01*
X162845000Y-99983346D01*
X162845001Y-117330802D01*
X162843307Y-117348000D01*
X162850065Y-117416611D01*
X162870079Y-117482587D01*
X162902579Y-117543390D01*
X162946316Y-117596685D01*
X162959676Y-117607649D01*
X169582847Y-124230821D01*
X169514235Y-124396467D01*
X169472400Y-124606782D01*
X169472400Y-124821218D01*
X169514235Y-125031533D01*
X169596295Y-125229645D01*
X169715429Y-125407942D01*
X169867058Y-125559571D01*
X170045355Y-125678705D01*
X170243467Y-125760765D01*
X170453782Y-125802600D01*
X170668218Y-125802600D01*
X170878533Y-125760765D01*
X171076645Y-125678705D01*
X171254942Y-125559571D01*
X171406571Y-125407942D01*
X171525705Y-125229645D01*
X171607765Y-125031533D01*
X171649600Y-124821218D01*
X171649600Y-124606782D01*
X171607765Y-124396467D01*
X171525705Y-124198355D01*
X171406571Y-124020058D01*
X171254942Y-123868429D01*
X171076645Y-123749295D01*
X170878533Y-123667235D01*
X170668218Y-123625400D01*
X170453782Y-123625400D01*
X170243467Y-123667235D01*
X170077821Y-123735847D01*
X163545000Y-117203027D01*
X163545000Y-99983346D01*
X163662520Y-99934668D01*
X163824176Y-99826653D01*
X163961653Y-99689176D01*
X164069668Y-99527520D01*
X164144070Y-99347897D01*
X164182000Y-99157211D01*
X164182000Y-98962789D01*
X164144070Y-98772103D01*
X164069668Y-98592480D01*
X163961653Y-98430824D01*
X163824176Y-98293347D01*
X163662520Y-98185332D01*
X163553078Y-98140000D01*
X165376922Y-98140000D01*
X165267480Y-98185332D01*
X165105824Y-98293347D01*
X164968347Y-98430824D01*
X164860332Y-98592480D01*
X164785930Y-98772103D01*
X164748000Y-98962789D01*
X164748000Y-99157211D01*
X164785930Y-99347897D01*
X164860332Y-99527520D01*
X164968347Y-99689176D01*
X165105824Y-99826653D01*
X165267480Y-99934668D01*
X165385000Y-99983346D01*
X165385001Y-117330802D01*
X165383307Y-117348000D01*
X165390065Y-117416611D01*
X165410079Y-117482587D01*
X165442579Y-117543390D01*
X165486316Y-117596685D01*
X165499676Y-117607649D01*
X172122847Y-124230821D01*
X172054235Y-124396467D01*
X172012400Y-124606782D01*
X172012400Y-124821218D01*
X172054235Y-125031533D01*
X172136295Y-125229645D01*
X172255429Y-125407942D01*
X172407058Y-125559571D01*
X172585355Y-125678705D01*
X172783467Y-125760765D01*
X172993782Y-125802600D01*
X173208218Y-125802600D01*
X173418533Y-125760765D01*
X173616645Y-125678705D01*
X173794942Y-125559571D01*
X173946571Y-125407942D01*
X174065705Y-125229645D01*
X174147765Y-125031533D01*
X174189600Y-124821218D01*
X174189600Y-124606782D01*
X174147765Y-124396467D01*
X174065705Y-124198355D01*
X173946571Y-124020058D01*
X173794942Y-123868429D01*
X173616645Y-123749295D01*
X173418533Y-123667235D01*
X173208218Y-123625400D01*
X172993782Y-123625400D01*
X172783467Y-123667235D01*
X172617821Y-123735847D01*
X166085000Y-117203027D01*
X166085000Y-99983346D01*
X166202520Y-99934668D01*
X166364176Y-99826653D01*
X166501653Y-99689176D01*
X166609668Y-99527520D01*
X166684070Y-99347897D01*
X166722000Y-99157211D01*
X166722000Y-98962789D01*
X166684070Y-98772103D01*
X166609668Y-98592480D01*
X166501653Y-98430824D01*
X166364176Y-98293347D01*
X166202520Y-98185332D01*
X166093078Y-98140000D01*
X167916922Y-98140000D01*
X167807480Y-98185332D01*
X167645824Y-98293347D01*
X167508347Y-98430824D01*
X167400332Y-98592480D01*
X167325930Y-98772103D01*
X167288000Y-98962789D01*
X167288000Y-99157211D01*
X167325930Y-99347897D01*
X167400332Y-99527520D01*
X167508347Y-99689176D01*
X167645824Y-99826653D01*
X167807480Y-99934668D01*
X167925000Y-99983346D01*
X167925001Y-117330802D01*
X167923307Y-117348000D01*
X167930065Y-117416611D01*
X167950079Y-117482587D01*
X167982579Y-117543390D01*
X168026316Y-117596685D01*
X168039676Y-117607649D01*
X174662847Y-124230821D01*
X174594235Y-124396467D01*
X174552400Y-124606782D01*
X174552400Y-124821218D01*
X174594235Y-125031533D01*
X174676295Y-125229645D01*
X174795429Y-125407942D01*
X174947058Y-125559571D01*
X175125355Y-125678705D01*
X175323467Y-125760765D01*
X175533782Y-125802600D01*
X175748218Y-125802600D01*
X175958533Y-125760765D01*
X176156645Y-125678705D01*
X176334942Y-125559571D01*
X176486571Y-125407942D01*
X176605705Y-125229645D01*
X176687765Y-125031533D01*
X176729600Y-124821218D01*
X176729600Y-124606782D01*
X176687765Y-124396467D01*
X176605705Y-124198355D01*
X176486571Y-124020058D01*
X176334942Y-123868429D01*
X176156645Y-123749295D01*
X175958533Y-123667235D01*
X175748218Y-123625400D01*
X175533782Y-123625400D01*
X175323467Y-123667235D01*
X175157821Y-123735847D01*
X168625000Y-117203027D01*
X168625000Y-99983346D01*
X168742520Y-99934668D01*
X168904176Y-99826653D01*
X169041653Y-99689176D01*
X169149668Y-99527520D01*
X169224070Y-99347897D01*
X169262000Y-99157211D01*
X169262000Y-98962789D01*
X169224070Y-98772103D01*
X169149668Y-98592480D01*
X169041653Y-98430824D01*
X168904176Y-98293347D01*
X168742520Y-98185332D01*
X168633078Y-98140000D01*
X170456922Y-98140000D01*
X170347480Y-98185332D01*
X170185824Y-98293347D01*
X170048347Y-98430824D01*
X169940332Y-98592480D01*
X169865930Y-98772103D01*
X169828000Y-98962789D01*
X169828000Y-99157211D01*
X169865930Y-99347897D01*
X169940332Y-99527520D01*
X170048347Y-99689176D01*
X170185824Y-99826653D01*
X170347480Y-99934668D01*
X170465000Y-99983346D01*
X170465001Y-117330802D01*
X170463307Y-117348000D01*
X170470065Y-117416611D01*
X170490079Y-117482587D01*
X170522579Y-117543390D01*
X170566316Y-117596685D01*
X170579676Y-117607649D01*
X177202847Y-124230821D01*
X177134235Y-124396467D01*
X177092400Y-124606782D01*
X177092400Y-124821218D01*
X177134235Y-125031533D01*
X177216295Y-125229645D01*
X177335429Y-125407942D01*
X177487058Y-125559571D01*
X177665355Y-125678705D01*
X177863467Y-125760765D01*
X178073782Y-125802600D01*
X178288218Y-125802600D01*
X178498533Y-125760765D01*
X178696645Y-125678705D01*
X178874942Y-125559571D01*
X179026571Y-125407942D01*
X179145705Y-125229645D01*
X179227765Y-125031533D01*
X179269600Y-124821218D01*
X179269600Y-124606782D01*
X179227765Y-124396467D01*
X179145705Y-124198355D01*
X179026571Y-124020058D01*
X178874942Y-123868429D01*
X178696645Y-123749295D01*
X178498533Y-123667235D01*
X178288218Y-123625400D01*
X178073782Y-123625400D01*
X177863467Y-123667235D01*
X177697821Y-123735847D01*
X171165000Y-117203027D01*
X171165000Y-99983346D01*
X171282520Y-99934668D01*
X171444176Y-99826653D01*
X171581653Y-99689176D01*
X171689668Y-99527520D01*
X171764070Y-99347897D01*
X171802000Y-99157211D01*
X171802000Y-98962789D01*
X171764070Y-98772103D01*
X171689668Y-98592480D01*
X171581653Y-98430824D01*
X171444176Y-98293347D01*
X171282520Y-98185332D01*
X171173078Y-98140000D01*
X171940027Y-98140000D01*
X172454608Y-98654582D01*
X172405930Y-98772103D01*
X172368000Y-98962789D01*
X172368000Y-99157211D01*
X172405930Y-99347897D01*
X172480332Y-99527520D01*
X172588347Y-99689176D01*
X172725824Y-99826653D01*
X172887480Y-99934668D01*
X173067103Y-100009070D01*
X173257789Y-100047000D01*
X173452211Y-100047000D01*
X173642897Y-100009070D01*
X173822520Y-99934668D01*
X173984176Y-99826653D01*
X174121653Y-99689176D01*
X174229668Y-99527520D01*
X174304070Y-99347897D01*
X174342000Y-99157211D01*
X174342000Y-98962789D01*
X174304070Y-98772103D01*
X174229668Y-98592480D01*
X174121653Y-98430824D01*
X173984176Y-98293347D01*
X173822520Y-98185332D01*
X173642897Y-98110930D01*
X173452211Y-98073000D01*
X173257789Y-98073000D01*
X173067103Y-98110930D01*
X172949582Y-98159608D01*
X172344653Y-97554680D01*
X172333685Y-97541315D01*
X172280390Y-97497578D01*
X172219587Y-97465078D01*
X172153612Y-97445065D01*
X172102189Y-97440000D01*
X172102188Y-97440000D01*
X172085000Y-97438307D01*
X172067812Y-97440000D01*
X171173078Y-97440000D01*
X171282520Y-97394668D01*
X171444176Y-97286653D01*
X171527188Y-97203641D01*
X172689036Y-97203641D01*
X172767441Y-97349972D01*
X172940650Y-97448651D01*
X173129783Y-97511643D01*
X173327571Y-97536526D01*
X173526413Y-97522345D01*
X173718666Y-97469644D01*
X173896945Y-97380450D01*
X173942559Y-97349972D01*
X174020964Y-97203641D01*
X173355000Y-96537678D01*
X172689036Y-97203641D01*
X171527188Y-97203641D01*
X171581653Y-97149176D01*
X171689668Y-96987520D01*
X171764070Y-96807897D01*
X171802000Y-96617211D01*
X171802000Y-96492571D01*
X172338474Y-96492571D01*
X172352655Y-96691413D01*
X172405356Y-96883666D01*
X172494550Y-97061945D01*
X172525028Y-97107559D01*
X172671359Y-97185964D01*
X173337322Y-96520000D01*
X173372678Y-96520000D01*
X174038641Y-97185964D01*
X174184972Y-97107559D01*
X174283651Y-96934350D01*
X174346643Y-96745217D01*
X174371526Y-96547429D01*
X174357345Y-96348587D01*
X174304644Y-96156334D01*
X174215450Y-95978055D01*
X174184972Y-95932441D01*
X174038641Y-95854036D01*
X173372678Y-96520000D01*
X173337322Y-96520000D01*
X172671359Y-95854036D01*
X172525028Y-95932441D01*
X172426349Y-96105650D01*
X172363357Y-96294783D01*
X172338474Y-96492571D01*
X171802000Y-96492571D01*
X171802000Y-96422789D01*
X171764070Y-96232103D01*
X171689668Y-96052480D01*
X171581653Y-95890824D01*
X171527188Y-95836359D01*
X172689036Y-95836359D01*
X173355000Y-96502322D01*
X174020964Y-95836359D01*
X173942559Y-95690028D01*
X173769350Y-95591349D01*
X173580217Y-95528357D01*
X173382429Y-95503474D01*
X173183587Y-95517655D01*
X172991334Y-95570356D01*
X172813055Y-95659550D01*
X172767441Y-95690028D01*
X172689036Y-95836359D01*
X171527188Y-95836359D01*
X171444176Y-95753347D01*
X171282520Y-95645332D01*
X171102897Y-95570930D01*
X170912211Y-95533000D01*
X170717789Y-95533000D01*
X170527103Y-95570930D01*
X170347480Y-95645332D01*
X170185824Y-95753347D01*
X170048347Y-95890824D01*
X169940332Y-96052480D01*
X169865930Y-96232103D01*
X169828000Y-96422789D01*
X169828000Y-96617211D01*
X169865930Y-96807897D01*
X169940332Y-96987520D01*
X170048347Y-97149176D01*
X170185824Y-97286653D01*
X170347480Y-97394668D01*
X170456922Y-97440000D01*
X168697918Y-97440000D01*
X168816945Y-97380450D01*
X168862559Y-97349972D01*
X168940964Y-97203641D01*
X168275000Y-96537678D01*
X167609036Y-97203641D01*
X167687441Y-97349972D01*
X167845465Y-97440000D01*
X166093078Y-97440000D01*
X166202520Y-97394668D01*
X166364176Y-97286653D01*
X166501653Y-97149176D01*
X166609668Y-96987520D01*
X166684070Y-96807897D01*
X166722000Y-96617211D01*
X166722000Y-96492571D01*
X167258474Y-96492571D01*
X167272655Y-96691413D01*
X167325356Y-96883666D01*
X167414550Y-97061945D01*
X167445028Y-97107559D01*
X167591359Y-97185964D01*
X168257322Y-96520000D01*
X168292678Y-96520000D01*
X168958641Y-97185964D01*
X169104972Y-97107559D01*
X169203651Y-96934350D01*
X169266643Y-96745217D01*
X169291526Y-96547429D01*
X169277345Y-96348587D01*
X169224644Y-96156334D01*
X169135450Y-95978055D01*
X169104972Y-95932441D01*
X168958641Y-95854036D01*
X168292678Y-96520000D01*
X168257322Y-96520000D01*
X167591359Y-95854036D01*
X167445028Y-95932441D01*
X167346349Y-96105650D01*
X167283357Y-96294783D01*
X167258474Y-96492571D01*
X166722000Y-96492571D01*
X166722000Y-96422789D01*
X166684070Y-96232103D01*
X166635391Y-96114582D01*
X166913614Y-95836359D01*
X167609036Y-95836359D01*
X168275000Y-96502322D01*
X168940964Y-95836359D01*
X168862559Y-95690028D01*
X168689350Y-95591349D01*
X168500217Y-95528357D01*
X168302429Y-95503474D01*
X168103587Y-95517655D01*
X167911334Y-95570356D01*
X167733055Y-95659550D01*
X167687441Y-95690028D01*
X167609036Y-95836359D01*
X166913614Y-95836359D01*
X168256330Y-94493645D01*
X168269685Y-94482685D01*
X168313422Y-94429390D01*
X168345922Y-94368587D01*
X168365935Y-94302612D01*
X168371000Y-94251189D01*
X168372693Y-94234001D01*
X168371000Y-94216812D01*
X168371000Y-77487317D01*
X168536645Y-77418705D01*
X168714942Y-77299571D01*
X168866571Y-77147942D01*
X168985705Y-76969645D01*
X169067765Y-76771533D01*
X169109600Y-76561218D01*
X169109600Y-76346782D01*
X169472400Y-76346782D01*
X169472400Y-76561218D01*
X169514235Y-76771533D01*
X169596295Y-76969645D01*
X169715429Y-77147942D01*
X169867058Y-77299571D01*
X170045355Y-77418705D01*
X170243467Y-77500765D01*
X170453782Y-77542600D01*
X170668218Y-77542600D01*
X170878533Y-77500765D01*
X171076645Y-77418705D01*
X171254942Y-77299571D01*
X171406571Y-77147942D01*
X171525705Y-76969645D01*
X171607765Y-76771533D01*
X171649600Y-76561218D01*
X171649600Y-76346782D01*
X172012400Y-76346782D01*
X172012400Y-76561218D01*
X172054235Y-76771533D01*
X172136295Y-76969645D01*
X172255429Y-77147942D01*
X172407058Y-77299571D01*
X172585355Y-77418705D01*
X172751000Y-77487317D01*
X172751001Y-79880403D01*
X172591797Y-79946348D01*
X172415728Y-80063993D01*
X172265993Y-80213728D01*
X172148348Y-80389797D01*
X172067312Y-80585434D01*
X172026000Y-80793122D01*
X172026000Y-81004878D01*
X172067312Y-81212566D01*
X172148348Y-81408203D01*
X172265993Y-81584272D01*
X172415728Y-81734007D01*
X172591797Y-81851652D01*
X172787434Y-81932688D01*
X172995122Y-81974000D01*
X173206878Y-81974000D01*
X173414566Y-81932688D01*
X173610203Y-81851652D01*
X173763833Y-81749000D01*
X174539790Y-81749000D01*
X174544617Y-81798009D01*
X174558912Y-81845134D01*
X174582127Y-81888565D01*
X174613368Y-81926632D01*
X174651435Y-81957873D01*
X174694866Y-81981088D01*
X174741991Y-81995383D01*
X174791000Y-82000210D01*
X175566000Y-81999000D01*
X175628500Y-81936500D01*
X175628500Y-80911500D01*
X175653500Y-80911500D01*
X175653500Y-81936500D01*
X175716000Y-81999000D01*
X176491000Y-82000210D01*
X176540009Y-81995383D01*
X176587134Y-81981088D01*
X176630565Y-81957873D01*
X176668632Y-81926632D01*
X176699873Y-81888565D01*
X176723088Y-81845134D01*
X176737383Y-81798009D01*
X176742210Y-81749000D01*
X176741000Y-80974000D01*
X176678500Y-80911500D01*
X175653500Y-80911500D01*
X175628500Y-80911500D01*
X174603500Y-80911500D01*
X174541000Y-80974000D01*
X174539790Y-81749000D01*
X173763833Y-81749000D01*
X173786272Y-81734007D01*
X173936007Y-81584272D01*
X174053652Y-81408203D01*
X174134688Y-81212566D01*
X174176000Y-81004878D01*
X174176000Y-80793122D01*
X174134688Y-80585434D01*
X174053652Y-80389797D01*
X173936007Y-80213728D01*
X173786272Y-80063993D01*
X173763834Y-80049000D01*
X174539790Y-80049000D01*
X174541000Y-80824000D01*
X174603500Y-80886500D01*
X175628500Y-80886500D01*
X175628500Y-79861500D01*
X175653500Y-79861500D01*
X175653500Y-80886500D01*
X176678500Y-80886500D01*
X176741000Y-80824000D01*
X176742210Y-80049000D01*
X176737383Y-79999991D01*
X176723088Y-79952866D01*
X176699873Y-79909435D01*
X176668632Y-79871368D01*
X176630565Y-79840127D01*
X176587134Y-79816912D01*
X176540009Y-79802617D01*
X176491000Y-79797790D01*
X175716000Y-79799000D01*
X175653500Y-79861500D01*
X175628500Y-79861500D01*
X175566000Y-79799000D01*
X174791000Y-79797790D01*
X174741991Y-79802617D01*
X174694866Y-79816912D01*
X174651435Y-79840127D01*
X174613368Y-79871368D01*
X174582127Y-79909435D01*
X174558912Y-79952866D01*
X174544617Y-79999991D01*
X174539790Y-80049000D01*
X173763834Y-80049000D01*
X173610203Y-79946348D01*
X173451000Y-79880404D01*
X173451000Y-77487317D01*
X173616645Y-77418705D01*
X173794942Y-77299571D01*
X173946571Y-77147942D01*
X174065705Y-76969645D01*
X174147765Y-76771533D01*
X174189600Y-76561218D01*
X174189600Y-76346782D01*
X174552400Y-76346782D01*
X174552400Y-76561218D01*
X174594235Y-76771533D01*
X174676295Y-76969645D01*
X174795429Y-77147942D01*
X174947058Y-77299571D01*
X175125355Y-77418705D01*
X175323467Y-77500765D01*
X175533782Y-77542600D01*
X175748218Y-77542600D01*
X175958533Y-77500765D01*
X176156645Y-77418705D01*
X176334942Y-77299571D01*
X176486571Y-77147942D01*
X176605705Y-76969645D01*
X176687765Y-76771533D01*
X176729600Y-76561218D01*
X176729600Y-76346782D01*
X177092400Y-76346782D01*
X177092400Y-76561218D01*
X177134235Y-76771533D01*
X177216295Y-76969645D01*
X177335429Y-77147942D01*
X177487058Y-77299571D01*
X177665355Y-77418705D01*
X177863467Y-77500765D01*
X178073782Y-77542600D01*
X178288218Y-77542600D01*
X178498533Y-77500765D01*
X178696645Y-77418705D01*
X178874942Y-77299571D01*
X179026571Y-77147942D01*
X179145705Y-76969645D01*
X179227765Y-76771533D01*
X179269600Y-76561218D01*
X179269600Y-76346782D01*
X179227765Y-76136467D01*
X179145705Y-75938355D01*
X179026571Y-75760058D01*
X178874942Y-75608429D01*
X178696645Y-75489295D01*
X178498533Y-75407235D01*
X178288218Y-75365400D01*
X178073782Y-75365400D01*
X177863467Y-75407235D01*
X177665355Y-75489295D01*
X177487058Y-75608429D01*
X177335429Y-75760058D01*
X177216295Y-75938355D01*
X177134235Y-76136467D01*
X177092400Y-76346782D01*
X176729600Y-76346782D01*
X176687765Y-76136467D01*
X176605705Y-75938355D01*
X176486571Y-75760058D01*
X176334942Y-75608429D01*
X176156645Y-75489295D01*
X175958533Y-75407235D01*
X175748218Y-75365400D01*
X175533782Y-75365400D01*
X175323467Y-75407235D01*
X175125355Y-75489295D01*
X174947058Y-75608429D01*
X174795429Y-75760058D01*
X174676295Y-75938355D01*
X174594235Y-76136467D01*
X174552400Y-76346782D01*
X174189600Y-76346782D01*
X174147765Y-76136467D01*
X174065705Y-75938355D01*
X173946571Y-75760058D01*
X173794942Y-75608429D01*
X173616645Y-75489295D01*
X173418533Y-75407235D01*
X173208218Y-75365400D01*
X172993782Y-75365400D01*
X172783467Y-75407235D01*
X172585355Y-75489295D01*
X172407058Y-75608429D01*
X172255429Y-75760058D01*
X172136295Y-75938355D01*
X172054235Y-76136467D01*
X172012400Y-76346782D01*
X171649600Y-76346782D01*
X171607765Y-76136467D01*
X171525705Y-75938355D01*
X171406571Y-75760058D01*
X171254942Y-75608429D01*
X171076645Y-75489295D01*
X170878533Y-75407235D01*
X170668218Y-75365400D01*
X170453782Y-75365400D01*
X170243467Y-75407235D01*
X170045355Y-75489295D01*
X169867058Y-75608429D01*
X169715429Y-75760058D01*
X169596295Y-75938355D01*
X169514235Y-76136467D01*
X169472400Y-76346782D01*
X169109600Y-76346782D01*
X169067765Y-76136467D01*
X168985705Y-75938355D01*
X168866571Y-75760058D01*
X168714942Y-75608429D01*
X168536645Y-75489295D01*
X168338533Y-75407235D01*
X168128218Y-75365400D01*
X167913782Y-75365400D01*
X167703467Y-75407235D01*
X167505355Y-75489295D01*
X167327058Y-75608429D01*
X167175429Y-75760058D01*
X167056295Y-75938355D01*
X166974235Y-76136467D01*
X166932400Y-76346782D01*
X166932400Y-76561218D01*
X166974235Y-76771533D01*
X167056295Y-76969645D01*
X167175429Y-77147942D01*
X167327058Y-77299571D01*
X167505355Y-77418705D01*
X167671000Y-77487317D01*
X167671001Y-94089024D01*
X166140418Y-95619609D01*
X166022897Y-95570930D01*
X165832211Y-95533000D01*
X165637789Y-95533000D01*
X165447103Y-95570930D01*
X165267480Y-95645332D01*
X165105824Y-95753347D01*
X164968347Y-95890824D01*
X164860332Y-96052480D01*
X164785930Y-96232103D01*
X164748000Y-96422789D01*
X164748000Y-96617211D01*
X164785930Y-96807897D01*
X164860332Y-96987520D01*
X164968347Y-97149176D01*
X165105824Y-97286653D01*
X165267480Y-97394668D01*
X165376922Y-97440000D01*
X163553078Y-97440000D01*
X163662520Y-97394668D01*
X163824176Y-97286653D01*
X163961653Y-97149176D01*
X164069668Y-96987520D01*
X164144070Y-96807897D01*
X164182000Y-96617211D01*
X164182000Y-96422789D01*
X164144070Y-96232103D01*
X164095391Y-96114582D01*
X165716330Y-94493645D01*
X165729685Y-94482685D01*
X165773422Y-94429390D01*
X165805922Y-94368587D01*
X165825935Y-94302612D01*
X165831000Y-94251189D01*
X165832693Y-94234001D01*
X165831000Y-94216812D01*
X165831000Y-77487317D01*
X165996645Y-77418705D01*
X166174942Y-77299571D01*
X166326571Y-77147942D01*
X166445705Y-76969645D01*
X166527765Y-76771533D01*
X166569600Y-76561218D01*
X166569600Y-76346782D01*
X166527765Y-76136467D01*
X166445705Y-75938355D01*
X166326571Y-75760058D01*
X166174942Y-75608429D01*
X165996645Y-75489295D01*
X165798533Y-75407235D01*
X165588218Y-75365400D01*
X165373782Y-75365400D01*
X165163467Y-75407235D01*
X164965355Y-75489295D01*
X164787058Y-75608429D01*
X164635429Y-75760058D01*
X164516295Y-75938355D01*
X164434235Y-76136467D01*
X164392400Y-76346782D01*
X164392400Y-76561218D01*
X164434235Y-76771533D01*
X164516295Y-76969645D01*
X164635429Y-77147942D01*
X164787058Y-77299571D01*
X164965355Y-77418705D01*
X165131000Y-77487317D01*
X165131001Y-94089024D01*
X163600418Y-95619609D01*
X163482897Y-95570930D01*
X163292211Y-95533000D01*
X163097789Y-95533000D01*
X162907103Y-95570930D01*
X162727480Y-95645332D01*
X162565824Y-95753347D01*
X162428347Y-95890824D01*
X162320332Y-96052480D01*
X162245930Y-96232103D01*
X162208000Y-96422789D01*
X162208000Y-96617211D01*
X162245930Y-96807897D01*
X162320332Y-96987520D01*
X162428347Y-97149176D01*
X162565824Y-97286653D01*
X162727480Y-97394668D01*
X162836922Y-97440000D01*
X161013078Y-97440000D01*
X161122520Y-97394668D01*
X161284176Y-97286653D01*
X161421653Y-97149176D01*
X161529668Y-96987520D01*
X161604070Y-96807897D01*
X161642000Y-96617211D01*
X161642000Y-96422789D01*
X161604070Y-96232103D01*
X161555391Y-96114582D01*
X163176330Y-94493645D01*
X163189685Y-94482685D01*
X163233422Y-94429390D01*
X163265922Y-94368587D01*
X163285935Y-94302612D01*
X163291000Y-94251189D01*
X163292693Y-94234001D01*
X163291000Y-94216812D01*
X163291000Y-77487317D01*
X163456645Y-77418705D01*
X163634942Y-77299571D01*
X163786571Y-77147942D01*
X163905705Y-76969645D01*
X163987765Y-76771533D01*
X164029600Y-76561218D01*
X164029600Y-76346782D01*
X163987765Y-76136467D01*
X163905705Y-75938355D01*
X163786571Y-75760058D01*
X163634942Y-75608429D01*
X163456645Y-75489295D01*
X163258533Y-75407235D01*
X163048218Y-75365400D01*
X162833782Y-75365400D01*
X162623467Y-75407235D01*
X162425355Y-75489295D01*
X162247058Y-75608429D01*
X162095429Y-75760058D01*
X161976295Y-75938355D01*
X161894235Y-76136467D01*
X161852400Y-76346782D01*
X161852400Y-76561218D01*
X161894235Y-76771533D01*
X161976295Y-76969645D01*
X162095429Y-77147942D01*
X162247058Y-77299571D01*
X162425355Y-77418705D01*
X162591000Y-77487317D01*
X162591001Y-94089024D01*
X161060418Y-95619609D01*
X160942897Y-95570930D01*
X160752211Y-95533000D01*
X160557789Y-95533000D01*
X160367103Y-95570930D01*
X160187480Y-95645332D01*
X160025824Y-95753347D01*
X159888347Y-95890824D01*
X159780332Y-96052480D01*
X159705930Y-96232103D01*
X159668000Y-96422789D01*
X159668000Y-96617211D01*
X159705930Y-96807897D01*
X159780332Y-96987520D01*
X159888347Y-97149176D01*
X160025824Y-97286653D01*
X160187480Y-97394668D01*
X160296922Y-97440000D01*
X158473078Y-97440000D01*
X158582520Y-97394668D01*
X158744176Y-97286653D01*
X158881653Y-97149176D01*
X158989668Y-96987520D01*
X159064070Y-96807897D01*
X159102000Y-96617211D01*
X159102000Y-96422789D01*
X159064070Y-96232103D01*
X159015391Y-96114582D01*
X160636330Y-94493645D01*
X160649685Y-94482685D01*
X160693422Y-94429390D01*
X160725922Y-94368587D01*
X160745935Y-94302612D01*
X160751000Y-94251189D01*
X160752693Y-94234001D01*
X160751000Y-94216812D01*
X160751000Y-77487317D01*
X160916645Y-77418705D01*
X161094942Y-77299571D01*
X161246571Y-77147942D01*
X161365705Y-76969645D01*
X161447765Y-76771533D01*
X161489600Y-76561218D01*
X161489600Y-76346782D01*
X161447765Y-76136467D01*
X161365705Y-75938355D01*
X161246571Y-75760058D01*
X161094942Y-75608429D01*
X160916645Y-75489295D01*
X160718533Y-75407235D01*
X160508218Y-75365400D01*
X160293782Y-75365400D01*
X160083467Y-75407235D01*
X159885355Y-75489295D01*
X159707058Y-75608429D01*
X159555429Y-75760058D01*
X159436295Y-75938355D01*
X159354235Y-76136467D01*
X159312400Y-76346782D01*
X159312400Y-76561218D01*
X159354235Y-76771533D01*
X159436295Y-76969645D01*
X159555429Y-77147942D01*
X159707058Y-77299571D01*
X159885355Y-77418705D01*
X160051000Y-77487317D01*
X160051001Y-94089024D01*
X158520418Y-95619609D01*
X158402897Y-95570930D01*
X158212211Y-95533000D01*
X158017789Y-95533000D01*
X157827103Y-95570930D01*
X157647480Y-95645332D01*
X157485824Y-95753347D01*
X157348347Y-95890824D01*
X157240332Y-96052480D01*
X157165930Y-96232103D01*
X157128000Y-96422789D01*
X157128000Y-96617211D01*
X157165930Y-96807897D01*
X157240332Y-96987520D01*
X157348347Y-97149176D01*
X157485824Y-97286653D01*
X157647480Y-97394668D01*
X157756922Y-97440000D01*
X156989975Y-97440000D01*
X156475392Y-96925418D01*
X156524070Y-96807897D01*
X156562000Y-96617211D01*
X156562000Y-96422789D01*
X156524070Y-96232103D01*
X156449668Y-96052480D01*
X156341653Y-95890824D01*
X156204176Y-95753347D01*
X156042520Y-95645332D01*
X155862897Y-95570930D01*
X155672211Y-95533000D01*
X155477789Y-95533000D01*
X155287103Y-95570930D01*
X155107480Y-95645332D01*
X154945824Y-95753347D01*
X154808347Y-95890824D01*
X154700332Y-96052480D01*
X154625930Y-96232103D01*
X154588000Y-96422789D01*
X154588000Y-96617211D01*
X154625930Y-96807897D01*
X154674608Y-96925418D01*
X153942676Y-97657351D01*
X153929315Y-97668316D01*
X153885578Y-97721611D01*
X153853078Y-97782414D01*
X153850777Y-97790000D01*
X153833065Y-97848389D01*
X153826307Y-97917000D01*
X153828000Y-97934188D01*
X153828001Y-119108802D01*
X153828000Y-119108812D01*
X153828001Y-123172024D01*
X153264179Y-123735847D01*
X153098533Y-123667235D01*
X152888218Y-123625400D01*
X152673782Y-123625400D01*
X152463467Y-123667235D01*
X152265355Y-123749295D01*
X152087058Y-123868429D01*
X151935429Y-124020058D01*
X151816295Y-124198355D01*
X151734235Y-124396467D01*
X151692400Y-124606782D01*
X151329600Y-124606782D01*
X151287765Y-124396467D01*
X151205705Y-124198355D01*
X151086571Y-124020058D01*
X150934942Y-123868429D01*
X150756645Y-123749295D01*
X150558533Y-123667235D01*
X150348218Y-123625400D01*
X150133782Y-123625400D01*
X149923467Y-123667235D01*
X149725355Y-123749295D01*
X149547058Y-123868429D01*
X149395429Y-124020058D01*
X149276295Y-124198355D01*
X149194235Y-124396467D01*
X149152400Y-124606782D01*
X148789600Y-124606782D01*
X148747765Y-124396467D01*
X148665705Y-124198355D01*
X148546571Y-124020058D01*
X148394942Y-123868429D01*
X148216645Y-123749295D01*
X148051000Y-123680683D01*
X148051000Y-122572973D01*
X149024886Y-121599088D01*
X150456000Y-121599088D01*
X150500108Y-121594744D01*
X150542520Y-121581878D01*
X150581608Y-121560985D01*
X150615868Y-121532868D01*
X150643985Y-121498608D01*
X150664878Y-121459520D01*
X150677744Y-121417108D01*
X150682088Y-121373000D01*
X150682088Y-120417122D01*
X151071000Y-120417122D01*
X151071000Y-120628878D01*
X151112312Y-120836566D01*
X151193348Y-121032203D01*
X151310993Y-121208272D01*
X151460728Y-121358007D01*
X151636797Y-121475652D01*
X151832434Y-121556688D01*
X152040122Y-121598000D01*
X152251878Y-121598000D01*
X152459566Y-121556688D01*
X152655203Y-121475652D01*
X152831272Y-121358007D01*
X152981007Y-121208272D01*
X153098652Y-121032203D01*
X153179688Y-120836566D01*
X153221000Y-120628878D01*
X153221000Y-120417122D01*
X153179688Y-120209434D01*
X153098652Y-120013797D01*
X152981007Y-119837728D01*
X152831272Y-119687993D01*
X152655203Y-119570348D01*
X152459566Y-119489312D01*
X152251878Y-119448000D01*
X152040122Y-119448000D01*
X151832434Y-119489312D01*
X151636797Y-119570348D01*
X151460728Y-119687993D01*
X151310993Y-119837728D01*
X151193348Y-120013797D01*
X151112312Y-120209434D01*
X151071000Y-120417122D01*
X150682088Y-120417122D01*
X150682088Y-119673000D01*
X150677744Y-119628892D01*
X150664878Y-119586480D01*
X150643985Y-119547392D01*
X150615868Y-119513132D01*
X150581608Y-119485015D01*
X150542520Y-119464122D01*
X150500108Y-119451256D01*
X150456000Y-119446912D01*
X148756000Y-119446912D01*
X148711892Y-119451256D01*
X148669480Y-119464122D01*
X148630392Y-119485015D01*
X148596132Y-119513132D01*
X148568015Y-119547392D01*
X148547122Y-119586480D01*
X148534256Y-119628892D01*
X148529912Y-119673000D01*
X148529912Y-121104114D01*
X147465676Y-122168351D01*
X147452316Y-122179315D01*
X147408579Y-122232610D01*
X147376079Y-122293413D01*
X147356065Y-122359389D01*
X147349307Y-122428000D01*
X147351001Y-122445198D01*
X147351000Y-123680683D01*
X147185355Y-123749295D01*
X147007058Y-123868429D01*
X146855429Y-124020058D01*
X146736295Y-124198355D01*
X146654235Y-124396467D01*
X146612400Y-124606782D01*
X146249600Y-124606782D01*
X146207765Y-124396467D01*
X146125705Y-124198355D01*
X146006571Y-124020058D01*
X145854942Y-123868429D01*
X145676645Y-123749295D01*
X145478533Y-123667235D01*
X145268218Y-123625400D01*
X145053782Y-123625400D01*
X144843467Y-123667235D01*
X144645355Y-123749295D01*
X144467058Y-123868429D01*
X144315429Y-124020058D01*
X144196295Y-124198355D01*
X144114235Y-124396467D01*
X144072400Y-124606782D01*
X143709600Y-124606782D01*
X143667765Y-124396467D01*
X143585705Y-124198355D01*
X143466571Y-124020058D01*
X143314942Y-123868429D01*
X143136645Y-123749295D01*
X142938533Y-123667235D01*
X142728218Y-123625400D01*
X142513782Y-123625400D01*
X142303467Y-123667235D01*
X142105355Y-123749295D01*
X141927058Y-123868429D01*
X141775429Y-124020058D01*
X141656295Y-124198355D01*
X141574235Y-124396467D01*
X141532400Y-124606782D01*
X132704698Y-124606782D01*
X132680173Y-114306348D01*
X137134000Y-114306348D01*
X137134000Y-114547652D01*
X137181076Y-114784319D01*
X137273419Y-115007255D01*
X137407481Y-115207892D01*
X137578108Y-115378519D01*
X137778745Y-115512581D01*
X138001681Y-115604924D01*
X138238348Y-115652000D01*
X138479652Y-115652000D01*
X138716319Y-115604924D01*
X138939255Y-115512581D01*
X139139892Y-115378519D01*
X139310519Y-115207892D01*
X139444581Y-115007255D01*
X139536924Y-114784319D01*
X139584000Y-114547652D01*
X139584000Y-114306348D01*
X142214000Y-114306348D01*
X142214000Y-114547652D01*
X142261076Y-114784319D01*
X142353419Y-115007255D01*
X142487481Y-115207892D01*
X142658108Y-115378519D01*
X142858745Y-115512581D01*
X143081681Y-115604924D01*
X143318348Y-115652000D01*
X143559652Y-115652000D01*
X143796319Y-115604924D01*
X144019255Y-115512581D01*
X144219892Y-115378519D01*
X144390519Y-115207892D01*
X144524581Y-115007255D01*
X144616924Y-114784319D01*
X144664000Y-114547652D01*
X144664000Y-114306348D01*
X144616924Y-114069681D01*
X144524581Y-113846745D01*
X144390519Y-113646108D01*
X144219892Y-113475481D01*
X144019255Y-113341419D01*
X143796319Y-113249076D01*
X143559652Y-113202000D01*
X143318348Y-113202000D01*
X143081681Y-113249076D01*
X142858745Y-113341419D01*
X142658108Y-113475481D01*
X142487481Y-113646108D01*
X142353419Y-113846745D01*
X142261076Y-114069681D01*
X142214000Y-114306348D01*
X139584000Y-114306348D01*
X139536924Y-114069681D01*
X139444581Y-113846745D01*
X139310519Y-113646108D01*
X139139892Y-113475481D01*
X138939255Y-113341419D01*
X138716319Y-113249076D01*
X138479652Y-113202000D01*
X138238348Y-113202000D01*
X138001681Y-113249076D01*
X137778745Y-113341419D01*
X137578108Y-113475481D01*
X137407481Y-113646108D01*
X137273419Y-113846745D01*
X137181076Y-114069681D01*
X137134000Y-114306348D01*
X132680173Y-114306348D01*
X132649774Y-101538443D01*
X144155000Y-101538443D01*
X144155000Y-101661557D01*
X144179019Y-101782306D01*
X144226132Y-101896048D01*
X144294531Y-101998414D01*
X144381586Y-102085469D01*
X144483952Y-102153868D01*
X144597694Y-102200981D01*
X144718443Y-102225000D01*
X144841557Y-102225000D01*
X144962306Y-102200981D01*
X145076048Y-102153868D01*
X145178414Y-102085469D01*
X145265469Y-101998414D01*
X145333868Y-101896048D01*
X145380981Y-101782306D01*
X145405000Y-101661557D01*
X145405000Y-101538443D01*
X145393640Y-101481333D01*
X156572331Y-90302644D01*
X156585685Y-90291685D01*
X156629422Y-90238390D01*
X156661922Y-90177587D01*
X156681935Y-90111612D01*
X156683170Y-90099079D01*
X156688693Y-90043001D01*
X156687000Y-90025812D01*
X156687000Y-77487317D01*
X156852645Y-77418705D01*
X157030942Y-77299571D01*
X157182571Y-77147942D01*
X157301705Y-76969645D01*
X157383765Y-76771533D01*
X157425600Y-76561218D01*
X157425600Y-76346782D01*
X157383765Y-76136467D01*
X157301705Y-75938355D01*
X157182571Y-75760058D01*
X157030942Y-75608429D01*
X156852645Y-75489295D01*
X156654533Y-75407235D01*
X156444218Y-75365400D01*
X156229782Y-75365400D01*
X156019467Y-75407235D01*
X155821355Y-75489295D01*
X155643058Y-75608429D01*
X155491429Y-75760058D01*
X155372295Y-75938355D01*
X155290235Y-76136467D01*
X155248400Y-76346782D01*
X155248400Y-76561218D01*
X155290235Y-76771533D01*
X155372295Y-76969645D01*
X155491429Y-77147942D01*
X155643058Y-77299571D01*
X155821355Y-77418705D01*
X155987001Y-77487317D01*
X155987000Y-79611811D01*
X155987000Y-79611812D01*
X155987001Y-89898024D01*
X144898667Y-100986360D01*
X144841557Y-100975000D01*
X144718443Y-100975000D01*
X144597694Y-100999019D01*
X144483952Y-101046132D01*
X144381586Y-101114531D01*
X144294531Y-101201586D01*
X144226132Y-101303952D01*
X144179019Y-101417694D01*
X144155000Y-101538443D01*
X132649774Y-101538443D01*
X132638888Y-96966443D01*
X137932000Y-96966443D01*
X137932000Y-97089557D01*
X137956019Y-97210306D01*
X138003132Y-97324048D01*
X138071531Y-97426414D01*
X138158586Y-97513469D01*
X138260952Y-97581868D01*
X138374694Y-97628981D01*
X138495443Y-97653000D01*
X138618557Y-97653000D01*
X138739306Y-97628981D01*
X138853048Y-97581868D01*
X138955414Y-97513469D01*
X139042469Y-97426414D01*
X139074818Y-97378000D01*
X140444812Y-97378000D01*
X140462000Y-97379693D01*
X140479188Y-97378000D01*
X140479189Y-97378000D01*
X140530612Y-97372935D01*
X140596587Y-97352922D01*
X140657390Y-97320422D01*
X140710685Y-97276685D01*
X140721654Y-97263319D01*
X154032330Y-83952644D01*
X154045684Y-83941685D01*
X154089422Y-83888390D01*
X154110601Y-83848767D01*
X154121922Y-83827588D01*
X154141935Y-83761612D01*
X154148693Y-83693000D01*
X154147000Y-83675811D01*
X154147000Y-77487317D01*
X154312645Y-77418705D01*
X154490942Y-77299571D01*
X154642571Y-77147942D01*
X154761705Y-76969645D01*
X154843765Y-76771533D01*
X154885600Y-76561218D01*
X154885600Y-76346782D01*
X154843765Y-76136467D01*
X154761705Y-75938355D01*
X154642571Y-75760058D01*
X154490942Y-75608429D01*
X154312645Y-75489295D01*
X154114533Y-75407235D01*
X153904218Y-75365400D01*
X153689782Y-75365400D01*
X153479467Y-75407235D01*
X153281355Y-75489295D01*
X153103058Y-75608429D01*
X152951429Y-75760058D01*
X152832295Y-75938355D01*
X152750235Y-76136467D01*
X152708400Y-76346782D01*
X152708400Y-76561218D01*
X152750235Y-76771533D01*
X152832295Y-76969645D01*
X152951429Y-77147942D01*
X153103058Y-77299571D01*
X153281355Y-77418705D01*
X153447001Y-77487317D01*
X153447000Y-83548026D01*
X140317027Y-96678000D01*
X139074818Y-96678000D01*
X139042469Y-96629586D01*
X138955414Y-96542531D01*
X138853048Y-96474132D01*
X138739306Y-96427019D01*
X138618557Y-96403000D01*
X138495443Y-96403000D01*
X138374694Y-96427019D01*
X138260952Y-96474132D01*
X138158586Y-96542531D01*
X138071531Y-96629586D01*
X138003132Y-96731952D01*
X137956019Y-96845694D01*
X137932000Y-96966443D01*
X132638888Y-96966443D01*
X132606679Y-83439000D01*
X136300307Y-83439000D01*
X136302000Y-83456188D01*
X136302001Y-90533802D01*
X136300307Y-90551000D01*
X136307065Y-90619611D01*
X136323165Y-90672684D01*
X136327079Y-90685587D01*
X136359579Y-90746390D01*
X136403316Y-90799685D01*
X136416676Y-90810649D01*
X137662355Y-92056330D01*
X137673315Y-92069685D01*
X137726610Y-92113422D01*
X137787413Y-92145922D01*
X137833374Y-92159864D01*
X137853387Y-92165935D01*
X137921999Y-92172693D01*
X137939188Y-92171000D01*
X140190812Y-92171000D01*
X140208000Y-92172693D01*
X140225188Y-92171000D01*
X140225189Y-92171000D01*
X140276612Y-92165935D01*
X140342587Y-92145922D01*
X140403390Y-92113422D01*
X140456685Y-92069685D01*
X140467653Y-92056320D01*
X141740334Y-90783640D01*
X141797443Y-90795000D01*
X141920557Y-90795000D01*
X142041306Y-90770981D01*
X142155048Y-90723868D01*
X142257414Y-90655469D01*
X142344469Y-90568414D01*
X142412868Y-90466048D01*
X142459981Y-90352306D01*
X142484000Y-90231557D01*
X142484000Y-90108443D01*
X143901000Y-90108443D01*
X143901000Y-90231557D01*
X143925019Y-90352306D01*
X143972132Y-90466048D01*
X144040531Y-90568414D01*
X144127586Y-90655469D01*
X144229952Y-90723868D01*
X144343694Y-90770981D01*
X144464443Y-90795000D01*
X144587557Y-90795000D01*
X144708306Y-90770981D01*
X144822048Y-90723868D01*
X144924414Y-90655469D01*
X145011469Y-90568414D01*
X145079868Y-90466048D01*
X145126981Y-90352306D01*
X145151000Y-90231557D01*
X145151000Y-90108443D01*
X145126981Y-89987694D01*
X145079868Y-89873952D01*
X145011469Y-89771586D01*
X144924414Y-89684531D01*
X144876000Y-89652182D01*
X144876000Y-83329973D01*
X150773822Y-77432153D01*
X150939467Y-77500765D01*
X151149782Y-77542600D01*
X151364218Y-77542600D01*
X151574533Y-77500765D01*
X151772645Y-77418705D01*
X151950942Y-77299571D01*
X152102571Y-77147942D01*
X152221705Y-76969645D01*
X152303765Y-76771533D01*
X152345600Y-76561218D01*
X152345600Y-76346782D01*
X152303765Y-76136467D01*
X152221705Y-75938355D01*
X152102571Y-75760058D01*
X151950942Y-75608429D01*
X151772645Y-75489295D01*
X151574533Y-75407235D01*
X151364218Y-75365400D01*
X151149782Y-75365400D01*
X150939467Y-75407235D01*
X150741355Y-75489295D01*
X150563058Y-75608429D01*
X150411429Y-75760058D01*
X150292295Y-75938355D01*
X150210235Y-76136467D01*
X150168400Y-76346782D01*
X150168400Y-76561218D01*
X150210235Y-76771533D01*
X150278847Y-76937178D01*
X144290676Y-82925351D01*
X144277316Y-82936315D01*
X144233579Y-82989610D01*
X144201079Y-83050413D01*
X144181065Y-83116389D01*
X144174307Y-83185000D01*
X144176001Y-83202198D01*
X144176000Y-89652182D01*
X144127586Y-89684531D01*
X144040531Y-89771586D01*
X143972132Y-89873952D01*
X143925019Y-89987694D01*
X143901000Y-90108443D01*
X142484000Y-90108443D01*
X142459981Y-89987694D01*
X142412868Y-89873952D01*
X142344469Y-89771586D01*
X142257414Y-89684531D01*
X142155048Y-89616132D01*
X142041306Y-89569019D01*
X141920557Y-89545000D01*
X141797443Y-89545000D01*
X141676694Y-89569019D01*
X141562952Y-89616132D01*
X141460586Y-89684531D01*
X141373531Y-89771586D01*
X141305132Y-89873952D01*
X141258019Y-89987694D01*
X141234000Y-90108443D01*
X141234000Y-90231557D01*
X141245360Y-90288666D01*
X140063027Y-91471000D01*
X138066975Y-91471000D01*
X137002000Y-90406027D01*
X137002000Y-84709000D01*
X137570307Y-84709000D01*
X137572001Y-84726198D01*
X137572000Y-90406812D01*
X137570307Y-90424000D01*
X137572000Y-90441188D01*
X137577065Y-90492611D01*
X137597078Y-90558586D01*
X137629578Y-90619389D01*
X137673315Y-90672684D01*
X137686676Y-90683649D01*
X138297355Y-91294330D01*
X138308315Y-91307685D01*
X138361609Y-91351421D01*
X138361610Y-91351422D01*
X138422413Y-91383922D01*
X138488388Y-91403935D01*
X138557000Y-91410693D01*
X138574189Y-91409000D01*
X139555812Y-91409000D01*
X139573000Y-91410693D01*
X139590188Y-91409000D01*
X139590189Y-91409000D01*
X139641612Y-91403935D01*
X139707587Y-91383922D01*
X139768390Y-91351422D01*
X139821685Y-91307685D01*
X139832653Y-91294320D01*
X140343334Y-90783640D01*
X140400443Y-90795000D01*
X140523557Y-90795000D01*
X140644306Y-90770981D01*
X140758048Y-90723868D01*
X140860414Y-90655469D01*
X140947469Y-90568414D01*
X141015868Y-90466048D01*
X141062981Y-90352306D01*
X141087000Y-90231557D01*
X141087000Y-90108443D01*
X141062981Y-89987694D01*
X141015868Y-89873952D01*
X140947469Y-89771586D01*
X140860414Y-89684531D01*
X140758048Y-89616132D01*
X140644306Y-89569019D01*
X140523557Y-89545000D01*
X140400443Y-89545000D01*
X140279694Y-89569019D01*
X140165952Y-89616132D01*
X140063586Y-89684531D01*
X139976531Y-89771586D01*
X139908132Y-89873952D01*
X139861019Y-89987694D01*
X139837000Y-90108443D01*
X139837000Y-90231557D01*
X139848360Y-90288666D01*
X139795032Y-90341994D01*
X139817000Y-90231557D01*
X139817000Y-90108443D01*
X139792981Y-89987694D01*
X139745868Y-89873952D01*
X139677469Y-89771586D01*
X139590414Y-89684531D01*
X139542000Y-89652182D01*
X139542000Y-86123973D01*
X148233822Y-77432153D01*
X148399467Y-77500765D01*
X148609782Y-77542600D01*
X148824218Y-77542600D01*
X149034533Y-77500765D01*
X149232645Y-77418705D01*
X149410942Y-77299571D01*
X149562571Y-77147942D01*
X149681705Y-76969645D01*
X149763765Y-76771533D01*
X149805600Y-76561218D01*
X149805600Y-76346782D01*
X149763765Y-76136467D01*
X149681705Y-75938355D01*
X149562571Y-75760058D01*
X149410942Y-75608429D01*
X149232645Y-75489295D01*
X149034533Y-75407235D01*
X148824218Y-75365400D01*
X148609782Y-75365400D01*
X148399467Y-75407235D01*
X148201355Y-75489295D01*
X148023058Y-75608429D01*
X147871429Y-75760058D01*
X147752295Y-75938355D01*
X147670235Y-76136467D01*
X147628400Y-76346782D01*
X147628400Y-76561218D01*
X147670235Y-76771533D01*
X147738847Y-76937178D01*
X138956676Y-85719351D01*
X138943316Y-85730315D01*
X138899579Y-85783610D01*
X138867079Y-85844413D01*
X138847065Y-85910389D01*
X138840307Y-85979000D01*
X138842001Y-85996198D01*
X138842000Y-89652182D01*
X138793586Y-89684531D01*
X138706531Y-89771586D01*
X138638132Y-89873952D01*
X138591019Y-89987694D01*
X138567000Y-90108443D01*
X138567000Y-90231557D01*
X138591019Y-90352306D01*
X138638132Y-90466048D01*
X138706531Y-90568414D01*
X138793586Y-90655469D01*
X138873701Y-90709000D01*
X138701975Y-90709000D01*
X138272000Y-90279027D01*
X138272000Y-84853973D01*
X145693821Y-77432153D01*
X145859467Y-77500765D01*
X146069782Y-77542600D01*
X146284218Y-77542600D01*
X146494533Y-77500765D01*
X146692645Y-77418705D01*
X146870942Y-77299571D01*
X147022571Y-77147942D01*
X147141705Y-76969645D01*
X147223765Y-76771533D01*
X147265600Y-76561218D01*
X147265600Y-76346782D01*
X147223765Y-76136467D01*
X147141705Y-75938355D01*
X147022571Y-75760058D01*
X146870942Y-75608429D01*
X146692645Y-75489295D01*
X146494533Y-75407235D01*
X146284218Y-75365400D01*
X146069782Y-75365400D01*
X145859467Y-75407235D01*
X145661355Y-75489295D01*
X145483058Y-75608429D01*
X145331429Y-75760058D01*
X145212295Y-75938355D01*
X145130235Y-76136467D01*
X145088400Y-76346782D01*
X145088400Y-76561218D01*
X145130235Y-76771533D01*
X145198847Y-76937179D01*
X137686676Y-84449351D01*
X137673316Y-84460315D01*
X137629579Y-84513610D01*
X137597079Y-84574413D01*
X137577065Y-84640389D01*
X137570307Y-84709000D01*
X137002000Y-84709000D01*
X137002000Y-83583973D01*
X143153822Y-77432153D01*
X143319467Y-77500765D01*
X143529782Y-77542600D01*
X143744218Y-77542600D01*
X143954533Y-77500765D01*
X144152645Y-77418705D01*
X144330942Y-77299571D01*
X144482571Y-77147942D01*
X144601705Y-76969645D01*
X144683765Y-76771533D01*
X144725600Y-76561218D01*
X144725600Y-76346782D01*
X144683765Y-76136467D01*
X144601705Y-75938355D01*
X144482571Y-75760058D01*
X144330942Y-75608429D01*
X144152645Y-75489295D01*
X143954533Y-75407235D01*
X143744218Y-75365400D01*
X143529782Y-75365400D01*
X143319467Y-75407235D01*
X143121355Y-75489295D01*
X142943058Y-75608429D01*
X142791429Y-75760058D01*
X142672295Y-75938355D01*
X142590235Y-76136467D01*
X142548400Y-76346782D01*
X142548400Y-76561218D01*
X142590235Y-76771533D01*
X142658847Y-76937178D01*
X136416676Y-83179351D01*
X136403315Y-83190316D01*
X136359578Y-83243611D01*
X136327078Y-83304414D01*
X136315887Y-83341307D01*
X136307065Y-83370389D01*
X136300307Y-83439000D01*
X132606679Y-83439000D01*
X132591558Y-77088271D01*
X132631429Y-77147942D01*
X132783058Y-77299571D01*
X132961355Y-77418705D01*
X133159467Y-77500765D01*
X133369782Y-77542600D01*
X133584218Y-77542600D01*
X133794533Y-77500765D01*
X133992645Y-77418705D01*
X134170942Y-77299571D01*
X134322571Y-77147942D01*
X134441705Y-76969645D01*
X134523765Y-76771533D01*
X134565600Y-76561218D01*
X134565600Y-76346782D01*
X134928400Y-76346782D01*
X134928400Y-76561218D01*
X134970235Y-76771533D01*
X135052295Y-76969645D01*
X135171429Y-77147942D01*
X135323058Y-77299571D01*
X135501355Y-77418705D01*
X135699467Y-77500765D01*
X135909782Y-77542600D01*
X136124218Y-77542600D01*
X136334533Y-77500765D01*
X136532645Y-77418705D01*
X136710942Y-77299571D01*
X136862571Y-77147942D01*
X136981705Y-76969645D01*
X137063765Y-76771533D01*
X137105600Y-76561218D01*
X137105600Y-76346782D01*
X137468400Y-76346782D01*
X137468400Y-76561218D01*
X137510235Y-76771533D01*
X137592295Y-76969645D01*
X137711429Y-77147942D01*
X137863058Y-77299571D01*
X138041355Y-77418705D01*
X138239467Y-77500765D01*
X138449782Y-77542600D01*
X138664218Y-77542600D01*
X138874533Y-77500765D01*
X139072645Y-77418705D01*
X139250942Y-77299571D01*
X139402571Y-77147942D01*
X139521705Y-76969645D01*
X139603765Y-76771533D01*
X139629821Y-76640541D01*
X139999135Y-76640541D01*
X140011318Y-76701791D01*
X140080521Y-76908836D01*
X140188787Y-77098402D01*
X140331955Y-77263204D01*
X140504523Y-77396908D01*
X140699860Y-77494377D01*
X140910459Y-77551865D01*
X141084500Y-77505030D01*
X141084500Y-76466500D01*
X141109500Y-76466500D01*
X141109500Y-77505030D01*
X141283541Y-77551865D01*
X141494140Y-77494377D01*
X141689477Y-77396908D01*
X141862045Y-77263204D01*
X142005213Y-77098402D01*
X142113479Y-76908836D01*
X142182682Y-76701791D01*
X142194865Y-76640541D01*
X142148026Y-76466500D01*
X141109500Y-76466500D01*
X141084500Y-76466500D01*
X140045974Y-76466500D01*
X139999135Y-76640541D01*
X139629821Y-76640541D01*
X139645600Y-76561218D01*
X139645600Y-76346782D01*
X139629822Y-76267459D01*
X139999135Y-76267459D01*
X140045974Y-76441500D01*
X141084500Y-76441500D01*
X141084500Y-75402970D01*
X141109500Y-75402970D01*
X141109500Y-76441500D01*
X142148026Y-76441500D01*
X142194865Y-76267459D01*
X142182682Y-76206209D01*
X142113479Y-75999164D01*
X142005213Y-75809598D01*
X141862045Y-75644796D01*
X141689477Y-75511092D01*
X141494140Y-75413623D01*
X141283541Y-75356135D01*
X141109500Y-75402970D01*
X141084500Y-75402970D01*
X140910459Y-75356135D01*
X140699860Y-75413623D01*
X140504523Y-75511092D01*
X140331955Y-75644796D01*
X140188787Y-75809598D01*
X140080521Y-75999164D01*
X140011318Y-76206209D01*
X139999135Y-76267459D01*
X139629822Y-76267459D01*
X139603765Y-76136467D01*
X139521705Y-75938355D01*
X139402571Y-75760058D01*
X139250942Y-75608429D01*
X139072645Y-75489295D01*
X138874533Y-75407235D01*
X138664218Y-75365400D01*
X138449782Y-75365400D01*
X138239467Y-75407235D01*
X138041355Y-75489295D01*
X137863058Y-75608429D01*
X137711429Y-75760058D01*
X137592295Y-75938355D01*
X137510235Y-76136467D01*
X137468400Y-76346782D01*
X137105600Y-76346782D01*
X137063765Y-76136467D01*
X136981705Y-75938355D01*
X136862571Y-75760058D01*
X136710942Y-75608429D01*
X136532645Y-75489295D01*
X136334533Y-75407235D01*
X136124218Y-75365400D01*
X135909782Y-75365400D01*
X135699467Y-75407235D01*
X135501355Y-75489295D01*
X135323058Y-75608429D01*
X135171429Y-75760058D01*
X135052295Y-75938355D01*
X134970235Y-76136467D01*
X134928400Y-76346782D01*
X134565600Y-76346782D01*
X134523765Y-76136467D01*
X134441705Y-75938355D01*
X134322571Y-75760058D01*
X134170942Y-75608429D01*
X133992645Y-75489295D01*
X133794533Y-75407235D01*
X133584218Y-75365400D01*
X133369782Y-75365400D01*
X133159467Y-75407235D01*
X132961355Y-75489295D01*
X132783058Y-75608429D01*
X132631429Y-75760058D01*
X132588549Y-75824233D01*
X132584596Y-74164000D01*
X179093448Y-74164000D01*
X180471000Y-75541554D01*
M02*
