M48
; DRILL file {KiCad (5.1.6)-1} date 01/14/21 14:31:51
; FORMAT={-:-/ absolute / inch / decimal}
; #@! TF.CreationDate,2021-01-14T14:31:51+01:00
; #@! TF.GenerationSoftware,Kicad,Pcbnew,(5.1.6)-1
FMAT,2
INCH
T1C0.0157
T2C0.0374
T3C0.0394
T4C0.0400
T5C0.0512
%
G90
G05
T1
X5.455Y-3.82
X5.48Y-3.55
X5.53Y-3.55
X5.585Y-3.55
X5.69Y-3.55
X5.7Y-4.0
T2
X6.125Y-3.8
X6.125Y-3.9
X6.225Y-3.8
X6.225Y-3.9
X6.325Y-3.8
X6.325Y-3.9
X6.425Y-3.8
X6.425Y-3.9
X6.525Y-3.8
X6.525Y-3.9
X6.625Y-3.8
X6.625Y-3.9
X6.725Y-3.8
X6.725Y-3.9
X6.825Y-3.8
X6.825Y-3.9
T3
X5.89Y-4.745
X5.99Y-4.745
X6.815Y-3.185
X6.915Y-3.185
T4
X5.255Y-3.01
X5.355Y-3.01
X5.455Y-3.01
X5.555Y-3.01
X5.615Y-4.91
X5.655Y-3.01
X5.715Y-4.91
X5.755Y-3.01
X5.815Y-4.91
X5.855Y-3.01
X5.915Y-4.91
X5.955Y-3.01
X6.015Y-4.91
X6.055Y-3.01
X6.115Y-4.91
X6.155Y-3.01
X6.215Y-4.91
X6.315Y-3.01
X6.315Y-4.91
X6.415Y-3.01
X6.515Y-3.01
X6.515Y-4.91
X6.615Y-3.01
X6.615Y-4.91
X6.715Y-3.01
X6.715Y-4.91
X6.815Y-3.01
X6.815Y-4.91
X6.915Y-3.01
X6.915Y-4.91
X7.015Y-3.01
X7.015Y-4.91
T5
X5.4472Y-4.505
X5.6472Y-4.505
T0
M30
