G04 #@! TF.GenerationSoftware,KiCad,Pcbnew,(5.1.6)-1*
G04 #@! TF.CreationDate,2021-01-14T14:31:44+01:00*
G04 #@! TF.ProjectId,Thermolino2,54686572-6d6f-46c6-996e-6f322e6b6963,C*
G04 #@! TF.SameCoordinates,Original*
G04 #@! TF.FileFunction,Paste,Top*
G04 #@! TF.FilePolarity,Positive*
%FSLAX46Y46*%
G04 Gerber Fmt 4.6, Leading zero omitted, Abs format (unit mm)*
G04 Created by KiCad (PCBNEW (5.1.6)-1) date 2021-01-14 14:31:44*
%MOMM*%
%LPD*%
G01*
G04 APERTURE LIST*
%ADD10R,1.200000X0.900000*%
%ADD11R,1.300000X1.300000*%
%ADD12R,1.300000X2.000000*%
G04 APERTURE END LIST*
G36*
G01*
X144904750Y-99537000D02*
X145417250Y-99537000D01*
G75*
G02*
X145636000Y-99755750I0J-218750D01*
G01*
X145636000Y-100193250D01*
G75*
G02*
X145417250Y-100412000I-218750J0D01*
G01*
X144904750Y-100412000D01*
G75*
G02*
X144686000Y-100193250I0J218750D01*
G01*
X144686000Y-99755750D01*
G75*
G02*
X144904750Y-99537000I218750J0D01*
G01*
G37*
G36*
G01*
X144904750Y-97962000D02*
X145417250Y-97962000D01*
G75*
G02*
X145636000Y-98180750I0J-218750D01*
G01*
X145636000Y-98618250D01*
G75*
G02*
X145417250Y-98837000I-218750J0D01*
G01*
X144904750Y-98837000D01*
G75*
G02*
X144686000Y-98618250I0J218750D01*
G01*
X144686000Y-98180750D01*
G75*
G02*
X144904750Y-97962000I218750J0D01*
G01*
G37*
G36*
G01*
X136722500Y-95887250D02*
X136722500Y-95374750D01*
G75*
G02*
X136941250Y-95156000I218750J0D01*
G01*
X137378750Y-95156000D01*
G75*
G02*
X137597500Y-95374750I0J-218750D01*
G01*
X137597500Y-95887250D01*
G75*
G02*
X137378750Y-96106000I-218750J0D01*
G01*
X136941250Y-96106000D01*
G75*
G02*
X136722500Y-95887250I0J218750D01*
G01*
G37*
G36*
G01*
X135147500Y-95887250D02*
X135147500Y-95374750D01*
G75*
G02*
X135366250Y-95156000I218750J0D01*
G01*
X135803750Y-95156000D01*
G75*
G02*
X136022500Y-95374750I0J-218750D01*
G01*
X136022500Y-95887250D01*
G75*
G02*
X135803750Y-96106000I-218750J0D01*
G01*
X135366250Y-96106000D01*
G75*
G02*
X135147500Y-95887250I0J218750D01*
G01*
G37*
G36*
G01*
X146995500Y-93596750D02*
X146995500Y-94109250D01*
G75*
G02*
X146776750Y-94328000I-218750J0D01*
G01*
X146339250Y-94328000D01*
G75*
G02*
X146120500Y-94109250I0J218750D01*
G01*
X146120500Y-93596750D01*
G75*
G02*
X146339250Y-93378000I218750J0D01*
G01*
X146776750Y-93378000D01*
G75*
G02*
X146995500Y-93596750I0J-218750D01*
G01*
G37*
G36*
G01*
X148570500Y-93596750D02*
X148570500Y-94109250D01*
G75*
G02*
X148351750Y-94328000I-218750J0D01*
G01*
X147914250Y-94328000D01*
G75*
G02*
X147695500Y-94109250I0J218750D01*
G01*
X147695500Y-93596750D01*
G75*
G02*
X147914250Y-93378000I218750J0D01*
G01*
X148351750Y-93378000D01*
G75*
G02*
X148570500Y-93596750I0J-218750D01*
G01*
G37*
G36*
G01*
X146995500Y-95374750D02*
X146995500Y-95887250D01*
G75*
G02*
X146776750Y-96106000I-218750J0D01*
G01*
X146339250Y-96106000D01*
G75*
G02*
X146120500Y-95887250I0J218750D01*
G01*
X146120500Y-95374750D01*
G75*
G02*
X146339250Y-95156000I218750J0D01*
G01*
X146776750Y-95156000D01*
G75*
G02*
X146995500Y-95374750I0J-218750D01*
G01*
G37*
G36*
G01*
X148570500Y-95374750D02*
X148570500Y-95887250D01*
G75*
G02*
X148351750Y-96106000I-218750J0D01*
G01*
X147914250Y-96106000D01*
G75*
G02*
X147695500Y-95887250I0J218750D01*
G01*
X147695500Y-95374750D01*
G75*
G02*
X147914250Y-95156000I218750J0D01*
G01*
X148351750Y-95156000D01*
G75*
G02*
X148570500Y-95374750I0J-218750D01*
G01*
G37*
G36*
G01*
X138974000Y-108074750D02*
X138974000Y-108587250D01*
G75*
G02*
X138755250Y-108806000I-218750J0D01*
G01*
X138317750Y-108806000D01*
G75*
G02*
X138099000Y-108587250I0J218750D01*
G01*
X138099000Y-108074750D01*
G75*
G02*
X138317750Y-107856000I218750J0D01*
G01*
X138755250Y-107856000D01*
G75*
G02*
X138974000Y-108074750I0J-218750D01*
G01*
G37*
G36*
G01*
X140549000Y-108074750D02*
X140549000Y-108587250D01*
G75*
G02*
X140330250Y-108806000I-218750J0D01*
G01*
X139892750Y-108806000D01*
G75*
G02*
X139674000Y-108587250I0J218750D01*
G01*
X139674000Y-108074750D01*
G75*
G02*
X139892750Y-107856000I218750J0D01*
G01*
X140330250Y-107856000D01*
G75*
G02*
X140549000Y-108074750I0J-218750D01*
G01*
G37*
G36*
G01*
X142824000Y-108587250D02*
X142824000Y-108074750D01*
G75*
G02*
X143042750Y-107856000I218750J0D01*
G01*
X143480250Y-107856000D01*
G75*
G02*
X143699000Y-108074750I0J-218750D01*
G01*
X143699000Y-108587250D01*
G75*
G02*
X143480250Y-108806000I-218750J0D01*
G01*
X143042750Y-108806000D01*
G75*
G02*
X142824000Y-108587250I0J218750D01*
G01*
G37*
G36*
G01*
X141249000Y-108587250D02*
X141249000Y-108074750D01*
G75*
G02*
X141467750Y-107856000I218750J0D01*
G01*
X141905250Y-107856000D01*
G75*
G02*
X142124000Y-108074750I0J-218750D01*
G01*
X142124000Y-108587250D01*
G75*
G02*
X141905250Y-108806000I-218750J0D01*
G01*
X141467750Y-108806000D01*
G75*
G02*
X141249000Y-108587250I0J218750D01*
G01*
G37*
G36*
G01*
X145290250Y-103536000D02*
X144777750Y-103536000D01*
G75*
G02*
X144559000Y-103317250I0J218750D01*
G01*
X144559000Y-102879750D01*
G75*
G02*
X144777750Y-102661000I218750J0D01*
G01*
X145290250Y-102661000D01*
G75*
G02*
X145509000Y-102879750I0J-218750D01*
G01*
X145509000Y-103317250D01*
G75*
G02*
X145290250Y-103536000I-218750J0D01*
G01*
G37*
G36*
G01*
X145290250Y-105111000D02*
X144777750Y-105111000D01*
G75*
G02*
X144559000Y-104892250I0J218750D01*
G01*
X144559000Y-104454750D01*
G75*
G02*
X144777750Y-104236000I218750J0D01*
G01*
X145290250Y-104236000D01*
G75*
G02*
X145509000Y-104454750I0J-218750D01*
G01*
X145509000Y-104892250D01*
G75*
G02*
X145290250Y-105111000I-218750J0D01*
G01*
G37*
G36*
G01*
X137381500Y-106423750D02*
X137381500Y-106936250D01*
G75*
G02*
X137162750Y-107155000I-218750J0D01*
G01*
X136725250Y-107155000D01*
G75*
G02*
X136506500Y-106936250I0J218750D01*
G01*
X136506500Y-106423750D01*
G75*
G02*
X136725250Y-106205000I218750J0D01*
G01*
X137162750Y-106205000D01*
G75*
G02*
X137381500Y-106423750I0J-218750D01*
G01*
G37*
G36*
G01*
X138956500Y-106423750D02*
X138956500Y-106936250D01*
G75*
G02*
X138737750Y-107155000I-218750J0D01*
G01*
X138300250Y-107155000D01*
G75*
G02*
X138081500Y-106936250I0J218750D01*
G01*
X138081500Y-106423750D01*
G75*
G02*
X138300250Y-106205000I218750J0D01*
G01*
X138737750Y-106205000D01*
G75*
G02*
X138956500Y-106423750I0J-218750D01*
G01*
G37*
G36*
G01*
X140549000Y-106423750D02*
X140549000Y-106936250D01*
G75*
G02*
X140330250Y-107155000I-218750J0D01*
G01*
X139892750Y-107155000D01*
G75*
G02*
X139674000Y-106936250I0J218750D01*
G01*
X139674000Y-106423750D01*
G75*
G02*
X139892750Y-106205000I218750J0D01*
G01*
X140330250Y-106205000D01*
G75*
G02*
X140549000Y-106423750I0J-218750D01*
G01*
G37*
G36*
G01*
X142124000Y-106423750D02*
X142124000Y-106936250D01*
G75*
G02*
X141905250Y-107155000I-218750J0D01*
G01*
X141467750Y-107155000D01*
G75*
G02*
X141249000Y-106936250I0J218750D01*
G01*
X141249000Y-106423750D01*
G75*
G02*
X141467750Y-106205000I218750J0D01*
G01*
X141905250Y-106205000D01*
G75*
G02*
X142124000Y-106423750I0J-218750D01*
G01*
G37*
G36*
G01*
X143731500Y-106423750D02*
X143731500Y-106936250D01*
G75*
G02*
X143512750Y-107155000I-218750J0D01*
G01*
X143075250Y-107155000D01*
G75*
G02*
X142856500Y-106936250I0J218750D01*
G01*
X142856500Y-106423750D01*
G75*
G02*
X143075250Y-106205000I218750J0D01*
G01*
X143512750Y-106205000D01*
G75*
G02*
X143731500Y-106423750I0J-218750D01*
G01*
G37*
G36*
G01*
X145306500Y-106423750D02*
X145306500Y-106936250D01*
G75*
G02*
X145087750Y-107155000I-218750J0D01*
G01*
X144650250Y-107155000D01*
G75*
G02*
X144431500Y-106936250I0J218750D01*
G01*
X144431500Y-106423750D01*
G75*
G02*
X144650250Y-106205000I218750J0D01*
G01*
X145087750Y-106205000D01*
G75*
G02*
X145306500Y-106423750I0J-218750D01*
G01*
G37*
G36*
G01*
X139374000Y-99406500D02*
X139174000Y-99406500D01*
G75*
G02*
X139074000Y-99306500I0J100000D01*
G01*
X139074000Y-98031500D01*
G75*
G02*
X139174000Y-97931500I100000J0D01*
G01*
X139374000Y-97931500D01*
G75*
G02*
X139474000Y-98031500I0J-100000D01*
G01*
X139474000Y-99306500D01*
G75*
G02*
X139374000Y-99406500I-100000J0D01*
G01*
G37*
G36*
G01*
X140024000Y-99406500D02*
X139824000Y-99406500D01*
G75*
G02*
X139724000Y-99306500I0J100000D01*
G01*
X139724000Y-98031500D01*
G75*
G02*
X139824000Y-97931500I100000J0D01*
G01*
X140024000Y-97931500D01*
G75*
G02*
X140124000Y-98031500I0J-100000D01*
G01*
X140124000Y-99306500D01*
G75*
G02*
X140024000Y-99406500I-100000J0D01*
G01*
G37*
G36*
G01*
X140674000Y-99406500D02*
X140474000Y-99406500D01*
G75*
G02*
X140374000Y-99306500I0J100000D01*
G01*
X140374000Y-98031500D01*
G75*
G02*
X140474000Y-97931500I100000J0D01*
G01*
X140674000Y-97931500D01*
G75*
G02*
X140774000Y-98031500I0J-100000D01*
G01*
X140774000Y-99306500D01*
G75*
G02*
X140674000Y-99406500I-100000J0D01*
G01*
G37*
G36*
G01*
X141324000Y-99406500D02*
X141124000Y-99406500D01*
G75*
G02*
X141024000Y-99306500I0J100000D01*
G01*
X141024000Y-98031500D01*
G75*
G02*
X141124000Y-97931500I100000J0D01*
G01*
X141324000Y-97931500D01*
G75*
G02*
X141424000Y-98031500I0J-100000D01*
G01*
X141424000Y-99306500D01*
G75*
G02*
X141324000Y-99406500I-100000J0D01*
G01*
G37*
G36*
G01*
X141974000Y-99406500D02*
X141774000Y-99406500D01*
G75*
G02*
X141674000Y-99306500I0J100000D01*
G01*
X141674000Y-98031500D01*
G75*
G02*
X141774000Y-97931500I100000J0D01*
G01*
X141974000Y-97931500D01*
G75*
G02*
X142074000Y-98031500I0J-100000D01*
G01*
X142074000Y-99306500D01*
G75*
G02*
X141974000Y-99406500I-100000J0D01*
G01*
G37*
G36*
G01*
X142624000Y-99406500D02*
X142424000Y-99406500D01*
G75*
G02*
X142324000Y-99306500I0J100000D01*
G01*
X142324000Y-98031500D01*
G75*
G02*
X142424000Y-97931500I100000J0D01*
G01*
X142624000Y-97931500D01*
G75*
G02*
X142724000Y-98031500I0J-100000D01*
G01*
X142724000Y-99306500D01*
G75*
G02*
X142624000Y-99406500I-100000J0D01*
G01*
G37*
G36*
G01*
X143274000Y-99406500D02*
X143074000Y-99406500D01*
G75*
G02*
X142974000Y-99306500I0J100000D01*
G01*
X142974000Y-98031500D01*
G75*
G02*
X143074000Y-97931500I100000J0D01*
G01*
X143274000Y-97931500D01*
G75*
G02*
X143374000Y-98031500I0J-100000D01*
G01*
X143374000Y-99306500D01*
G75*
G02*
X143274000Y-99406500I-100000J0D01*
G01*
G37*
G36*
G01*
X143274000Y-105131500D02*
X143074000Y-105131500D01*
G75*
G02*
X142974000Y-105031500I0J100000D01*
G01*
X142974000Y-103756500D01*
G75*
G02*
X143074000Y-103656500I100000J0D01*
G01*
X143274000Y-103656500D01*
G75*
G02*
X143374000Y-103756500I0J-100000D01*
G01*
X143374000Y-105031500D01*
G75*
G02*
X143274000Y-105131500I-100000J0D01*
G01*
G37*
G36*
G01*
X142624000Y-105131500D02*
X142424000Y-105131500D01*
G75*
G02*
X142324000Y-105031500I0J100000D01*
G01*
X142324000Y-103756500D01*
G75*
G02*
X142424000Y-103656500I100000J0D01*
G01*
X142624000Y-103656500D01*
G75*
G02*
X142724000Y-103756500I0J-100000D01*
G01*
X142724000Y-105031500D01*
G75*
G02*
X142624000Y-105131500I-100000J0D01*
G01*
G37*
G36*
G01*
X141974000Y-105131500D02*
X141774000Y-105131500D01*
G75*
G02*
X141674000Y-105031500I0J100000D01*
G01*
X141674000Y-103756500D01*
G75*
G02*
X141774000Y-103656500I100000J0D01*
G01*
X141974000Y-103656500D01*
G75*
G02*
X142074000Y-103756500I0J-100000D01*
G01*
X142074000Y-105031500D01*
G75*
G02*
X141974000Y-105131500I-100000J0D01*
G01*
G37*
G36*
G01*
X141324000Y-105131500D02*
X141124000Y-105131500D01*
G75*
G02*
X141024000Y-105031500I0J100000D01*
G01*
X141024000Y-103756500D01*
G75*
G02*
X141124000Y-103656500I100000J0D01*
G01*
X141324000Y-103656500D01*
G75*
G02*
X141424000Y-103756500I0J-100000D01*
G01*
X141424000Y-105031500D01*
G75*
G02*
X141324000Y-105131500I-100000J0D01*
G01*
G37*
G36*
G01*
X140674000Y-105131500D02*
X140474000Y-105131500D01*
G75*
G02*
X140374000Y-105031500I0J100000D01*
G01*
X140374000Y-103756500D01*
G75*
G02*
X140474000Y-103656500I100000J0D01*
G01*
X140674000Y-103656500D01*
G75*
G02*
X140774000Y-103756500I0J-100000D01*
G01*
X140774000Y-105031500D01*
G75*
G02*
X140674000Y-105131500I-100000J0D01*
G01*
G37*
G36*
G01*
X140024000Y-105131500D02*
X139824000Y-105131500D01*
G75*
G02*
X139724000Y-105031500I0J100000D01*
G01*
X139724000Y-103756500D01*
G75*
G02*
X139824000Y-103656500I100000J0D01*
G01*
X140024000Y-103656500D01*
G75*
G02*
X140124000Y-103756500I0J-100000D01*
G01*
X140124000Y-105031500D01*
G75*
G02*
X140024000Y-105131500I-100000J0D01*
G01*
G37*
G36*
G01*
X139374000Y-105131500D02*
X139174000Y-105131500D01*
G75*
G02*
X139074000Y-105031500I0J100000D01*
G01*
X139074000Y-103756500D01*
G75*
G02*
X139174000Y-103656500I100000J0D01*
G01*
X139374000Y-103656500D01*
G75*
G02*
X139474000Y-103756500I0J-100000D01*
G01*
X139474000Y-105031500D01*
G75*
G02*
X139374000Y-105131500I-100000J0D01*
G01*
G37*
D10*
X144526000Y-95630000D03*
X144526000Y-92330000D03*
X139192000Y-95630000D03*
X139192000Y-92330000D03*
X141859000Y-95630000D03*
X141859000Y-92330000D03*
D11*
X177625000Y-89415000D03*
X177625000Y-87115000D03*
D12*
X172125000Y-88265000D03*
G36*
G01*
X155713000Y-120760500D02*
X155713000Y-120285500D01*
G75*
G02*
X155950500Y-120048000I237500J0D01*
G01*
X156525500Y-120048000D01*
G75*
G02*
X156763000Y-120285500I0J-237500D01*
G01*
X156763000Y-120760500D01*
G75*
G02*
X156525500Y-120998000I-237500J0D01*
G01*
X155950500Y-120998000D01*
G75*
G02*
X155713000Y-120760500I0J237500D01*
G01*
G37*
G36*
G01*
X157463000Y-120760500D02*
X157463000Y-120285500D01*
G75*
G02*
X157700500Y-120048000I237500J0D01*
G01*
X158275500Y-120048000D01*
G75*
G02*
X158513000Y-120285500I0J-237500D01*
G01*
X158513000Y-120760500D01*
G75*
G02*
X158275500Y-120998000I-237500J0D01*
G01*
X157700500Y-120998000D01*
G75*
G02*
X157463000Y-120760500I0J237500D01*
G01*
G37*
M02*
