G04 #@! TF.GenerationSoftware,KiCad,Pcbnew,(5.1.6)-1*
G04 #@! TF.CreationDate,2021-01-14T14:31:44+01:00*
G04 #@! TF.ProjectId,Thermolino2,54686572-6d6f-46c6-996e-6f322e6b6963,C*
G04 #@! TF.SameCoordinates,Original*
G04 #@! TF.FileFunction,Legend,Top*
G04 #@! TF.FilePolarity,Positive*
%FSLAX46Y46*%
G04 Gerber Fmt 4.6, Leading zero omitted, Abs format (unit mm)*
G04 Created by KiCad (PCBNEW (5.1.6)-1) date 2021-01-14 14:31:44*
%MOMM*%
%LPD*%
G01*
G04 APERTURE LIST*
%ADD10C,0.300000*%
%ADD11C,0.120000*%
%ADD12C,0.150000*%
%ADD13C,2.000000*%
%ADD14R,1.200000X0.900000*%
%ADD15O,1.727200X1.727200*%
%ADD16R,1.300000X1.300000*%
%ADD17R,1.300000X2.000000*%
%ADD18R,1.700000X1.700000*%
%ADD19O,1.700000X1.700000*%
%ADD20C,1.524000*%
G04 APERTURE END LIST*
D10*
X142343357Y-119892071D02*
X143200500Y-119892071D01*
X142771928Y-121392071D02*
X142771928Y-119892071D01*
X143700500Y-120820642D02*
X144843357Y-120820642D01*
X144271928Y-121392071D02*
X144271928Y-120249214D01*
X137009357Y-119892071D02*
X137866500Y-119892071D01*
X137437928Y-121392071D02*
X137437928Y-119892071D01*
X138366500Y-120820642D02*
X139509357Y-120820642D01*
X179518571Y-117585285D02*
X179518571Y-116728142D01*
X181018571Y-117156714D02*
X179518571Y-117156714D01*
X181018571Y-116228142D02*
X179518571Y-116228142D01*
X181018571Y-115585285D02*
X180232857Y-115585285D01*
X180090000Y-115656714D01*
X180018571Y-115799571D01*
X180018571Y-116013857D01*
X180090000Y-116156714D01*
X180161428Y-116228142D01*
X180947142Y-114299571D02*
X181018571Y-114442428D01*
X181018571Y-114728142D01*
X180947142Y-114871000D01*
X180804285Y-114942428D01*
X180232857Y-114942428D01*
X180090000Y-114871000D01*
X180018571Y-114728142D01*
X180018571Y-114442428D01*
X180090000Y-114299571D01*
X180232857Y-114228142D01*
X180375714Y-114228142D01*
X180518571Y-114942428D01*
X181018571Y-113585285D02*
X180018571Y-113585285D01*
X180304285Y-113585285D02*
X180161428Y-113513857D01*
X180090000Y-113442428D01*
X180018571Y-113299571D01*
X180018571Y-113156714D01*
X181018571Y-112656714D02*
X180018571Y-112656714D01*
X180161428Y-112656714D02*
X180090000Y-112585285D01*
X180018571Y-112442428D01*
X180018571Y-112228142D01*
X180090000Y-112085285D01*
X180232857Y-112013857D01*
X181018571Y-112013857D01*
X180232857Y-112013857D02*
X180090000Y-111942428D01*
X180018571Y-111799571D01*
X180018571Y-111585285D01*
X180090000Y-111442428D01*
X180232857Y-111371000D01*
X181018571Y-111371000D01*
X181018571Y-110442428D02*
X180947142Y-110585285D01*
X180875714Y-110656714D01*
X180732857Y-110728142D01*
X180304285Y-110728142D01*
X180161428Y-110656714D01*
X180090000Y-110585285D01*
X180018571Y-110442428D01*
X180018571Y-110228142D01*
X180090000Y-110085285D01*
X180161428Y-110013857D01*
X180304285Y-109942428D01*
X180732857Y-109942428D01*
X180875714Y-110013857D01*
X180947142Y-110085285D01*
X181018571Y-110228142D01*
X181018571Y-110442428D01*
X181018571Y-109085285D02*
X180947142Y-109228142D01*
X180804285Y-109299571D01*
X179518571Y-109299571D01*
X181018571Y-108513857D02*
X180018571Y-108513857D01*
X179518571Y-108513857D02*
X179590000Y-108585285D01*
X179661428Y-108513857D01*
X179590000Y-108442428D01*
X179518571Y-108513857D01*
X179661428Y-108513857D01*
X180018571Y-107799571D02*
X181018571Y-107799571D01*
X180161428Y-107799571D02*
X180090000Y-107728142D01*
X180018571Y-107585285D01*
X180018571Y-107371000D01*
X180090000Y-107228142D01*
X180232857Y-107156714D01*
X181018571Y-107156714D01*
X181018571Y-106228142D02*
X180947142Y-106371000D01*
X180875714Y-106442428D01*
X180732857Y-106513857D01*
X180304285Y-106513857D01*
X180161428Y-106442428D01*
X180090000Y-106371000D01*
X180018571Y-106228142D01*
X180018571Y-106013857D01*
X180090000Y-105871000D01*
X180161428Y-105799571D01*
X180304285Y-105728142D01*
X180732857Y-105728142D01*
X180875714Y-105799571D01*
X180947142Y-105871000D01*
X181018571Y-106013857D01*
X181018571Y-106228142D01*
X179661428Y-105156714D02*
X179590000Y-105085285D01*
X179518571Y-104942428D01*
X179518571Y-104585285D01*
X179590000Y-104442428D01*
X179661428Y-104371000D01*
X179804285Y-104299571D01*
X179947142Y-104299571D01*
X180161428Y-104371000D01*
X181018571Y-105228142D01*
X181018571Y-104299571D01*
D11*
X144651000Y-99024221D02*
X144651000Y-99349779D01*
X145671000Y-99024221D02*
X145671000Y-99349779D01*
X136209721Y-96141000D02*
X136535279Y-96141000D01*
X136209721Y-95121000D02*
X136535279Y-95121000D01*
X147508279Y-93343000D02*
X147182721Y-93343000D01*
X147508279Y-94363000D02*
X147182721Y-94363000D01*
X147508279Y-95121000D02*
X147182721Y-95121000D01*
X147508279Y-96141000D02*
X147182721Y-96141000D01*
X139486779Y-107821000D02*
X139161221Y-107821000D01*
X139486779Y-108841000D02*
X139161221Y-108841000D01*
X142311221Y-108841000D02*
X142636779Y-108841000D01*
X142311221Y-107821000D02*
X142636779Y-107821000D01*
X137724000Y-118237000D02*
X137724000Y-118872000D01*
X138994000Y-118237000D02*
X137724000Y-118237000D01*
X138994000Y-118872000D02*
X138994000Y-118237000D01*
X142804000Y-118237000D02*
X142804000Y-118872000D01*
X144074000Y-118237000D02*
X142804000Y-118237000D01*
X144074000Y-118872000D02*
X144074000Y-118237000D01*
X135184000Y-109982000D02*
X146614000Y-109982000D01*
X135184000Y-118872000D02*
X135184000Y-109982000D01*
X146614000Y-118872000D02*
X135184000Y-118872000D01*
X146614000Y-118872000D02*
X146614000Y-109982000D01*
X145544000Y-104048779D02*
X145544000Y-103723221D01*
X144524000Y-104048779D02*
X144524000Y-103723221D01*
X137894279Y-106170000D02*
X137568721Y-106170000D01*
X137894279Y-107190000D02*
X137568721Y-107190000D01*
X141061779Y-106170000D02*
X140736221Y-106170000D01*
X141061779Y-107190000D02*
X140736221Y-107190000D01*
X144244279Y-106170000D02*
X143918721Y-106170000D01*
X144244279Y-107190000D02*
X143918721Y-107190000D01*
X138614000Y-101531500D02*
X138614000Y-105131500D01*
X138614000Y-101531500D02*
X138614000Y-99331500D01*
X143834000Y-101531500D02*
X143834000Y-103731500D01*
X143834000Y-101531500D02*
X143834000Y-99331500D01*
X145526000Y-91730000D02*
X145526000Y-95630000D01*
X143526000Y-91730000D02*
X143526000Y-95630000D01*
X145526000Y-91730000D02*
X143526000Y-91730000D01*
X140192000Y-91730000D02*
X140192000Y-95630000D01*
X138192000Y-91730000D02*
X138192000Y-95630000D01*
X140192000Y-91730000D02*
X138192000Y-91730000D01*
X142859000Y-91730000D02*
X142859000Y-95630000D01*
X140859000Y-91730000D02*
X140859000Y-95630000D01*
X142859000Y-91730000D02*
X140859000Y-91730000D01*
D12*
X114681000Y-73914000D02*
X179197000Y-73914000D01*
X114681000Y-127254000D02*
X180721000Y-127254000D01*
X179197000Y-73914000D02*
X180721000Y-75438000D01*
X180721000Y-127254000D02*
X180721000Y-125984000D01*
X180721000Y-125984000D02*
X183261000Y-123444000D01*
X183261000Y-123444000D02*
X183261000Y-89154000D01*
X183261000Y-89154000D02*
X180721000Y-86614000D01*
X180721000Y-86614000D02*
X180721000Y-75438000D01*
X114681000Y-73914000D02*
X114681000Y-127254000D01*
D11*
X178435000Y-91440000D02*
X171450000Y-91440000D01*
X171450000Y-85090000D02*
X178435000Y-85090000D01*
X171450000Y-91440000D02*
X171450000Y-90170000D01*
X171450000Y-90170000D02*
X171450000Y-89535000D01*
X171450000Y-85090000D02*
X171450000Y-86995000D01*
X178435000Y-91440000D02*
X178435000Y-90805000D01*
X178435000Y-85090000D02*
X178435000Y-85725000D01*
X153476000Y-121853000D02*
X153476000Y-119193000D01*
X150876000Y-121853000D02*
X153476000Y-121853000D01*
X150876000Y-119193000D02*
X153476000Y-119193000D01*
X150876000Y-121853000D02*
X150876000Y-119193000D01*
X149606000Y-121853000D02*
X148276000Y-121853000D01*
X148276000Y-121853000D02*
X148276000Y-120523000D01*
X171771000Y-79569000D02*
X171771000Y-82229000D01*
X174371000Y-79569000D02*
X171771000Y-79569000D01*
X174371000Y-82229000D02*
X171771000Y-82229000D01*
X174371000Y-79569000D02*
X174371000Y-82229000D01*
X175641000Y-79569000D02*
X176971000Y-79569000D01*
X176971000Y-79569000D02*
X176971000Y-80899000D01*
X173355000Y-92710000D02*
X173990000Y-93290000D01*
X173355000Y-92710000D02*
X172720000Y-93290000D01*
X178665000Y-102290000D02*
X150265000Y-102290000D01*
X150265000Y-102290000D02*
X150265000Y-93290000D01*
X178665000Y-93290000D02*
X178665000Y-102290000D01*
X150265000Y-93290000D02*
X178665000Y-93290000D01*
X156941733Y-120013000D02*
X157284267Y-120013000D01*
X156941733Y-121033000D02*
X157284267Y-121033000D01*
D12*
X146948142Y-99353666D02*
X146995761Y-99401285D01*
X147043380Y-99544142D01*
X147043380Y-99639380D01*
X146995761Y-99782238D01*
X146900523Y-99877476D01*
X146805285Y-99925095D01*
X146614809Y-99972714D01*
X146471952Y-99972714D01*
X146281476Y-99925095D01*
X146186238Y-99877476D01*
X146091000Y-99782238D01*
X146043380Y-99639380D01*
X146043380Y-99544142D01*
X146091000Y-99401285D01*
X146138619Y-99353666D01*
X146043380Y-98448904D02*
X146043380Y-98925095D01*
X146519571Y-98972714D01*
X146471952Y-98925095D01*
X146424333Y-98829857D01*
X146424333Y-98591761D01*
X146471952Y-98496523D01*
X146519571Y-98448904D01*
X146614809Y-98401285D01*
X146852904Y-98401285D01*
X146948142Y-98448904D01*
X146995761Y-98496523D01*
X147043380Y-98591761D01*
X147043380Y-98829857D01*
X146995761Y-98925095D01*
X146948142Y-98972714D01*
X136205833Y-94653380D02*
X135872500Y-94177190D01*
X135634404Y-94653380D02*
X135634404Y-93653380D01*
X136015357Y-93653380D01*
X136110595Y-93701000D01*
X136158214Y-93748619D01*
X136205833Y-93843857D01*
X136205833Y-93986714D01*
X136158214Y-94081952D01*
X136110595Y-94129571D01*
X136015357Y-94177190D01*
X135634404Y-94177190D01*
X137110595Y-93653380D02*
X136634404Y-93653380D01*
X136586785Y-94129571D01*
X136634404Y-94081952D01*
X136729642Y-94034333D01*
X136967738Y-94034333D01*
X137062976Y-94081952D01*
X137110595Y-94129571D01*
X137158214Y-94224809D01*
X137158214Y-94462904D01*
X137110595Y-94558142D01*
X137062976Y-94605761D01*
X136967738Y-94653380D01*
X136729642Y-94653380D01*
X136634404Y-94605761D01*
X136586785Y-94558142D01*
X147178833Y-92781380D02*
X146845500Y-92305190D01*
X146607404Y-92781380D02*
X146607404Y-91781380D01*
X146988357Y-91781380D01*
X147083595Y-91829000D01*
X147131214Y-91876619D01*
X147178833Y-91971857D01*
X147178833Y-92114714D01*
X147131214Y-92209952D01*
X147083595Y-92257571D01*
X146988357Y-92305190D01*
X146607404Y-92305190D01*
X148035976Y-92114714D02*
X148035976Y-92781380D01*
X147797880Y-91733761D02*
X147559785Y-92448047D01*
X148178833Y-92448047D01*
X147178833Y-97513380D02*
X146845500Y-97037190D01*
X146607404Y-97513380D02*
X146607404Y-96513380D01*
X146988357Y-96513380D01*
X147083595Y-96561000D01*
X147131214Y-96608619D01*
X147178833Y-96703857D01*
X147178833Y-96846714D01*
X147131214Y-96941952D01*
X147083595Y-96989571D01*
X146988357Y-97037190D01*
X146607404Y-97037190D01*
X147512166Y-96513380D02*
X148131214Y-96513380D01*
X147797880Y-96894333D01*
X147940738Y-96894333D01*
X148035976Y-96941952D01*
X148083595Y-96989571D01*
X148131214Y-97084809D01*
X148131214Y-97322904D01*
X148083595Y-97418142D01*
X148035976Y-97465761D01*
X147940738Y-97513380D01*
X147655023Y-97513380D01*
X147559785Y-97465761D01*
X147512166Y-97418142D01*
X136675833Y-108783380D02*
X136342500Y-108307190D01*
X136104404Y-108783380D02*
X136104404Y-107783380D01*
X136485357Y-107783380D01*
X136580595Y-107831000D01*
X136628214Y-107878619D01*
X136675833Y-107973857D01*
X136675833Y-108116714D01*
X136628214Y-108211952D01*
X136580595Y-108259571D01*
X136485357Y-108307190D01*
X136104404Y-108307190D01*
X137056785Y-107878619D02*
X137104404Y-107831000D01*
X137199642Y-107783380D01*
X137437738Y-107783380D01*
X137532976Y-107831000D01*
X137580595Y-107878619D01*
X137628214Y-107973857D01*
X137628214Y-108069095D01*
X137580595Y-108211952D01*
X137009166Y-108783380D01*
X137628214Y-108783380D01*
X144740333Y-108783380D02*
X144407000Y-108307190D01*
X144168904Y-108783380D02*
X144168904Y-107783380D01*
X144549857Y-107783380D01*
X144645095Y-107831000D01*
X144692714Y-107878619D01*
X144740333Y-107973857D01*
X144740333Y-108116714D01*
X144692714Y-108211952D01*
X144645095Y-108259571D01*
X144549857Y-108307190D01*
X144168904Y-108307190D01*
X145692714Y-108783380D02*
X145121285Y-108783380D01*
X145407000Y-108783380D02*
X145407000Y-107783380D01*
X145311761Y-107926238D01*
X145216523Y-108021476D01*
X145121285Y-108069095D01*
X147534380Y-114760333D02*
X148248666Y-114760333D01*
X148391523Y-114807952D01*
X148486761Y-114903190D01*
X148534380Y-115046047D01*
X148534380Y-115141285D01*
X148534380Y-113760333D02*
X148534380Y-114331761D01*
X148534380Y-114046047D02*
X147534380Y-114046047D01*
X147677238Y-114141285D01*
X147772476Y-114236523D01*
X147820095Y-114331761D01*
X146915142Y-104052666D02*
X146962761Y-104100285D01*
X147010380Y-104243142D01*
X147010380Y-104338380D01*
X146962761Y-104481238D01*
X146867523Y-104576476D01*
X146772285Y-104624095D01*
X146581809Y-104671714D01*
X146438952Y-104671714D01*
X146248476Y-104624095D01*
X146153238Y-104576476D01*
X146058000Y-104481238D01*
X146010380Y-104338380D01*
X146010380Y-104243142D01*
X146058000Y-104100285D01*
X146105619Y-104052666D01*
X146343714Y-103195523D02*
X147010380Y-103195523D01*
X145962761Y-103433619D02*
X146677047Y-103671714D01*
X146677047Y-103052666D01*
X135088333Y-107037142D02*
X135040714Y-107084761D01*
X134897857Y-107132380D01*
X134802619Y-107132380D01*
X134659761Y-107084761D01*
X134564523Y-106989523D01*
X134516904Y-106894285D01*
X134469285Y-106703809D01*
X134469285Y-106560952D01*
X134516904Y-106370476D01*
X134564523Y-106275238D01*
X134659761Y-106180000D01*
X134802619Y-106132380D01*
X134897857Y-106132380D01*
X135040714Y-106180000D01*
X135088333Y-106227619D01*
X135421666Y-106132380D02*
X136040714Y-106132380D01*
X135707380Y-106513333D01*
X135850238Y-106513333D01*
X135945476Y-106560952D01*
X135993095Y-106608571D01*
X136040714Y-106703809D01*
X136040714Y-106941904D01*
X135993095Y-107037142D01*
X135945476Y-107084761D01*
X135850238Y-107132380D01*
X135564523Y-107132380D01*
X135469285Y-107084761D01*
X135421666Y-107037142D01*
X137183833Y-105576642D02*
X137136214Y-105624261D01*
X136993357Y-105671880D01*
X136898119Y-105671880D01*
X136755261Y-105624261D01*
X136660023Y-105529023D01*
X136612404Y-105433785D01*
X136564785Y-105243309D01*
X136564785Y-105100452D01*
X136612404Y-104909976D01*
X136660023Y-104814738D01*
X136755261Y-104719500D01*
X136898119Y-104671880D01*
X136993357Y-104671880D01*
X137136214Y-104719500D01*
X137183833Y-104767119D01*
X137564785Y-104767119D02*
X137612404Y-104719500D01*
X137707642Y-104671880D01*
X137945738Y-104671880D01*
X138040976Y-104719500D01*
X138088595Y-104767119D01*
X138136214Y-104862357D01*
X138136214Y-104957595D01*
X138088595Y-105100452D01*
X137517166Y-105671880D01*
X138136214Y-105671880D01*
X146391333Y-107037142D02*
X146343714Y-107084761D01*
X146200857Y-107132380D01*
X146105619Y-107132380D01*
X145962761Y-107084761D01*
X145867523Y-106989523D01*
X145819904Y-106894285D01*
X145772285Y-106703809D01*
X145772285Y-106560952D01*
X145819904Y-106370476D01*
X145867523Y-106275238D01*
X145962761Y-106180000D01*
X146105619Y-106132380D01*
X146200857Y-106132380D01*
X146343714Y-106180000D01*
X146391333Y-106227619D01*
X147343714Y-107132380D02*
X146772285Y-107132380D01*
X147058000Y-107132380D02*
X147058000Y-106132380D01*
X146962761Y-106275238D01*
X146867523Y-106370476D01*
X146772285Y-106418095D01*
X137226380Y-102293404D02*
X138035904Y-102293404D01*
X138131142Y-102245785D01*
X138178761Y-102198166D01*
X138226380Y-102102928D01*
X138226380Y-101912452D01*
X138178761Y-101817214D01*
X138131142Y-101769595D01*
X138035904Y-101721976D01*
X137226380Y-101721976D01*
X138226380Y-100721976D02*
X138226380Y-101293404D01*
X138226380Y-101007690D02*
X137226380Y-101007690D01*
X137369238Y-101102928D01*
X137464476Y-101198166D01*
X137512095Y-101293404D01*
X146121380Y-91416095D02*
X145121380Y-91416095D01*
X145121380Y-91178000D01*
X145169000Y-91035142D01*
X145264238Y-90939904D01*
X145359476Y-90892285D01*
X145549952Y-90844666D01*
X145692809Y-90844666D01*
X145883285Y-90892285D01*
X145978523Y-90939904D01*
X146073761Y-91035142D01*
X146121380Y-91178000D01*
X146121380Y-91416095D01*
X145121380Y-90511333D02*
X145121380Y-89892285D01*
X145502333Y-90225619D01*
X145502333Y-90082761D01*
X145549952Y-89987523D01*
X145597571Y-89939904D01*
X145692809Y-89892285D01*
X145930904Y-89892285D01*
X146026142Y-89939904D01*
X146073761Y-89987523D01*
X146121380Y-90082761D01*
X146121380Y-90368476D01*
X146073761Y-90463714D01*
X146026142Y-90511333D01*
X138564880Y-91416095D02*
X137564880Y-91416095D01*
X137564880Y-91178000D01*
X137612500Y-91035142D01*
X137707738Y-90939904D01*
X137802976Y-90892285D01*
X137993452Y-90844666D01*
X138136309Y-90844666D01*
X138326785Y-90892285D01*
X138422023Y-90939904D01*
X138517261Y-91035142D01*
X138564880Y-91178000D01*
X138564880Y-91416095D01*
X137660119Y-90463714D02*
X137612500Y-90416095D01*
X137564880Y-90320857D01*
X137564880Y-90082761D01*
X137612500Y-89987523D01*
X137660119Y-89939904D01*
X137755357Y-89892285D01*
X137850595Y-89892285D01*
X137993452Y-89939904D01*
X138564880Y-90511333D01*
X138564880Y-89892285D01*
X143454380Y-91416095D02*
X142454380Y-91416095D01*
X142454380Y-91178000D01*
X142502000Y-91035142D01*
X142597238Y-90939904D01*
X142692476Y-90892285D01*
X142882952Y-90844666D01*
X143025809Y-90844666D01*
X143216285Y-90892285D01*
X143311523Y-90939904D01*
X143406761Y-91035142D01*
X143454380Y-91178000D01*
X143454380Y-91416095D01*
X143454380Y-89892285D02*
X143454380Y-90463714D01*
X143454380Y-90178000D02*
X142454380Y-90178000D01*
X142597238Y-90273238D01*
X142692476Y-90368476D01*
X142740095Y-90463714D01*
X115982904Y-72350380D02*
X116649571Y-73350380D01*
X116649571Y-72350380D02*
X115982904Y-73350380D01*
X116982904Y-73064666D02*
X117459095Y-73064666D01*
X116887666Y-73350380D02*
X117221000Y-72350380D01*
X117554333Y-73350380D01*
X118411476Y-73350380D02*
X117840047Y-73350380D01*
X118125761Y-73350380D02*
X118125761Y-72350380D01*
X118030523Y-72493238D01*
X117935285Y-72588476D01*
X117840047Y-72636095D01*
X179649380Y-88860238D02*
X179173190Y-89193571D01*
X179649380Y-89431666D02*
X178649380Y-89431666D01*
X178649380Y-89050714D01*
X178697000Y-88955476D01*
X178744619Y-88907857D01*
X178839857Y-88860238D01*
X178982714Y-88860238D01*
X179077952Y-88907857D01*
X179125571Y-88955476D01*
X179173190Y-89050714D01*
X179173190Y-89431666D01*
X178649380Y-88574523D02*
X179649380Y-88241190D01*
X178649380Y-87907857D01*
X179649380Y-87050714D02*
X179649380Y-87622142D01*
X179649380Y-87336428D02*
X178649380Y-87336428D01*
X178792238Y-87431666D01*
X178887476Y-87526904D01*
X178935095Y-87622142D01*
X149915666Y-117562380D02*
X149915666Y-118276666D01*
X149868047Y-118419523D01*
X149772809Y-118514761D01*
X149629952Y-118562380D01*
X149534714Y-118562380D01*
X150391857Y-118562380D02*
X150391857Y-117562380D01*
X150772809Y-117562380D01*
X150868047Y-117610000D01*
X150915666Y-117657619D01*
X150963285Y-117752857D01*
X150963285Y-117895714D01*
X150915666Y-117990952D01*
X150868047Y-118038571D01*
X150772809Y-118086190D01*
X150391857Y-118086190D01*
X151915666Y-118562380D02*
X151344238Y-118562380D01*
X151629952Y-118562380D02*
X151629952Y-117562380D01*
X151534714Y-117705238D01*
X151439476Y-117800476D01*
X151344238Y-117848095D01*
X177696880Y-81232333D02*
X178411166Y-81232333D01*
X178554023Y-81279952D01*
X178649261Y-81375190D01*
X178696880Y-81518047D01*
X178696880Y-81613285D01*
X177792119Y-80803761D02*
X177744500Y-80756142D01*
X177696880Y-80660904D01*
X177696880Y-80422809D01*
X177744500Y-80327571D01*
X177792119Y-80279952D01*
X177887357Y-80232333D01*
X177982595Y-80232333D01*
X178125452Y-80279952D01*
X178696880Y-80851380D01*
X178696880Y-80232333D01*
X164131666Y-91962380D02*
X164131666Y-92676666D01*
X164084047Y-92819523D01*
X163988809Y-92914761D01*
X163845952Y-92962380D01*
X163750714Y-92962380D01*
X164512619Y-91962380D02*
X165131666Y-91962380D01*
X164798333Y-92343333D01*
X164941190Y-92343333D01*
X165036428Y-92390952D01*
X165084047Y-92438571D01*
X165131666Y-92533809D01*
X165131666Y-92771904D01*
X165084047Y-92867142D01*
X165036428Y-92914761D01*
X164941190Y-92962380D01*
X164655476Y-92962380D01*
X164560238Y-92914761D01*
X164512619Y-92867142D01*
X156946333Y-119450142D02*
X156898714Y-119497761D01*
X156755857Y-119545380D01*
X156660619Y-119545380D01*
X156517761Y-119497761D01*
X156422523Y-119402523D01*
X156374904Y-119307285D01*
X156327285Y-119116809D01*
X156327285Y-118973952D01*
X156374904Y-118783476D01*
X156422523Y-118688238D01*
X156517761Y-118593000D01*
X156660619Y-118545380D01*
X156755857Y-118545380D01*
X156898714Y-118593000D01*
X156946333Y-118640619D01*
X157803476Y-118545380D02*
X157613000Y-118545380D01*
X157517761Y-118593000D01*
X157470142Y-118640619D01*
X157374904Y-118783476D01*
X157327285Y-118973952D01*
X157327285Y-119354904D01*
X157374904Y-119450142D01*
X157422523Y-119497761D01*
X157517761Y-119545380D01*
X157708238Y-119545380D01*
X157803476Y-119497761D01*
X157851095Y-119450142D01*
X157898714Y-119354904D01*
X157898714Y-119116809D01*
X157851095Y-119021571D01*
X157803476Y-118973952D01*
X157708238Y-118926333D01*
X157517761Y-118926333D01*
X157422523Y-118973952D01*
X157374904Y-119021571D01*
X157327285Y-119116809D01*
%LPC*%
G36*
G01*
X144904750Y-99537000D02*
X145417250Y-99537000D01*
G75*
G02*
X145636000Y-99755750I0J-218750D01*
G01*
X145636000Y-100193250D01*
G75*
G02*
X145417250Y-100412000I-218750J0D01*
G01*
X144904750Y-100412000D01*
G75*
G02*
X144686000Y-100193250I0J218750D01*
G01*
X144686000Y-99755750D01*
G75*
G02*
X144904750Y-99537000I218750J0D01*
G01*
G37*
G36*
G01*
X144904750Y-97962000D02*
X145417250Y-97962000D01*
G75*
G02*
X145636000Y-98180750I0J-218750D01*
G01*
X145636000Y-98618250D01*
G75*
G02*
X145417250Y-98837000I-218750J0D01*
G01*
X144904750Y-98837000D01*
G75*
G02*
X144686000Y-98618250I0J218750D01*
G01*
X144686000Y-98180750D01*
G75*
G02*
X144904750Y-97962000I218750J0D01*
G01*
G37*
G36*
G01*
X136722500Y-95887250D02*
X136722500Y-95374750D01*
G75*
G02*
X136941250Y-95156000I218750J0D01*
G01*
X137378750Y-95156000D01*
G75*
G02*
X137597500Y-95374750I0J-218750D01*
G01*
X137597500Y-95887250D01*
G75*
G02*
X137378750Y-96106000I-218750J0D01*
G01*
X136941250Y-96106000D01*
G75*
G02*
X136722500Y-95887250I0J218750D01*
G01*
G37*
G36*
G01*
X135147500Y-95887250D02*
X135147500Y-95374750D01*
G75*
G02*
X135366250Y-95156000I218750J0D01*
G01*
X135803750Y-95156000D01*
G75*
G02*
X136022500Y-95374750I0J-218750D01*
G01*
X136022500Y-95887250D01*
G75*
G02*
X135803750Y-96106000I-218750J0D01*
G01*
X135366250Y-96106000D01*
G75*
G02*
X135147500Y-95887250I0J218750D01*
G01*
G37*
G36*
G01*
X146995500Y-93596750D02*
X146995500Y-94109250D01*
G75*
G02*
X146776750Y-94328000I-218750J0D01*
G01*
X146339250Y-94328000D01*
G75*
G02*
X146120500Y-94109250I0J218750D01*
G01*
X146120500Y-93596750D01*
G75*
G02*
X146339250Y-93378000I218750J0D01*
G01*
X146776750Y-93378000D01*
G75*
G02*
X146995500Y-93596750I0J-218750D01*
G01*
G37*
G36*
G01*
X148570500Y-93596750D02*
X148570500Y-94109250D01*
G75*
G02*
X148351750Y-94328000I-218750J0D01*
G01*
X147914250Y-94328000D01*
G75*
G02*
X147695500Y-94109250I0J218750D01*
G01*
X147695500Y-93596750D01*
G75*
G02*
X147914250Y-93378000I218750J0D01*
G01*
X148351750Y-93378000D01*
G75*
G02*
X148570500Y-93596750I0J-218750D01*
G01*
G37*
G36*
G01*
X146995500Y-95374750D02*
X146995500Y-95887250D01*
G75*
G02*
X146776750Y-96106000I-218750J0D01*
G01*
X146339250Y-96106000D01*
G75*
G02*
X146120500Y-95887250I0J218750D01*
G01*
X146120500Y-95374750D01*
G75*
G02*
X146339250Y-95156000I218750J0D01*
G01*
X146776750Y-95156000D01*
G75*
G02*
X146995500Y-95374750I0J-218750D01*
G01*
G37*
G36*
G01*
X148570500Y-95374750D02*
X148570500Y-95887250D01*
G75*
G02*
X148351750Y-96106000I-218750J0D01*
G01*
X147914250Y-96106000D01*
G75*
G02*
X147695500Y-95887250I0J218750D01*
G01*
X147695500Y-95374750D01*
G75*
G02*
X147914250Y-95156000I218750J0D01*
G01*
X148351750Y-95156000D01*
G75*
G02*
X148570500Y-95374750I0J-218750D01*
G01*
G37*
G36*
G01*
X138974000Y-108074750D02*
X138974000Y-108587250D01*
G75*
G02*
X138755250Y-108806000I-218750J0D01*
G01*
X138317750Y-108806000D01*
G75*
G02*
X138099000Y-108587250I0J218750D01*
G01*
X138099000Y-108074750D01*
G75*
G02*
X138317750Y-107856000I218750J0D01*
G01*
X138755250Y-107856000D01*
G75*
G02*
X138974000Y-108074750I0J-218750D01*
G01*
G37*
G36*
G01*
X140549000Y-108074750D02*
X140549000Y-108587250D01*
G75*
G02*
X140330250Y-108806000I-218750J0D01*
G01*
X139892750Y-108806000D01*
G75*
G02*
X139674000Y-108587250I0J218750D01*
G01*
X139674000Y-108074750D01*
G75*
G02*
X139892750Y-107856000I218750J0D01*
G01*
X140330250Y-107856000D01*
G75*
G02*
X140549000Y-108074750I0J-218750D01*
G01*
G37*
G36*
G01*
X142824000Y-108587250D02*
X142824000Y-108074750D01*
G75*
G02*
X143042750Y-107856000I218750J0D01*
G01*
X143480250Y-107856000D01*
G75*
G02*
X143699000Y-108074750I0J-218750D01*
G01*
X143699000Y-108587250D01*
G75*
G02*
X143480250Y-108806000I-218750J0D01*
G01*
X143042750Y-108806000D01*
G75*
G02*
X142824000Y-108587250I0J218750D01*
G01*
G37*
G36*
G01*
X141249000Y-108587250D02*
X141249000Y-108074750D01*
G75*
G02*
X141467750Y-107856000I218750J0D01*
G01*
X141905250Y-107856000D01*
G75*
G02*
X142124000Y-108074750I0J-218750D01*
G01*
X142124000Y-108587250D01*
G75*
G02*
X141905250Y-108806000I-218750J0D01*
G01*
X141467750Y-108806000D01*
G75*
G02*
X141249000Y-108587250I0J218750D01*
G01*
G37*
D13*
X138359000Y-114427000D03*
X143439000Y-114427000D03*
G36*
G01*
X145290250Y-103536000D02*
X144777750Y-103536000D01*
G75*
G02*
X144559000Y-103317250I0J218750D01*
G01*
X144559000Y-102879750D01*
G75*
G02*
X144777750Y-102661000I218750J0D01*
G01*
X145290250Y-102661000D01*
G75*
G02*
X145509000Y-102879750I0J-218750D01*
G01*
X145509000Y-103317250D01*
G75*
G02*
X145290250Y-103536000I-218750J0D01*
G01*
G37*
G36*
G01*
X145290250Y-105111000D02*
X144777750Y-105111000D01*
G75*
G02*
X144559000Y-104892250I0J218750D01*
G01*
X144559000Y-104454750D01*
G75*
G02*
X144777750Y-104236000I218750J0D01*
G01*
X145290250Y-104236000D01*
G75*
G02*
X145509000Y-104454750I0J-218750D01*
G01*
X145509000Y-104892250D01*
G75*
G02*
X145290250Y-105111000I-218750J0D01*
G01*
G37*
G36*
G01*
X137381500Y-106423750D02*
X137381500Y-106936250D01*
G75*
G02*
X137162750Y-107155000I-218750J0D01*
G01*
X136725250Y-107155000D01*
G75*
G02*
X136506500Y-106936250I0J218750D01*
G01*
X136506500Y-106423750D01*
G75*
G02*
X136725250Y-106205000I218750J0D01*
G01*
X137162750Y-106205000D01*
G75*
G02*
X137381500Y-106423750I0J-218750D01*
G01*
G37*
G36*
G01*
X138956500Y-106423750D02*
X138956500Y-106936250D01*
G75*
G02*
X138737750Y-107155000I-218750J0D01*
G01*
X138300250Y-107155000D01*
G75*
G02*
X138081500Y-106936250I0J218750D01*
G01*
X138081500Y-106423750D01*
G75*
G02*
X138300250Y-106205000I218750J0D01*
G01*
X138737750Y-106205000D01*
G75*
G02*
X138956500Y-106423750I0J-218750D01*
G01*
G37*
G36*
G01*
X140549000Y-106423750D02*
X140549000Y-106936250D01*
G75*
G02*
X140330250Y-107155000I-218750J0D01*
G01*
X139892750Y-107155000D01*
G75*
G02*
X139674000Y-106936250I0J218750D01*
G01*
X139674000Y-106423750D01*
G75*
G02*
X139892750Y-106205000I218750J0D01*
G01*
X140330250Y-106205000D01*
G75*
G02*
X140549000Y-106423750I0J-218750D01*
G01*
G37*
G36*
G01*
X142124000Y-106423750D02*
X142124000Y-106936250D01*
G75*
G02*
X141905250Y-107155000I-218750J0D01*
G01*
X141467750Y-107155000D01*
G75*
G02*
X141249000Y-106936250I0J218750D01*
G01*
X141249000Y-106423750D01*
G75*
G02*
X141467750Y-106205000I218750J0D01*
G01*
X141905250Y-106205000D01*
G75*
G02*
X142124000Y-106423750I0J-218750D01*
G01*
G37*
G36*
G01*
X143731500Y-106423750D02*
X143731500Y-106936250D01*
G75*
G02*
X143512750Y-107155000I-218750J0D01*
G01*
X143075250Y-107155000D01*
G75*
G02*
X142856500Y-106936250I0J218750D01*
G01*
X142856500Y-106423750D01*
G75*
G02*
X143075250Y-106205000I218750J0D01*
G01*
X143512750Y-106205000D01*
G75*
G02*
X143731500Y-106423750I0J-218750D01*
G01*
G37*
G36*
G01*
X145306500Y-106423750D02*
X145306500Y-106936250D01*
G75*
G02*
X145087750Y-107155000I-218750J0D01*
G01*
X144650250Y-107155000D01*
G75*
G02*
X144431500Y-106936250I0J218750D01*
G01*
X144431500Y-106423750D01*
G75*
G02*
X144650250Y-106205000I218750J0D01*
G01*
X145087750Y-106205000D01*
G75*
G02*
X145306500Y-106423750I0J-218750D01*
G01*
G37*
G36*
G01*
X139374000Y-99406500D02*
X139174000Y-99406500D01*
G75*
G02*
X139074000Y-99306500I0J100000D01*
G01*
X139074000Y-98031500D01*
G75*
G02*
X139174000Y-97931500I100000J0D01*
G01*
X139374000Y-97931500D01*
G75*
G02*
X139474000Y-98031500I0J-100000D01*
G01*
X139474000Y-99306500D01*
G75*
G02*
X139374000Y-99406500I-100000J0D01*
G01*
G37*
G36*
G01*
X140024000Y-99406500D02*
X139824000Y-99406500D01*
G75*
G02*
X139724000Y-99306500I0J100000D01*
G01*
X139724000Y-98031500D01*
G75*
G02*
X139824000Y-97931500I100000J0D01*
G01*
X140024000Y-97931500D01*
G75*
G02*
X140124000Y-98031500I0J-100000D01*
G01*
X140124000Y-99306500D01*
G75*
G02*
X140024000Y-99406500I-100000J0D01*
G01*
G37*
G36*
G01*
X140674000Y-99406500D02*
X140474000Y-99406500D01*
G75*
G02*
X140374000Y-99306500I0J100000D01*
G01*
X140374000Y-98031500D01*
G75*
G02*
X140474000Y-97931500I100000J0D01*
G01*
X140674000Y-97931500D01*
G75*
G02*
X140774000Y-98031500I0J-100000D01*
G01*
X140774000Y-99306500D01*
G75*
G02*
X140674000Y-99406500I-100000J0D01*
G01*
G37*
G36*
G01*
X141324000Y-99406500D02*
X141124000Y-99406500D01*
G75*
G02*
X141024000Y-99306500I0J100000D01*
G01*
X141024000Y-98031500D01*
G75*
G02*
X141124000Y-97931500I100000J0D01*
G01*
X141324000Y-97931500D01*
G75*
G02*
X141424000Y-98031500I0J-100000D01*
G01*
X141424000Y-99306500D01*
G75*
G02*
X141324000Y-99406500I-100000J0D01*
G01*
G37*
G36*
G01*
X141974000Y-99406500D02*
X141774000Y-99406500D01*
G75*
G02*
X141674000Y-99306500I0J100000D01*
G01*
X141674000Y-98031500D01*
G75*
G02*
X141774000Y-97931500I100000J0D01*
G01*
X141974000Y-97931500D01*
G75*
G02*
X142074000Y-98031500I0J-100000D01*
G01*
X142074000Y-99306500D01*
G75*
G02*
X141974000Y-99406500I-100000J0D01*
G01*
G37*
G36*
G01*
X142624000Y-99406500D02*
X142424000Y-99406500D01*
G75*
G02*
X142324000Y-99306500I0J100000D01*
G01*
X142324000Y-98031500D01*
G75*
G02*
X142424000Y-97931500I100000J0D01*
G01*
X142624000Y-97931500D01*
G75*
G02*
X142724000Y-98031500I0J-100000D01*
G01*
X142724000Y-99306500D01*
G75*
G02*
X142624000Y-99406500I-100000J0D01*
G01*
G37*
G36*
G01*
X143274000Y-99406500D02*
X143074000Y-99406500D01*
G75*
G02*
X142974000Y-99306500I0J100000D01*
G01*
X142974000Y-98031500D01*
G75*
G02*
X143074000Y-97931500I100000J0D01*
G01*
X143274000Y-97931500D01*
G75*
G02*
X143374000Y-98031500I0J-100000D01*
G01*
X143374000Y-99306500D01*
G75*
G02*
X143274000Y-99406500I-100000J0D01*
G01*
G37*
G36*
G01*
X143274000Y-105131500D02*
X143074000Y-105131500D01*
G75*
G02*
X142974000Y-105031500I0J100000D01*
G01*
X142974000Y-103756500D01*
G75*
G02*
X143074000Y-103656500I100000J0D01*
G01*
X143274000Y-103656500D01*
G75*
G02*
X143374000Y-103756500I0J-100000D01*
G01*
X143374000Y-105031500D01*
G75*
G02*
X143274000Y-105131500I-100000J0D01*
G01*
G37*
G36*
G01*
X142624000Y-105131500D02*
X142424000Y-105131500D01*
G75*
G02*
X142324000Y-105031500I0J100000D01*
G01*
X142324000Y-103756500D01*
G75*
G02*
X142424000Y-103656500I100000J0D01*
G01*
X142624000Y-103656500D01*
G75*
G02*
X142724000Y-103756500I0J-100000D01*
G01*
X142724000Y-105031500D01*
G75*
G02*
X142624000Y-105131500I-100000J0D01*
G01*
G37*
G36*
G01*
X141974000Y-105131500D02*
X141774000Y-105131500D01*
G75*
G02*
X141674000Y-105031500I0J100000D01*
G01*
X141674000Y-103756500D01*
G75*
G02*
X141774000Y-103656500I100000J0D01*
G01*
X141974000Y-103656500D01*
G75*
G02*
X142074000Y-103756500I0J-100000D01*
G01*
X142074000Y-105031500D01*
G75*
G02*
X141974000Y-105131500I-100000J0D01*
G01*
G37*
G36*
G01*
X141324000Y-105131500D02*
X141124000Y-105131500D01*
G75*
G02*
X141024000Y-105031500I0J100000D01*
G01*
X141024000Y-103756500D01*
G75*
G02*
X141124000Y-103656500I100000J0D01*
G01*
X141324000Y-103656500D01*
G75*
G02*
X141424000Y-103756500I0J-100000D01*
G01*
X141424000Y-105031500D01*
G75*
G02*
X141324000Y-105131500I-100000J0D01*
G01*
G37*
G36*
G01*
X140674000Y-105131500D02*
X140474000Y-105131500D01*
G75*
G02*
X140374000Y-105031500I0J100000D01*
G01*
X140374000Y-103756500D01*
G75*
G02*
X140474000Y-103656500I100000J0D01*
G01*
X140674000Y-103656500D01*
G75*
G02*
X140774000Y-103756500I0J-100000D01*
G01*
X140774000Y-105031500D01*
G75*
G02*
X140674000Y-105131500I-100000J0D01*
G01*
G37*
G36*
G01*
X140024000Y-105131500D02*
X139824000Y-105131500D01*
G75*
G02*
X139724000Y-105031500I0J100000D01*
G01*
X139724000Y-103756500D01*
G75*
G02*
X139824000Y-103656500I100000J0D01*
G01*
X140024000Y-103656500D01*
G75*
G02*
X140124000Y-103756500I0J-100000D01*
G01*
X140124000Y-105031500D01*
G75*
G02*
X140024000Y-105131500I-100000J0D01*
G01*
G37*
G36*
G01*
X139374000Y-105131500D02*
X139174000Y-105131500D01*
G75*
G02*
X139074000Y-105031500I0J100000D01*
G01*
X139074000Y-103756500D01*
G75*
G02*
X139174000Y-103656500I100000J0D01*
G01*
X139374000Y-103656500D01*
G75*
G02*
X139474000Y-103756500I0J-100000D01*
G01*
X139474000Y-105031500D01*
G75*
G02*
X139374000Y-105131500I-100000J0D01*
G01*
G37*
D14*
X144526000Y-95630000D03*
X144526000Y-92330000D03*
X139192000Y-95630000D03*
X139192000Y-92330000D03*
X141859000Y-95630000D03*
X141859000Y-92330000D03*
D15*
X178181000Y-124714000D03*
X175641000Y-124714000D03*
X173101000Y-124714000D03*
X170561000Y-124714000D03*
X168021000Y-124714000D03*
X142621000Y-124714000D03*
X148717000Y-76454000D03*
X146177000Y-76454000D03*
X143637000Y-76454000D03*
X138557000Y-76454000D03*
X136017000Y-76454000D03*
X133477000Y-76454000D03*
X151257000Y-76454000D03*
X153797000Y-76454000D03*
X156337000Y-76454000D03*
X141097000Y-76454000D03*
X160401000Y-76454000D03*
X162941000Y-76454000D03*
X165481000Y-76454000D03*
X168021000Y-76454000D03*
X170561000Y-76454000D03*
X173101000Y-76454000D03*
X175641000Y-76454000D03*
X178181000Y-76454000D03*
X145161000Y-124714000D03*
X147701000Y-124714000D03*
X150241000Y-124714000D03*
X152781000Y-124714000D03*
X155321000Y-124714000D03*
X157861000Y-124714000D03*
X160401000Y-124714000D03*
X165481000Y-124714000D03*
D16*
X177625000Y-89415000D03*
X177625000Y-87115000D03*
D17*
X172125000Y-88265000D03*
D18*
X149606000Y-120523000D03*
D19*
X152146000Y-120523000D03*
D18*
X175641000Y-80899000D03*
D19*
X173101000Y-80899000D03*
D20*
X173355000Y-96520000D03*
X173355000Y-99060000D03*
X170815000Y-96520000D03*
X170815000Y-99060000D03*
X168275000Y-96520000D03*
X168275000Y-99060000D03*
X165735000Y-96520000D03*
X165735000Y-99060000D03*
X163195000Y-96520000D03*
X163195000Y-99060000D03*
X160655000Y-96520000D03*
X160655000Y-99060000D03*
X158115000Y-96520000D03*
X158115000Y-99060000D03*
X155575000Y-96520000D03*
X155575000Y-99060000D03*
G36*
G01*
X155713000Y-120760500D02*
X155713000Y-120285500D01*
G75*
G02*
X155950500Y-120048000I237500J0D01*
G01*
X156525500Y-120048000D01*
G75*
G02*
X156763000Y-120285500I0J-237500D01*
G01*
X156763000Y-120760500D01*
G75*
G02*
X156525500Y-120998000I-237500J0D01*
G01*
X155950500Y-120998000D01*
G75*
G02*
X155713000Y-120760500I0J237500D01*
G01*
G37*
G36*
G01*
X157463000Y-120760500D02*
X157463000Y-120285500D01*
G75*
G02*
X157700500Y-120048000I237500J0D01*
G01*
X158275500Y-120048000D01*
G75*
G02*
X158513000Y-120285500I0J-237500D01*
G01*
X158513000Y-120760500D01*
G75*
G02*
X158275500Y-120998000I-237500J0D01*
G01*
X157700500Y-120998000D01*
G75*
G02*
X157463000Y-120760500I0J237500D01*
G01*
G37*
M02*
