G04 #@! TF.GenerationSoftware,KiCad,Pcbnew,(5.1.6)-1*
G04 #@! TF.CreationDate,2021-02-02T01:52:48+01:00*
G04 #@! TF.ProjectId,Thermolino2,54686572-6d6f-46c6-996e-6f322e6b6963,C*
G04 #@! TF.SameCoordinates,Original*
G04 #@! TF.FileFunction,Legend,Top*
G04 #@! TF.FilePolarity,Positive*
%FSLAX46Y46*%
G04 Gerber Fmt 4.6, Leading zero omitted, Abs format (unit mm)*
G04 Created by KiCad (PCBNEW (5.1.6)-1) date 2021-02-02 01:52:48*
%MOMM*%
%LPD*%
G01*
G04 APERTURE LIST*
%ADD10C,0.152400*%
%ADD11C,0.300000*%
%ADD12C,0.010000*%
%ADD13C,0.120000*%
%ADD14C,0.150000*%
%ADD15C,2.000000*%
%ADD16R,1.200000X0.900000*%
%ADD17O,1.727200X1.727200*%
%ADD18R,1.300000X1.300000*%
%ADD19R,1.300000X2.000000*%
%ADD20R,1.700000X1.700000*%
%ADD21O,1.700000X1.700000*%
%ADD22C,1.524000*%
G04 APERTURE END LIST*
D10*
X165659404Y-120464942D02*
X165930338Y-120464942D01*
X166046452Y-120890695D02*
X165659404Y-120890695D01*
X165659404Y-120077895D01*
X166046452Y-120077895D01*
X166510909Y-120890695D02*
X166433500Y-120851990D01*
X166394795Y-120774580D01*
X166394795Y-120077895D01*
X167168890Y-120851990D02*
X167091480Y-120890695D01*
X166936661Y-120890695D01*
X166859252Y-120851990D01*
X166820547Y-120813285D01*
X166781842Y-120735876D01*
X166781842Y-120503647D01*
X166820547Y-120426238D01*
X166859252Y-120387533D01*
X166936661Y-120348828D01*
X167091480Y-120348828D01*
X167168890Y-120387533D01*
X167517233Y-120890695D02*
X167517233Y-120077895D01*
X167865576Y-120890695D02*
X167865576Y-120464942D01*
X167826871Y-120387533D01*
X167749461Y-120348828D01*
X167633347Y-120348828D01*
X167555938Y-120387533D01*
X167517233Y-120426238D01*
X168175214Y-120348828D02*
X168330033Y-120890695D01*
X168484852Y-120503647D01*
X168639671Y-120890695D01*
X168794490Y-120348828D01*
X169220242Y-120890695D02*
X169142833Y-120851990D01*
X169104128Y-120813285D01*
X169065423Y-120735876D01*
X169065423Y-120503647D01*
X169104128Y-120426238D01*
X169142833Y-120387533D01*
X169220242Y-120348828D01*
X169336357Y-120348828D01*
X169413766Y-120387533D01*
X169452471Y-120426238D01*
X169491176Y-120503647D01*
X169491176Y-120735876D01*
X169452471Y-120813285D01*
X169413766Y-120851990D01*
X169336357Y-120890695D01*
X169220242Y-120890695D01*
X169839519Y-120890695D02*
X169839519Y-120348828D01*
X169839519Y-120503647D02*
X169878223Y-120426238D01*
X169916928Y-120387533D01*
X169994338Y-120348828D01*
X170071747Y-120348828D01*
X170342680Y-120890695D02*
X170342680Y-120077895D01*
X170420090Y-120581057D02*
X170652319Y-120890695D01*
X170652319Y-120348828D02*
X170342680Y-120658466D01*
X170961957Y-120851990D02*
X171039366Y-120890695D01*
X171194185Y-120890695D01*
X171271595Y-120851990D01*
X171310300Y-120774580D01*
X171310300Y-120735876D01*
X171271595Y-120658466D01*
X171194185Y-120619761D01*
X171078071Y-120619761D01*
X171000661Y-120581057D01*
X170961957Y-120503647D01*
X170961957Y-120464942D01*
X171000661Y-120387533D01*
X171078071Y-120348828D01*
X171194185Y-120348828D01*
X171271595Y-120387533D01*
D11*
X142343357Y-119892071D02*
X143200500Y-119892071D01*
X142771928Y-121392071D02*
X142771928Y-119892071D01*
X143700500Y-120820642D02*
X144843357Y-120820642D01*
X144271928Y-121392071D02*
X144271928Y-120249214D01*
X137009357Y-119892071D02*
X137866500Y-119892071D01*
X137437928Y-121392071D02*
X137437928Y-119892071D01*
X138366500Y-120820642D02*
X139509357Y-120820642D01*
X161751214Y-117479071D02*
X162608357Y-117479071D01*
X162179785Y-118979071D02*
X162179785Y-117479071D01*
X163108357Y-118979071D02*
X163108357Y-117479071D01*
X163751214Y-118979071D02*
X163751214Y-118193357D01*
X163679785Y-118050500D01*
X163536928Y-117979071D01*
X163322642Y-117979071D01*
X163179785Y-118050500D01*
X163108357Y-118121928D01*
X165036928Y-118907642D02*
X164894071Y-118979071D01*
X164608357Y-118979071D01*
X164465500Y-118907642D01*
X164394071Y-118764785D01*
X164394071Y-118193357D01*
X164465500Y-118050500D01*
X164608357Y-117979071D01*
X164894071Y-117979071D01*
X165036928Y-118050500D01*
X165108357Y-118193357D01*
X165108357Y-118336214D01*
X164394071Y-118479071D01*
X165751214Y-118979071D02*
X165751214Y-117979071D01*
X165751214Y-118264785D02*
X165822642Y-118121928D01*
X165894071Y-118050500D01*
X166036928Y-117979071D01*
X166179785Y-117979071D01*
X166679785Y-118979071D02*
X166679785Y-117979071D01*
X166679785Y-118121928D02*
X166751214Y-118050500D01*
X166894071Y-117979071D01*
X167108357Y-117979071D01*
X167251214Y-118050500D01*
X167322642Y-118193357D01*
X167322642Y-118979071D01*
X167322642Y-118193357D02*
X167394071Y-118050500D01*
X167536928Y-117979071D01*
X167751214Y-117979071D01*
X167894071Y-118050500D01*
X167965500Y-118193357D01*
X167965500Y-118979071D01*
X168894071Y-118979071D02*
X168751214Y-118907642D01*
X168679785Y-118836214D01*
X168608357Y-118693357D01*
X168608357Y-118264785D01*
X168679785Y-118121928D01*
X168751214Y-118050500D01*
X168894071Y-117979071D01*
X169108357Y-117979071D01*
X169251214Y-118050500D01*
X169322642Y-118121928D01*
X169394071Y-118264785D01*
X169394071Y-118693357D01*
X169322642Y-118836214D01*
X169251214Y-118907642D01*
X169108357Y-118979071D01*
X168894071Y-118979071D01*
X170251214Y-118979071D02*
X170108357Y-118907642D01*
X170036928Y-118764785D01*
X170036928Y-117479071D01*
X170822642Y-118979071D02*
X170822642Y-117979071D01*
X170822642Y-117479071D02*
X170751214Y-117550500D01*
X170822642Y-117621928D01*
X170894071Y-117550500D01*
X170822642Y-117479071D01*
X170822642Y-117621928D01*
X171536928Y-117979071D02*
X171536928Y-118979071D01*
X171536928Y-118121928D02*
X171608357Y-118050500D01*
X171751214Y-117979071D01*
X171965500Y-117979071D01*
X172108357Y-118050500D01*
X172179785Y-118193357D01*
X172179785Y-118979071D01*
X173108357Y-118979071D02*
X172965500Y-118907642D01*
X172894071Y-118836214D01*
X172822642Y-118693357D01*
X172822642Y-118264785D01*
X172894071Y-118121928D01*
X172965500Y-118050500D01*
X173108357Y-117979071D01*
X173322642Y-117979071D01*
X173465500Y-118050500D01*
X173536928Y-118121928D01*
X173608357Y-118264785D01*
X173608357Y-118693357D01*
X173536928Y-118836214D01*
X173465500Y-118907642D01*
X173322642Y-118979071D01*
X173108357Y-118979071D01*
X174179785Y-117621928D02*
X174251214Y-117550500D01*
X174394071Y-117479071D01*
X174751214Y-117479071D01*
X174894071Y-117550500D01*
X174965500Y-117621928D01*
X175036928Y-117764785D01*
X175036928Y-117907642D01*
X174965500Y-118121928D01*
X174108357Y-118979071D01*
X175036928Y-118979071D01*
D12*
G36*
X170505045Y-111170520D02*
G01*
X170554631Y-111224319D01*
X170582785Y-111269829D01*
X170595553Y-111324688D01*
X170598985Y-111406532D01*
X170599100Y-111444766D01*
X170597620Y-111539765D01*
X170589082Y-111601327D01*
X170567341Y-111646808D01*
X170526250Y-111693564D01*
X170502779Y-111716745D01*
X170406458Y-111810800D01*
X169949009Y-111810800D01*
X169854954Y-111714479D01*
X169805368Y-111660680D01*
X169777214Y-111615170D01*
X169764446Y-111560311D01*
X169761014Y-111478467D01*
X169760907Y-111442500D01*
X169964100Y-111442500D01*
X169973393Y-111508269D01*
X169994580Y-111551720D01*
X170038383Y-111569516D01*
X170114063Y-111579374D01*
X170203319Y-111581294D01*
X170287852Y-111575277D01*
X170349362Y-111561321D01*
X170365420Y-111551719D01*
X170387281Y-111505849D01*
X170395900Y-111442500D01*
X170386924Y-111373169D01*
X170354233Y-111330505D01*
X170289184Y-111308914D01*
X170183132Y-111302802D01*
X170180000Y-111302800D01*
X170072853Y-111308607D01*
X170006918Y-111329760D01*
X169973549Y-111371851D01*
X169964104Y-111440473D01*
X169964100Y-111442500D01*
X169760907Y-111442500D01*
X169760900Y-111440233D01*
X169762379Y-111345234D01*
X169770917Y-111283672D01*
X169792658Y-111238191D01*
X169833749Y-111191435D01*
X169857220Y-111168254D01*
X169953541Y-111074200D01*
X170410990Y-111074200D01*
X170505045Y-111170520D01*
G37*
X170505045Y-111170520D02*
X170554631Y-111224319D01*
X170582785Y-111269829D01*
X170595553Y-111324688D01*
X170598985Y-111406532D01*
X170599100Y-111444766D01*
X170597620Y-111539765D01*
X170589082Y-111601327D01*
X170567341Y-111646808D01*
X170526250Y-111693564D01*
X170502779Y-111716745D01*
X170406458Y-111810800D01*
X169949009Y-111810800D01*
X169854954Y-111714479D01*
X169805368Y-111660680D01*
X169777214Y-111615170D01*
X169764446Y-111560311D01*
X169761014Y-111478467D01*
X169760907Y-111442500D01*
X169964100Y-111442500D01*
X169973393Y-111508269D01*
X169994580Y-111551720D01*
X170038383Y-111569516D01*
X170114063Y-111579374D01*
X170203319Y-111581294D01*
X170287852Y-111575277D01*
X170349362Y-111561321D01*
X170365420Y-111551719D01*
X170387281Y-111505849D01*
X170395900Y-111442500D01*
X170386924Y-111373169D01*
X170354233Y-111330505D01*
X170289184Y-111308914D01*
X170183132Y-111302802D01*
X170180000Y-111302800D01*
X170072853Y-111308607D01*
X170006918Y-111329760D01*
X169973549Y-111371851D01*
X169964104Y-111440473D01*
X169964100Y-111442500D01*
X169760907Y-111442500D01*
X169760900Y-111440233D01*
X169762379Y-111345234D01*
X169770917Y-111283672D01*
X169792658Y-111238191D01*
X169833749Y-111191435D01*
X169857220Y-111168254D01*
X169953541Y-111074200D01*
X170410990Y-111074200D01*
X170505045Y-111170520D01*
G36*
X167076045Y-111170520D02*
G01*
X167125631Y-111224319D01*
X167153785Y-111269829D01*
X167166553Y-111324688D01*
X167169985Y-111406532D01*
X167170100Y-111444766D01*
X167168620Y-111539765D01*
X167160082Y-111601327D01*
X167138341Y-111646808D01*
X167097250Y-111693564D01*
X167073779Y-111716745D01*
X166977458Y-111810800D01*
X166520009Y-111810800D01*
X166425954Y-111714479D01*
X166376368Y-111660680D01*
X166348214Y-111615170D01*
X166335446Y-111560311D01*
X166332014Y-111478467D01*
X166331907Y-111442500D01*
X166535100Y-111442500D01*
X166544393Y-111508269D01*
X166565580Y-111551720D01*
X166609383Y-111569516D01*
X166685063Y-111579374D01*
X166774319Y-111581294D01*
X166858852Y-111575277D01*
X166920362Y-111561321D01*
X166936420Y-111551719D01*
X166958281Y-111505849D01*
X166966900Y-111442500D01*
X166957924Y-111373169D01*
X166925233Y-111330505D01*
X166860184Y-111308914D01*
X166754132Y-111302802D01*
X166751000Y-111302800D01*
X166643853Y-111308607D01*
X166577918Y-111329760D01*
X166544549Y-111371851D01*
X166535104Y-111440473D01*
X166535100Y-111442500D01*
X166331907Y-111442500D01*
X166331900Y-111440233D01*
X166333379Y-111345234D01*
X166341917Y-111283672D01*
X166363658Y-111238191D01*
X166404749Y-111191435D01*
X166428220Y-111168254D01*
X166524541Y-111074200D01*
X166981990Y-111074200D01*
X167076045Y-111170520D01*
G37*
X167076045Y-111170520D02*
X167125631Y-111224319D01*
X167153785Y-111269829D01*
X167166553Y-111324688D01*
X167169985Y-111406532D01*
X167170100Y-111444766D01*
X167168620Y-111539765D01*
X167160082Y-111601327D01*
X167138341Y-111646808D01*
X167097250Y-111693564D01*
X167073779Y-111716745D01*
X166977458Y-111810800D01*
X166520009Y-111810800D01*
X166425954Y-111714479D01*
X166376368Y-111660680D01*
X166348214Y-111615170D01*
X166335446Y-111560311D01*
X166332014Y-111478467D01*
X166331907Y-111442500D01*
X166535100Y-111442500D01*
X166544393Y-111508269D01*
X166565580Y-111551720D01*
X166609383Y-111569516D01*
X166685063Y-111579374D01*
X166774319Y-111581294D01*
X166858852Y-111575277D01*
X166920362Y-111561321D01*
X166936420Y-111551719D01*
X166958281Y-111505849D01*
X166966900Y-111442500D01*
X166957924Y-111373169D01*
X166925233Y-111330505D01*
X166860184Y-111308914D01*
X166754132Y-111302802D01*
X166751000Y-111302800D01*
X166643853Y-111308607D01*
X166577918Y-111329760D01*
X166544549Y-111371851D01*
X166535104Y-111440473D01*
X166535100Y-111442500D01*
X166331907Y-111442500D01*
X166331900Y-111440233D01*
X166333379Y-111345234D01*
X166341917Y-111283672D01*
X166363658Y-111238191D01*
X166404749Y-111191435D01*
X166428220Y-111168254D01*
X166524541Y-111074200D01*
X166981990Y-111074200D01*
X167076045Y-111170520D01*
G36*
X163391347Y-105326920D02*
G01*
X163614100Y-105548640D01*
X163614100Y-108915200D01*
X164172900Y-108915200D01*
X164172900Y-107612180D01*
X164173207Y-107301317D01*
X164174177Y-107038204D01*
X164175879Y-106819794D01*
X164178382Y-106643040D01*
X164181757Y-106504895D01*
X164186072Y-106402312D01*
X164191397Y-106332245D01*
X164197803Y-106291645D01*
X164203379Y-106278680D01*
X164246681Y-106262339D01*
X164334320Y-106251938D01*
X164460103Y-106248201D01*
X164463227Y-106248200D01*
X164692595Y-106248200D01*
X164915347Y-106469920D01*
X165138100Y-106691640D01*
X165138100Y-108915200D01*
X165696900Y-108915200D01*
X165696900Y-108183680D01*
X165697553Y-107951563D01*
X165699609Y-107766587D01*
X165703215Y-107625108D01*
X165708516Y-107523483D01*
X165715657Y-107458067D01*
X165724785Y-107425216D01*
X165727379Y-107421680D01*
X165770695Y-107405347D01*
X165858457Y-107394951D01*
X165984584Y-107391202D01*
X165988259Y-107391200D01*
X166218659Y-107391200D01*
X166440379Y-107613952D01*
X166662100Y-107836704D01*
X166662100Y-108915200D01*
X170268900Y-108915200D01*
X170268900Y-107836704D01*
X170712340Y-107391200D01*
X170942740Y-107391200D01*
X171069768Y-107394769D01*
X171158587Y-107405004D01*
X171203115Y-107421194D01*
X171203620Y-107421680D01*
X171213264Y-107446999D01*
X171220885Y-107503978D01*
X171226630Y-107596261D01*
X171230644Y-107727491D01*
X171233072Y-107901312D01*
X171234060Y-108121368D01*
X171234100Y-108183680D01*
X171234100Y-108915200D01*
X171792900Y-108915200D01*
X171792900Y-106691640D01*
X172238404Y-106248200D01*
X172467772Y-106248200D01*
X172594319Y-106251782D01*
X172682856Y-106262046D01*
X172727191Y-106278265D01*
X172727620Y-106278680D01*
X172734884Y-106299105D01*
X172741016Y-106346705D01*
X172746085Y-106424527D01*
X172750161Y-106535617D01*
X172753314Y-106683022D01*
X172755612Y-106869790D01*
X172757127Y-107098967D01*
X172757927Y-107373599D01*
X172758100Y-107612180D01*
X172758100Y-108915200D01*
X173316900Y-108915200D01*
X173316900Y-105548640D01*
X173762404Y-105105200D01*
X173991772Y-105105200D01*
X174118319Y-105108782D01*
X174206856Y-105119046D01*
X174251191Y-105135265D01*
X174251620Y-105135680D01*
X174257408Y-105153536D01*
X174262485Y-105196456D01*
X174266887Y-105266935D01*
X174270648Y-105367471D01*
X174273805Y-105500558D01*
X174276395Y-105668692D01*
X174278453Y-105874371D01*
X174280014Y-106120090D01*
X174281116Y-106408345D01*
X174281793Y-106741632D01*
X174282083Y-107122448D01*
X174282100Y-107250644D01*
X174282100Y-109335128D01*
X173995952Y-109620464D01*
X173709805Y-109905800D01*
X173074726Y-109905799D01*
X172439646Y-109905799D01*
X172186600Y-110159799D01*
X171933553Y-110413799D01*
X170674661Y-110413799D01*
X170763880Y-110590965D01*
X170853100Y-110768131D01*
X170853100Y-112123181D01*
X170218100Y-113329667D01*
X169583100Y-114536154D01*
X169583100Y-116066128D01*
X169296952Y-116351464D01*
X169010805Y-116636800D01*
X167918571Y-116636800D01*
X167633235Y-116350652D01*
X167347900Y-116064505D01*
X167347900Y-114536154D01*
X166712900Y-113329667D01*
X166077900Y-112123181D01*
X166077900Y-110921800D01*
X166281100Y-110921800D01*
X166281100Y-112031845D01*
X166916100Y-113238332D01*
X167551100Y-114444818D01*
X167551100Y-114740709D01*
X167551773Y-114856515D01*
X167553605Y-114951069D01*
X167556313Y-115014408D01*
X167559494Y-115036600D01*
X167577630Y-115017804D01*
X167615432Y-114969411D01*
X167648394Y-114924497D01*
X167728900Y-114812395D01*
X167728900Y-111995955D01*
X167430461Y-111458877D01*
X167132023Y-110921800D01*
X166281100Y-110921800D01*
X166077900Y-110921800D01*
X166077900Y-110768131D01*
X166115634Y-110693200D01*
X166357408Y-110693200D01*
X167242840Y-110693200D01*
X167291092Y-110763050D01*
X167316803Y-110804637D01*
X167362871Y-110883582D01*
X167425214Y-110992708D01*
X167499749Y-111124838D01*
X167582395Y-111272794D01*
X167635722Y-111368972D01*
X167932100Y-111905045D01*
X167932100Y-114926302D01*
X167742253Y-115178301D01*
X167552407Y-115430300D01*
X167551753Y-115701850D01*
X167553744Y-115819067D01*
X167559740Y-115912721D01*
X167568868Y-115972685D01*
X167576500Y-115989100D01*
X167591559Y-115975832D01*
X167600218Y-115917627D01*
X167601072Y-115887500D01*
X167805100Y-115887500D01*
X167818833Y-115967597D01*
X167864319Y-116012168D01*
X167947989Y-116027107D01*
X167957500Y-116027200D01*
X168027099Y-116019197D01*
X168076083Y-115999638D01*
X168079420Y-115996720D01*
X168101281Y-115950849D01*
X168109900Y-115887500D01*
X168096166Y-115807402D01*
X168050680Y-115762831D01*
X167967010Y-115747892D01*
X167957500Y-115747800D01*
X167870121Y-115760388D01*
X167821498Y-115802084D01*
X167805200Y-115878782D01*
X167805100Y-115887500D01*
X167601072Y-115887500D01*
X167601900Y-115858319D01*
X167604989Y-115770541D01*
X167619932Y-115711485D01*
X167655237Y-115659188D01*
X167695954Y-115615520D01*
X167750352Y-115563176D01*
X167796349Y-115534323D01*
X167852702Y-115521995D01*
X167938168Y-115519222D01*
X167955233Y-115519200D01*
X168047429Y-115521254D01*
X168107951Y-115531993D01*
X168155894Y-115558285D01*
X168210352Y-115606996D01*
X168216779Y-115613254D01*
X168267425Y-115665443D01*
X168296239Y-115709350D01*
X168309368Y-115762330D01*
X168312958Y-115841739D01*
X168313100Y-115885233D01*
X168311505Y-115980670D01*
X168302688Y-116042957D01*
X168280600Y-116089731D01*
X168239194Y-116138627D01*
X168219045Y-116159479D01*
X168158660Y-116216232D01*
X168106692Y-116244878D01*
X168040277Y-116254851D01*
X167985693Y-116255800D01*
X167846395Y-116255800D01*
X167919400Y-116332000D01*
X167992404Y-116408200D01*
X168938595Y-116408200D01*
X169011600Y-116332000D01*
X169084604Y-116255800D01*
X168947573Y-116255800D01*
X168861692Y-116251916D01*
X168802502Y-116233843D01*
X168746095Y-116191945D01*
X168714220Y-116161745D01*
X168663574Y-116109556D01*
X168634760Y-116065649D01*
X168621631Y-116012669D01*
X168618041Y-115933260D01*
X168617900Y-115889766D01*
X168617937Y-115887500D01*
X168821100Y-115887500D01*
X168834833Y-115967597D01*
X168880319Y-116012168D01*
X168963989Y-116027107D01*
X168973500Y-116027200D01*
X169043099Y-116019197D01*
X169092083Y-115999638D01*
X169095420Y-115996720D01*
X169117281Y-115950849D01*
X169125900Y-115887500D01*
X169112166Y-115807402D01*
X169066680Y-115762831D01*
X168983010Y-115747892D01*
X168973500Y-115747800D01*
X168886121Y-115760388D01*
X168837498Y-115802084D01*
X168821200Y-115878782D01*
X168821100Y-115887500D01*
X168617937Y-115887500D01*
X168619494Y-115794329D01*
X168628311Y-115732042D01*
X168650399Y-115685268D01*
X168691805Y-115636372D01*
X168711954Y-115615520D01*
X168766352Y-115563176D01*
X168812349Y-115534323D01*
X168868702Y-115521995D01*
X168954168Y-115519222D01*
X168971233Y-115519200D01*
X169063429Y-115521254D01*
X169123951Y-115531993D01*
X169171894Y-115558285D01*
X169226352Y-115606996D01*
X169232779Y-115613254D01*
X169287740Y-115671160D01*
X169316524Y-115720599D01*
X169327504Y-115782685D01*
X169329100Y-115856053D01*
X169332960Y-115941445D01*
X169343845Y-115985461D01*
X169354500Y-115989100D01*
X169365274Y-115958139D01*
X169373515Y-115886533D01*
X169378350Y-115784409D01*
X169379246Y-115701850D01*
X169378592Y-115430300D01*
X168998900Y-114926302D01*
X168998900Y-111995955D01*
X169202100Y-111995955D01*
X169202100Y-114812395D01*
X169284650Y-114927554D01*
X169367200Y-115042714D01*
X169392600Y-114414300D01*
X170649900Y-112032132D01*
X170649900Y-110921800D01*
X169798976Y-110921800D01*
X169500538Y-111458877D01*
X169202100Y-111995955D01*
X168998900Y-111995955D01*
X168998900Y-111905045D01*
X169295277Y-111368972D01*
X169380894Y-111214825D01*
X169460921Y-111072071D01*
X169531278Y-110947887D01*
X169587881Y-110849451D01*
X169626650Y-110783938D01*
X169639907Y-110763049D01*
X169688159Y-110693199D01*
X170130875Y-110693200D01*
X170573591Y-110693200D01*
X170180144Y-109905800D01*
X170421851Y-109905800D01*
X170490367Y-110045500D01*
X170558882Y-110185200D01*
X171858135Y-110185200D01*
X171996100Y-110045500D01*
X172134064Y-109905800D01*
X170421851Y-109905800D01*
X170180144Y-109905800D01*
X169799387Y-109143800D01*
X170040603Y-109143800D01*
X170305881Y-109677200D01*
X173633395Y-109677200D01*
X173856147Y-109455479D01*
X174078900Y-109233759D01*
X174078900Y-105333800D01*
X173958933Y-105333800D01*
X173898643Y-105336181D01*
X173851116Y-105348102D01*
X173803688Y-105376725D01*
X173743694Y-105429211D01*
X173679533Y-105491816D01*
X173520100Y-105649832D01*
X173520100Y-107366336D01*
X173519878Y-107724602D01*
X173519183Y-108034788D01*
X173517967Y-108299613D01*
X173516182Y-108521796D01*
X173513781Y-108704055D01*
X173510716Y-108849109D01*
X173506940Y-108959677D01*
X173502406Y-109038476D01*
X173497066Y-109088227D01*
X173490873Y-109111646D01*
X173489619Y-109113320D01*
X173452626Y-109125318D01*
X173375499Y-109134519D01*
X173268828Y-109140924D01*
X173143200Y-109144532D01*
X173009206Y-109145343D01*
X172877435Y-109143358D01*
X172758475Y-109138576D01*
X172662915Y-109130997D01*
X172601346Y-109120622D01*
X172585380Y-109113320D01*
X172578115Y-109092894D01*
X172571983Y-109045294D01*
X172566914Y-108967472D01*
X172562838Y-108856382D01*
X172559685Y-108708977D01*
X172557387Y-108522209D01*
X172555872Y-108293032D01*
X172555072Y-108018400D01*
X172554900Y-107779820D01*
X172554900Y-106476800D01*
X172434933Y-106476800D01*
X172374643Y-106479181D01*
X172327116Y-106491102D01*
X172279688Y-106519725D01*
X172219694Y-106572211D01*
X172155533Y-106634816D01*
X171996100Y-106792832D01*
X171996100Y-107937836D01*
X171995738Y-108228773D01*
X171994598Y-108472116D01*
X171992597Y-108671065D01*
X171989652Y-108828820D01*
X171985680Y-108948583D01*
X171980597Y-109033553D01*
X171974321Y-109086932D01*
X171966769Y-109111919D01*
X171965620Y-109113319D01*
X171928626Y-109125318D01*
X171851499Y-109134519D01*
X171744828Y-109140924D01*
X171619200Y-109144532D01*
X171485206Y-109145343D01*
X171353435Y-109143358D01*
X171234475Y-109138576D01*
X171138915Y-109130997D01*
X171077346Y-109120622D01*
X171061380Y-109113320D01*
X171051735Y-109088000D01*
X171044114Y-109031021D01*
X171038369Y-108938738D01*
X171034355Y-108807508D01*
X171031927Y-108633687D01*
X171030939Y-108413631D01*
X171030900Y-108351320D01*
X171030900Y-107619800D01*
X170910933Y-107619800D01*
X170850643Y-107622181D01*
X170803116Y-107634102D01*
X170755688Y-107662725D01*
X170695694Y-107715211D01*
X170631533Y-107777816D01*
X170472100Y-107935832D01*
X170472100Y-108509336D01*
X170471170Y-108715645D01*
X170468258Y-108874879D01*
X170463178Y-108990732D01*
X170455741Y-109066896D01*
X170445763Y-109107064D01*
X170441620Y-109113319D01*
X170399291Y-109129915D01*
X170318179Y-109140605D01*
X170225871Y-109143800D01*
X170040603Y-109143800D01*
X169799387Y-109143800D01*
X167131612Y-109143800D01*
X166357408Y-110693200D01*
X166115634Y-110693200D01*
X166256338Y-110413799D01*
X164997446Y-110413799D01*
X164744399Y-110159799D01*
X164491354Y-109905800D01*
X164796935Y-109905800D01*
X164934900Y-110045500D01*
X165072864Y-110185200D01*
X166372117Y-110185200D01*
X166440632Y-110045500D01*
X166509148Y-109905800D01*
X164796935Y-109905800D01*
X164491354Y-109905800D01*
X164491353Y-109905799D01*
X163855462Y-109905799D01*
X163219571Y-109905800D01*
X162934235Y-109619652D01*
X162648900Y-109333505D01*
X162648900Y-107249832D01*
X162649076Y-106853843D01*
X162649630Y-106506157D01*
X162650596Y-106204277D01*
X162652012Y-105945706D01*
X162653913Y-105727947D01*
X162656335Y-105548505D01*
X162659313Y-105404882D01*
X162661614Y-105333800D01*
X162852100Y-105333800D01*
X162852100Y-109231695D01*
X163073820Y-109454447D01*
X163295540Y-109677200D01*
X166625118Y-109677200D01*
X166890396Y-109143800D01*
X166705128Y-109143800D01*
X166600022Y-109139566D01*
X166523459Y-109127980D01*
X166489380Y-109113320D01*
X166478450Y-109084885D01*
X166470135Y-109021716D01*
X166464247Y-108920121D01*
X166460600Y-108776407D01*
X166459007Y-108586883D01*
X166458900Y-108510753D01*
X166458899Y-107938666D01*
X166300883Y-107779233D01*
X166223066Y-107702438D01*
X166167579Y-107655302D01*
X166121800Y-107630623D01*
X166073106Y-107621198D01*
X166021483Y-107619800D01*
X165900100Y-107619800D01*
X165900100Y-108351320D01*
X165899446Y-108583436D01*
X165897390Y-108768412D01*
X165893784Y-108909891D01*
X165888483Y-109011516D01*
X165881342Y-109076932D01*
X165872214Y-109109783D01*
X165869619Y-109113320D01*
X165832626Y-109125318D01*
X165755499Y-109134519D01*
X165648828Y-109140924D01*
X165523200Y-109144532D01*
X165389206Y-109145343D01*
X165257435Y-109143358D01*
X165138475Y-109138576D01*
X165042915Y-109130997D01*
X164981346Y-109120622D01*
X164965379Y-109113319D01*
X164957640Y-109091996D01*
X164951189Y-109042717D01*
X164945945Y-108962279D01*
X164941823Y-108847480D01*
X164938742Y-108695119D01*
X164936617Y-108501992D01*
X164935366Y-108264899D01*
X164934906Y-107980638D01*
X164934899Y-107939253D01*
X164934899Y-106795666D01*
X164776883Y-106636233D01*
X164699066Y-106559438D01*
X164643579Y-106512302D01*
X164597800Y-106487623D01*
X164549106Y-106478198D01*
X164497483Y-106476799D01*
X164376100Y-106476800D01*
X164376100Y-107779819D01*
X164375792Y-108090682D01*
X164374822Y-108353795D01*
X164373120Y-108572205D01*
X164370617Y-108748959D01*
X164367242Y-108887104D01*
X164362927Y-108989687D01*
X164357602Y-109059754D01*
X164351196Y-109100354D01*
X164345620Y-109113319D01*
X164308626Y-109125318D01*
X164231499Y-109134519D01*
X164124828Y-109140924D01*
X163999200Y-109144532D01*
X163865206Y-109145343D01*
X163733435Y-109143358D01*
X163614475Y-109138576D01*
X163518915Y-109130997D01*
X163457346Y-109120622D01*
X163441379Y-109113320D01*
X163435019Y-109094505D01*
X163429522Y-109049863D01*
X163424840Y-108976674D01*
X163420925Y-108872218D01*
X163417732Y-108733777D01*
X163415211Y-108558630D01*
X163413315Y-108344057D01*
X163411998Y-108087340D01*
X163411211Y-107785759D01*
X163410907Y-107436593D01*
X163410900Y-107367753D01*
X163410899Y-105652666D01*
X163252883Y-105493233D01*
X163175066Y-105416438D01*
X163119579Y-105369302D01*
X163073800Y-105344623D01*
X163025106Y-105335198D01*
X162973483Y-105333800D01*
X162852100Y-105333800D01*
X162661614Y-105333800D01*
X162662885Y-105294582D01*
X162667086Y-105215110D01*
X162671952Y-105163967D01*
X162677519Y-105138657D01*
X162679379Y-105135680D01*
X162722681Y-105119339D01*
X162810320Y-105108938D01*
X162936103Y-105105201D01*
X162939227Y-105105200D01*
X163168595Y-105105200D01*
X163391347Y-105326920D01*
G37*
X163391347Y-105326920D02*
X163614100Y-105548640D01*
X163614100Y-108915200D01*
X164172900Y-108915200D01*
X164172900Y-107612180D01*
X164173207Y-107301317D01*
X164174177Y-107038204D01*
X164175879Y-106819794D01*
X164178382Y-106643040D01*
X164181757Y-106504895D01*
X164186072Y-106402312D01*
X164191397Y-106332245D01*
X164197803Y-106291645D01*
X164203379Y-106278680D01*
X164246681Y-106262339D01*
X164334320Y-106251938D01*
X164460103Y-106248201D01*
X164463227Y-106248200D01*
X164692595Y-106248200D01*
X164915347Y-106469920D01*
X165138100Y-106691640D01*
X165138100Y-108915200D01*
X165696900Y-108915200D01*
X165696900Y-108183680D01*
X165697553Y-107951563D01*
X165699609Y-107766587D01*
X165703215Y-107625108D01*
X165708516Y-107523483D01*
X165715657Y-107458067D01*
X165724785Y-107425216D01*
X165727379Y-107421680D01*
X165770695Y-107405347D01*
X165858457Y-107394951D01*
X165984584Y-107391202D01*
X165988259Y-107391200D01*
X166218659Y-107391200D01*
X166440379Y-107613952D01*
X166662100Y-107836704D01*
X166662100Y-108915200D01*
X170268900Y-108915200D01*
X170268900Y-107836704D01*
X170712340Y-107391200D01*
X170942740Y-107391200D01*
X171069768Y-107394769D01*
X171158587Y-107405004D01*
X171203115Y-107421194D01*
X171203620Y-107421680D01*
X171213264Y-107446999D01*
X171220885Y-107503978D01*
X171226630Y-107596261D01*
X171230644Y-107727491D01*
X171233072Y-107901312D01*
X171234060Y-108121368D01*
X171234100Y-108183680D01*
X171234100Y-108915200D01*
X171792900Y-108915200D01*
X171792900Y-106691640D01*
X172238404Y-106248200D01*
X172467772Y-106248200D01*
X172594319Y-106251782D01*
X172682856Y-106262046D01*
X172727191Y-106278265D01*
X172727620Y-106278680D01*
X172734884Y-106299105D01*
X172741016Y-106346705D01*
X172746085Y-106424527D01*
X172750161Y-106535617D01*
X172753314Y-106683022D01*
X172755612Y-106869790D01*
X172757127Y-107098967D01*
X172757927Y-107373599D01*
X172758100Y-107612180D01*
X172758100Y-108915200D01*
X173316900Y-108915200D01*
X173316900Y-105548640D01*
X173762404Y-105105200D01*
X173991772Y-105105200D01*
X174118319Y-105108782D01*
X174206856Y-105119046D01*
X174251191Y-105135265D01*
X174251620Y-105135680D01*
X174257408Y-105153536D01*
X174262485Y-105196456D01*
X174266887Y-105266935D01*
X174270648Y-105367471D01*
X174273805Y-105500558D01*
X174276395Y-105668692D01*
X174278453Y-105874371D01*
X174280014Y-106120090D01*
X174281116Y-106408345D01*
X174281793Y-106741632D01*
X174282083Y-107122448D01*
X174282100Y-107250644D01*
X174282100Y-109335128D01*
X173995952Y-109620464D01*
X173709805Y-109905800D01*
X173074726Y-109905799D01*
X172439646Y-109905799D01*
X172186600Y-110159799D01*
X171933553Y-110413799D01*
X170674661Y-110413799D01*
X170763880Y-110590965D01*
X170853100Y-110768131D01*
X170853100Y-112123181D01*
X170218100Y-113329667D01*
X169583100Y-114536154D01*
X169583100Y-116066128D01*
X169296952Y-116351464D01*
X169010805Y-116636800D01*
X167918571Y-116636800D01*
X167633235Y-116350652D01*
X167347900Y-116064505D01*
X167347900Y-114536154D01*
X166712900Y-113329667D01*
X166077900Y-112123181D01*
X166077900Y-110921800D01*
X166281100Y-110921800D01*
X166281100Y-112031845D01*
X166916100Y-113238332D01*
X167551100Y-114444818D01*
X167551100Y-114740709D01*
X167551773Y-114856515D01*
X167553605Y-114951069D01*
X167556313Y-115014408D01*
X167559494Y-115036600D01*
X167577630Y-115017804D01*
X167615432Y-114969411D01*
X167648394Y-114924497D01*
X167728900Y-114812395D01*
X167728900Y-111995955D01*
X167430461Y-111458877D01*
X167132023Y-110921800D01*
X166281100Y-110921800D01*
X166077900Y-110921800D01*
X166077900Y-110768131D01*
X166115634Y-110693200D01*
X166357408Y-110693200D01*
X167242840Y-110693200D01*
X167291092Y-110763050D01*
X167316803Y-110804637D01*
X167362871Y-110883582D01*
X167425214Y-110992708D01*
X167499749Y-111124838D01*
X167582395Y-111272794D01*
X167635722Y-111368972D01*
X167932100Y-111905045D01*
X167932100Y-114926302D01*
X167742253Y-115178301D01*
X167552407Y-115430300D01*
X167551753Y-115701850D01*
X167553744Y-115819067D01*
X167559740Y-115912721D01*
X167568868Y-115972685D01*
X167576500Y-115989100D01*
X167591559Y-115975832D01*
X167600218Y-115917627D01*
X167601072Y-115887500D01*
X167805100Y-115887500D01*
X167818833Y-115967597D01*
X167864319Y-116012168D01*
X167947989Y-116027107D01*
X167957500Y-116027200D01*
X168027099Y-116019197D01*
X168076083Y-115999638D01*
X168079420Y-115996720D01*
X168101281Y-115950849D01*
X168109900Y-115887500D01*
X168096166Y-115807402D01*
X168050680Y-115762831D01*
X167967010Y-115747892D01*
X167957500Y-115747800D01*
X167870121Y-115760388D01*
X167821498Y-115802084D01*
X167805200Y-115878782D01*
X167805100Y-115887500D01*
X167601072Y-115887500D01*
X167601900Y-115858319D01*
X167604989Y-115770541D01*
X167619932Y-115711485D01*
X167655237Y-115659188D01*
X167695954Y-115615520D01*
X167750352Y-115563176D01*
X167796349Y-115534323D01*
X167852702Y-115521995D01*
X167938168Y-115519222D01*
X167955233Y-115519200D01*
X168047429Y-115521254D01*
X168107951Y-115531993D01*
X168155894Y-115558285D01*
X168210352Y-115606996D01*
X168216779Y-115613254D01*
X168267425Y-115665443D01*
X168296239Y-115709350D01*
X168309368Y-115762330D01*
X168312958Y-115841739D01*
X168313100Y-115885233D01*
X168311505Y-115980670D01*
X168302688Y-116042957D01*
X168280600Y-116089731D01*
X168239194Y-116138627D01*
X168219045Y-116159479D01*
X168158660Y-116216232D01*
X168106692Y-116244878D01*
X168040277Y-116254851D01*
X167985693Y-116255800D01*
X167846395Y-116255800D01*
X167919400Y-116332000D01*
X167992404Y-116408200D01*
X168938595Y-116408200D01*
X169011600Y-116332000D01*
X169084604Y-116255800D01*
X168947573Y-116255800D01*
X168861692Y-116251916D01*
X168802502Y-116233843D01*
X168746095Y-116191945D01*
X168714220Y-116161745D01*
X168663574Y-116109556D01*
X168634760Y-116065649D01*
X168621631Y-116012669D01*
X168618041Y-115933260D01*
X168617900Y-115889766D01*
X168617937Y-115887500D01*
X168821100Y-115887500D01*
X168834833Y-115967597D01*
X168880319Y-116012168D01*
X168963989Y-116027107D01*
X168973500Y-116027200D01*
X169043099Y-116019197D01*
X169092083Y-115999638D01*
X169095420Y-115996720D01*
X169117281Y-115950849D01*
X169125900Y-115887500D01*
X169112166Y-115807402D01*
X169066680Y-115762831D01*
X168983010Y-115747892D01*
X168973500Y-115747800D01*
X168886121Y-115760388D01*
X168837498Y-115802084D01*
X168821200Y-115878782D01*
X168821100Y-115887500D01*
X168617937Y-115887500D01*
X168619494Y-115794329D01*
X168628311Y-115732042D01*
X168650399Y-115685268D01*
X168691805Y-115636372D01*
X168711954Y-115615520D01*
X168766352Y-115563176D01*
X168812349Y-115534323D01*
X168868702Y-115521995D01*
X168954168Y-115519222D01*
X168971233Y-115519200D01*
X169063429Y-115521254D01*
X169123951Y-115531993D01*
X169171894Y-115558285D01*
X169226352Y-115606996D01*
X169232779Y-115613254D01*
X169287740Y-115671160D01*
X169316524Y-115720599D01*
X169327504Y-115782685D01*
X169329100Y-115856053D01*
X169332960Y-115941445D01*
X169343845Y-115985461D01*
X169354500Y-115989100D01*
X169365274Y-115958139D01*
X169373515Y-115886533D01*
X169378350Y-115784409D01*
X169379246Y-115701850D01*
X169378592Y-115430300D01*
X168998900Y-114926302D01*
X168998900Y-111995955D01*
X169202100Y-111995955D01*
X169202100Y-114812395D01*
X169284650Y-114927554D01*
X169367200Y-115042714D01*
X169392600Y-114414300D01*
X170649900Y-112032132D01*
X170649900Y-110921800D01*
X169798976Y-110921800D01*
X169500538Y-111458877D01*
X169202100Y-111995955D01*
X168998900Y-111995955D01*
X168998900Y-111905045D01*
X169295277Y-111368972D01*
X169380894Y-111214825D01*
X169460921Y-111072071D01*
X169531278Y-110947887D01*
X169587881Y-110849451D01*
X169626650Y-110783938D01*
X169639907Y-110763049D01*
X169688159Y-110693199D01*
X170130875Y-110693200D01*
X170573591Y-110693200D01*
X170180144Y-109905800D01*
X170421851Y-109905800D01*
X170490367Y-110045500D01*
X170558882Y-110185200D01*
X171858135Y-110185200D01*
X171996100Y-110045500D01*
X172134064Y-109905800D01*
X170421851Y-109905800D01*
X170180144Y-109905800D01*
X169799387Y-109143800D01*
X170040603Y-109143800D01*
X170305881Y-109677200D01*
X173633395Y-109677200D01*
X173856147Y-109455479D01*
X174078900Y-109233759D01*
X174078900Y-105333800D01*
X173958933Y-105333800D01*
X173898643Y-105336181D01*
X173851116Y-105348102D01*
X173803688Y-105376725D01*
X173743694Y-105429211D01*
X173679533Y-105491816D01*
X173520100Y-105649832D01*
X173520100Y-107366336D01*
X173519878Y-107724602D01*
X173519183Y-108034788D01*
X173517967Y-108299613D01*
X173516182Y-108521796D01*
X173513781Y-108704055D01*
X173510716Y-108849109D01*
X173506940Y-108959677D01*
X173502406Y-109038476D01*
X173497066Y-109088227D01*
X173490873Y-109111646D01*
X173489619Y-109113320D01*
X173452626Y-109125318D01*
X173375499Y-109134519D01*
X173268828Y-109140924D01*
X173143200Y-109144532D01*
X173009206Y-109145343D01*
X172877435Y-109143358D01*
X172758475Y-109138576D01*
X172662915Y-109130997D01*
X172601346Y-109120622D01*
X172585380Y-109113320D01*
X172578115Y-109092894D01*
X172571983Y-109045294D01*
X172566914Y-108967472D01*
X172562838Y-108856382D01*
X172559685Y-108708977D01*
X172557387Y-108522209D01*
X172555872Y-108293032D01*
X172555072Y-108018400D01*
X172554900Y-107779820D01*
X172554900Y-106476800D01*
X172434933Y-106476800D01*
X172374643Y-106479181D01*
X172327116Y-106491102D01*
X172279688Y-106519725D01*
X172219694Y-106572211D01*
X172155533Y-106634816D01*
X171996100Y-106792832D01*
X171996100Y-107937836D01*
X171995738Y-108228773D01*
X171994598Y-108472116D01*
X171992597Y-108671065D01*
X171989652Y-108828820D01*
X171985680Y-108948583D01*
X171980597Y-109033553D01*
X171974321Y-109086932D01*
X171966769Y-109111919D01*
X171965620Y-109113319D01*
X171928626Y-109125318D01*
X171851499Y-109134519D01*
X171744828Y-109140924D01*
X171619200Y-109144532D01*
X171485206Y-109145343D01*
X171353435Y-109143358D01*
X171234475Y-109138576D01*
X171138915Y-109130997D01*
X171077346Y-109120622D01*
X171061380Y-109113320D01*
X171051735Y-109088000D01*
X171044114Y-109031021D01*
X171038369Y-108938738D01*
X171034355Y-108807508D01*
X171031927Y-108633687D01*
X171030939Y-108413631D01*
X171030900Y-108351320D01*
X171030900Y-107619800D01*
X170910933Y-107619800D01*
X170850643Y-107622181D01*
X170803116Y-107634102D01*
X170755688Y-107662725D01*
X170695694Y-107715211D01*
X170631533Y-107777816D01*
X170472100Y-107935832D01*
X170472100Y-108509336D01*
X170471170Y-108715645D01*
X170468258Y-108874879D01*
X170463178Y-108990732D01*
X170455741Y-109066896D01*
X170445763Y-109107064D01*
X170441620Y-109113319D01*
X170399291Y-109129915D01*
X170318179Y-109140605D01*
X170225871Y-109143800D01*
X170040603Y-109143800D01*
X169799387Y-109143800D01*
X167131612Y-109143800D01*
X166357408Y-110693200D01*
X166115634Y-110693200D01*
X166256338Y-110413799D01*
X164997446Y-110413799D01*
X164744399Y-110159799D01*
X164491354Y-109905800D01*
X164796935Y-109905800D01*
X164934900Y-110045500D01*
X165072864Y-110185200D01*
X166372117Y-110185200D01*
X166440632Y-110045500D01*
X166509148Y-109905800D01*
X164796935Y-109905800D01*
X164491354Y-109905800D01*
X164491353Y-109905799D01*
X163855462Y-109905799D01*
X163219571Y-109905800D01*
X162934235Y-109619652D01*
X162648900Y-109333505D01*
X162648900Y-107249832D01*
X162649076Y-106853843D01*
X162649630Y-106506157D01*
X162650596Y-106204277D01*
X162652012Y-105945706D01*
X162653913Y-105727947D01*
X162656335Y-105548505D01*
X162659313Y-105404882D01*
X162661614Y-105333800D01*
X162852100Y-105333800D01*
X162852100Y-109231695D01*
X163073820Y-109454447D01*
X163295540Y-109677200D01*
X166625118Y-109677200D01*
X166890396Y-109143800D01*
X166705128Y-109143800D01*
X166600022Y-109139566D01*
X166523459Y-109127980D01*
X166489380Y-109113320D01*
X166478450Y-109084885D01*
X166470135Y-109021716D01*
X166464247Y-108920121D01*
X166460600Y-108776407D01*
X166459007Y-108586883D01*
X166458900Y-108510753D01*
X166458899Y-107938666D01*
X166300883Y-107779233D01*
X166223066Y-107702438D01*
X166167579Y-107655302D01*
X166121800Y-107630623D01*
X166073106Y-107621198D01*
X166021483Y-107619800D01*
X165900100Y-107619800D01*
X165900100Y-108351320D01*
X165899446Y-108583436D01*
X165897390Y-108768412D01*
X165893784Y-108909891D01*
X165888483Y-109011516D01*
X165881342Y-109076932D01*
X165872214Y-109109783D01*
X165869619Y-109113320D01*
X165832626Y-109125318D01*
X165755499Y-109134519D01*
X165648828Y-109140924D01*
X165523200Y-109144532D01*
X165389206Y-109145343D01*
X165257435Y-109143358D01*
X165138475Y-109138576D01*
X165042915Y-109130997D01*
X164981346Y-109120622D01*
X164965379Y-109113319D01*
X164957640Y-109091996D01*
X164951189Y-109042717D01*
X164945945Y-108962279D01*
X164941823Y-108847480D01*
X164938742Y-108695119D01*
X164936617Y-108501992D01*
X164935366Y-108264899D01*
X164934906Y-107980638D01*
X164934899Y-107939253D01*
X164934899Y-106795666D01*
X164776883Y-106636233D01*
X164699066Y-106559438D01*
X164643579Y-106512302D01*
X164597800Y-106487623D01*
X164549106Y-106478198D01*
X164497483Y-106476799D01*
X164376100Y-106476800D01*
X164376100Y-107779819D01*
X164375792Y-108090682D01*
X164374822Y-108353795D01*
X164373120Y-108572205D01*
X164370617Y-108748959D01*
X164367242Y-108887104D01*
X164362927Y-108989687D01*
X164357602Y-109059754D01*
X164351196Y-109100354D01*
X164345620Y-109113319D01*
X164308626Y-109125318D01*
X164231499Y-109134519D01*
X164124828Y-109140924D01*
X163999200Y-109144532D01*
X163865206Y-109145343D01*
X163733435Y-109143358D01*
X163614475Y-109138576D01*
X163518915Y-109130997D01*
X163457346Y-109120622D01*
X163441379Y-109113320D01*
X163435019Y-109094505D01*
X163429522Y-109049863D01*
X163424840Y-108976674D01*
X163420925Y-108872218D01*
X163417732Y-108733777D01*
X163415211Y-108558630D01*
X163413315Y-108344057D01*
X163411998Y-108087340D01*
X163411211Y-107785759D01*
X163410907Y-107436593D01*
X163410900Y-107367753D01*
X163410899Y-105652666D01*
X163252883Y-105493233D01*
X163175066Y-105416438D01*
X163119579Y-105369302D01*
X163073800Y-105344623D01*
X163025106Y-105335198D01*
X162973483Y-105333800D01*
X162852100Y-105333800D01*
X162661614Y-105333800D01*
X162662885Y-105294582D01*
X162667086Y-105215110D01*
X162671952Y-105163967D01*
X162677519Y-105138657D01*
X162679379Y-105135680D01*
X162722681Y-105119339D01*
X162810320Y-105108938D01*
X162936103Y-105105201D01*
X162939227Y-105105200D01*
X163168595Y-105105200D01*
X163391347Y-105326920D01*
D13*
X145671000Y-99024221D02*
X145671000Y-99349779D01*
X144651000Y-99024221D02*
X144651000Y-99349779D01*
X136209721Y-95121000D02*
X136535279Y-95121000D01*
X136209721Y-96141000D02*
X136535279Y-96141000D01*
X147508279Y-94363000D02*
X147182721Y-94363000D01*
X147508279Y-93343000D02*
X147182721Y-93343000D01*
X147508279Y-96141000D02*
X147182721Y-96141000D01*
X147508279Y-95121000D02*
X147182721Y-95121000D01*
X139486779Y-108841000D02*
X139161221Y-108841000D01*
X139486779Y-107821000D02*
X139161221Y-107821000D01*
X142311221Y-107821000D02*
X142636779Y-107821000D01*
X142311221Y-108841000D02*
X142636779Y-108841000D01*
X146614000Y-118872000D02*
X146614000Y-109982000D01*
X146614000Y-118872000D02*
X135184000Y-118872000D01*
X135184000Y-118872000D02*
X135184000Y-109982000D01*
X135184000Y-109982000D02*
X146614000Y-109982000D01*
X144074000Y-118872000D02*
X144074000Y-118237000D01*
X144074000Y-118237000D02*
X142804000Y-118237000D01*
X142804000Y-118237000D02*
X142804000Y-118872000D01*
X138994000Y-118872000D02*
X138994000Y-118237000D01*
X138994000Y-118237000D02*
X137724000Y-118237000D01*
X137724000Y-118237000D02*
X137724000Y-118872000D01*
X144524000Y-104048779D02*
X144524000Y-103723221D01*
X145544000Y-104048779D02*
X145544000Y-103723221D01*
X137894279Y-107190000D02*
X137568721Y-107190000D01*
X137894279Y-106170000D02*
X137568721Y-106170000D01*
X141061779Y-107190000D02*
X140736221Y-107190000D01*
X141061779Y-106170000D02*
X140736221Y-106170000D01*
X144244279Y-107190000D02*
X143918721Y-107190000D01*
X144244279Y-106170000D02*
X143918721Y-106170000D01*
X143834000Y-101531500D02*
X143834000Y-99331500D01*
X143834000Y-101531500D02*
X143834000Y-103731500D01*
X138614000Y-101531500D02*
X138614000Y-99331500D01*
X138614000Y-101531500D02*
X138614000Y-105131500D01*
X145526000Y-91730000D02*
X143526000Y-91730000D01*
X143526000Y-91730000D02*
X143526000Y-95630000D01*
X145526000Y-91730000D02*
X145526000Y-95630000D01*
X140192000Y-91730000D02*
X138192000Y-91730000D01*
X138192000Y-91730000D02*
X138192000Y-95630000D01*
X140192000Y-91730000D02*
X140192000Y-95630000D01*
X142859000Y-91730000D02*
X140859000Y-91730000D01*
X140859000Y-91730000D02*
X140859000Y-95630000D01*
X142859000Y-91730000D02*
X142859000Y-95630000D01*
D14*
X114681000Y-73914000D02*
X114681000Y-127254000D01*
X180721000Y-86614000D02*
X180721000Y-75438000D01*
X183261000Y-89154000D02*
X180721000Y-86614000D01*
X183261000Y-123444000D02*
X183261000Y-89154000D01*
X180721000Y-125984000D02*
X183261000Y-123444000D01*
X180721000Y-127254000D02*
X180721000Y-125984000D01*
X179197000Y-73914000D02*
X180721000Y-75438000D01*
X114681000Y-127254000D02*
X180721000Y-127254000D01*
X114681000Y-73914000D02*
X179197000Y-73914000D01*
D13*
X178435000Y-85090000D02*
X178435000Y-85725000D01*
X178435000Y-91440000D02*
X178435000Y-90805000D01*
X171450000Y-85090000D02*
X171450000Y-86995000D01*
X171450000Y-90170000D02*
X171450000Y-89535000D01*
X171450000Y-91440000D02*
X171450000Y-90170000D01*
X171450000Y-85090000D02*
X178435000Y-85090000D01*
X178435000Y-91440000D02*
X171450000Y-91440000D01*
X148276000Y-121853000D02*
X148276000Y-120523000D01*
X149606000Y-121853000D02*
X148276000Y-121853000D01*
X150876000Y-121853000D02*
X150876000Y-119193000D01*
X150876000Y-119193000D02*
X153476000Y-119193000D01*
X150876000Y-121853000D02*
X153476000Y-121853000D01*
X153476000Y-121853000D02*
X153476000Y-119193000D01*
X176971000Y-79569000D02*
X176971000Y-80899000D01*
X175641000Y-79569000D02*
X176971000Y-79569000D01*
X174371000Y-79569000D02*
X174371000Y-82229000D01*
X174371000Y-82229000D02*
X171771000Y-82229000D01*
X174371000Y-79569000D02*
X171771000Y-79569000D01*
X171771000Y-79569000D02*
X171771000Y-82229000D01*
X150265000Y-93290000D02*
X178665000Y-93290000D01*
X178665000Y-93290000D02*
X178665000Y-102290000D01*
X150265000Y-102290000D02*
X150265000Y-93290000D01*
X178665000Y-102290000D02*
X150265000Y-102290000D01*
X173355000Y-92710000D02*
X172720000Y-93290000D01*
X173355000Y-92710000D02*
X173990000Y-93290000D01*
X156941733Y-121033000D02*
X157284267Y-121033000D01*
X156941733Y-120013000D02*
X157284267Y-120013000D01*
D14*
X146948142Y-99353666D02*
X146995761Y-99401285D01*
X147043380Y-99544142D01*
X147043380Y-99639380D01*
X146995761Y-99782238D01*
X146900523Y-99877476D01*
X146805285Y-99925095D01*
X146614809Y-99972714D01*
X146471952Y-99972714D01*
X146281476Y-99925095D01*
X146186238Y-99877476D01*
X146091000Y-99782238D01*
X146043380Y-99639380D01*
X146043380Y-99544142D01*
X146091000Y-99401285D01*
X146138619Y-99353666D01*
X146043380Y-98448904D02*
X146043380Y-98925095D01*
X146519571Y-98972714D01*
X146471952Y-98925095D01*
X146424333Y-98829857D01*
X146424333Y-98591761D01*
X146471952Y-98496523D01*
X146519571Y-98448904D01*
X146614809Y-98401285D01*
X146852904Y-98401285D01*
X146948142Y-98448904D01*
X146995761Y-98496523D01*
X147043380Y-98591761D01*
X147043380Y-98829857D01*
X146995761Y-98925095D01*
X146948142Y-98972714D01*
X136205833Y-94653380D02*
X135872500Y-94177190D01*
X135634404Y-94653380D02*
X135634404Y-93653380D01*
X136015357Y-93653380D01*
X136110595Y-93701000D01*
X136158214Y-93748619D01*
X136205833Y-93843857D01*
X136205833Y-93986714D01*
X136158214Y-94081952D01*
X136110595Y-94129571D01*
X136015357Y-94177190D01*
X135634404Y-94177190D01*
X137110595Y-93653380D02*
X136634404Y-93653380D01*
X136586785Y-94129571D01*
X136634404Y-94081952D01*
X136729642Y-94034333D01*
X136967738Y-94034333D01*
X137062976Y-94081952D01*
X137110595Y-94129571D01*
X137158214Y-94224809D01*
X137158214Y-94462904D01*
X137110595Y-94558142D01*
X137062976Y-94605761D01*
X136967738Y-94653380D01*
X136729642Y-94653380D01*
X136634404Y-94605761D01*
X136586785Y-94558142D01*
X147178833Y-92781380D02*
X146845500Y-92305190D01*
X146607404Y-92781380D02*
X146607404Y-91781380D01*
X146988357Y-91781380D01*
X147083595Y-91829000D01*
X147131214Y-91876619D01*
X147178833Y-91971857D01*
X147178833Y-92114714D01*
X147131214Y-92209952D01*
X147083595Y-92257571D01*
X146988357Y-92305190D01*
X146607404Y-92305190D01*
X148035976Y-92114714D02*
X148035976Y-92781380D01*
X147797880Y-91733761D02*
X147559785Y-92448047D01*
X148178833Y-92448047D01*
X147178833Y-97513380D02*
X146845500Y-97037190D01*
X146607404Y-97513380D02*
X146607404Y-96513380D01*
X146988357Y-96513380D01*
X147083595Y-96561000D01*
X147131214Y-96608619D01*
X147178833Y-96703857D01*
X147178833Y-96846714D01*
X147131214Y-96941952D01*
X147083595Y-96989571D01*
X146988357Y-97037190D01*
X146607404Y-97037190D01*
X147512166Y-96513380D02*
X148131214Y-96513380D01*
X147797880Y-96894333D01*
X147940738Y-96894333D01*
X148035976Y-96941952D01*
X148083595Y-96989571D01*
X148131214Y-97084809D01*
X148131214Y-97322904D01*
X148083595Y-97418142D01*
X148035976Y-97465761D01*
X147940738Y-97513380D01*
X147655023Y-97513380D01*
X147559785Y-97465761D01*
X147512166Y-97418142D01*
X136675833Y-108783380D02*
X136342500Y-108307190D01*
X136104404Y-108783380D02*
X136104404Y-107783380D01*
X136485357Y-107783380D01*
X136580595Y-107831000D01*
X136628214Y-107878619D01*
X136675833Y-107973857D01*
X136675833Y-108116714D01*
X136628214Y-108211952D01*
X136580595Y-108259571D01*
X136485357Y-108307190D01*
X136104404Y-108307190D01*
X137056785Y-107878619D02*
X137104404Y-107831000D01*
X137199642Y-107783380D01*
X137437738Y-107783380D01*
X137532976Y-107831000D01*
X137580595Y-107878619D01*
X137628214Y-107973857D01*
X137628214Y-108069095D01*
X137580595Y-108211952D01*
X137009166Y-108783380D01*
X137628214Y-108783380D01*
X144740333Y-108783380D02*
X144407000Y-108307190D01*
X144168904Y-108783380D02*
X144168904Y-107783380D01*
X144549857Y-107783380D01*
X144645095Y-107831000D01*
X144692714Y-107878619D01*
X144740333Y-107973857D01*
X144740333Y-108116714D01*
X144692714Y-108211952D01*
X144645095Y-108259571D01*
X144549857Y-108307190D01*
X144168904Y-108307190D01*
X145692714Y-108783380D02*
X145121285Y-108783380D01*
X145407000Y-108783380D02*
X145407000Y-107783380D01*
X145311761Y-107926238D01*
X145216523Y-108021476D01*
X145121285Y-108069095D01*
X147534380Y-114760333D02*
X148248666Y-114760333D01*
X148391523Y-114807952D01*
X148486761Y-114903190D01*
X148534380Y-115046047D01*
X148534380Y-115141285D01*
X148534380Y-113760333D02*
X148534380Y-114331761D01*
X148534380Y-114046047D02*
X147534380Y-114046047D01*
X147677238Y-114141285D01*
X147772476Y-114236523D01*
X147820095Y-114331761D01*
X146915142Y-104052666D02*
X146962761Y-104100285D01*
X147010380Y-104243142D01*
X147010380Y-104338380D01*
X146962761Y-104481238D01*
X146867523Y-104576476D01*
X146772285Y-104624095D01*
X146581809Y-104671714D01*
X146438952Y-104671714D01*
X146248476Y-104624095D01*
X146153238Y-104576476D01*
X146058000Y-104481238D01*
X146010380Y-104338380D01*
X146010380Y-104243142D01*
X146058000Y-104100285D01*
X146105619Y-104052666D01*
X146343714Y-103195523D02*
X147010380Y-103195523D01*
X145962761Y-103433619D02*
X146677047Y-103671714D01*
X146677047Y-103052666D01*
X135088333Y-107037142D02*
X135040714Y-107084761D01*
X134897857Y-107132380D01*
X134802619Y-107132380D01*
X134659761Y-107084761D01*
X134564523Y-106989523D01*
X134516904Y-106894285D01*
X134469285Y-106703809D01*
X134469285Y-106560952D01*
X134516904Y-106370476D01*
X134564523Y-106275238D01*
X134659761Y-106180000D01*
X134802619Y-106132380D01*
X134897857Y-106132380D01*
X135040714Y-106180000D01*
X135088333Y-106227619D01*
X135421666Y-106132380D02*
X136040714Y-106132380D01*
X135707380Y-106513333D01*
X135850238Y-106513333D01*
X135945476Y-106560952D01*
X135993095Y-106608571D01*
X136040714Y-106703809D01*
X136040714Y-106941904D01*
X135993095Y-107037142D01*
X135945476Y-107084761D01*
X135850238Y-107132380D01*
X135564523Y-107132380D01*
X135469285Y-107084761D01*
X135421666Y-107037142D01*
X137183833Y-105576642D02*
X137136214Y-105624261D01*
X136993357Y-105671880D01*
X136898119Y-105671880D01*
X136755261Y-105624261D01*
X136660023Y-105529023D01*
X136612404Y-105433785D01*
X136564785Y-105243309D01*
X136564785Y-105100452D01*
X136612404Y-104909976D01*
X136660023Y-104814738D01*
X136755261Y-104719500D01*
X136898119Y-104671880D01*
X136993357Y-104671880D01*
X137136214Y-104719500D01*
X137183833Y-104767119D01*
X137564785Y-104767119D02*
X137612404Y-104719500D01*
X137707642Y-104671880D01*
X137945738Y-104671880D01*
X138040976Y-104719500D01*
X138088595Y-104767119D01*
X138136214Y-104862357D01*
X138136214Y-104957595D01*
X138088595Y-105100452D01*
X137517166Y-105671880D01*
X138136214Y-105671880D01*
X146391333Y-107037142D02*
X146343714Y-107084761D01*
X146200857Y-107132380D01*
X146105619Y-107132380D01*
X145962761Y-107084761D01*
X145867523Y-106989523D01*
X145819904Y-106894285D01*
X145772285Y-106703809D01*
X145772285Y-106560952D01*
X145819904Y-106370476D01*
X145867523Y-106275238D01*
X145962761Y-106180000D01*
X146105619Y-106132380D01*
X146200857Y-106132380D01*
X146343714Y-106180000D01*
X146391333Y-106227619D01*
X147343714Y-107132380D02*
X146772285Y-107132380D01*
X147058000Y-107132380D02*
X147058000Y-106132380D01*
X146962761Y-106275238D01*
X146867523Y-106370476D01*
X146772285Y-106418095D01*
X137226380Y-102293404D02*
X138035904Y-102293404D01*
X138131142Y-102245785D01*
X138178761Y-102198166D01*
X138226380Y-102102928D01*
X138226380Y-101912452D01*
X138178761Y-101817214D01*
X138131142Y-101769595D01*
X138035904Y-101721976D01*
X137226380Y-101721976D01*
X138226380Y-100721976D02*
X138226380Y-101293404D01*
X138226380Y-101007690D02*
X137226380Y-101007690D01*
X137369238Y-101102928D01*
X137464476Y-101198166D01*
X137512095Y-101293404D01*
X146121380Y-91416095D02*
X145121380Y-91416095D01*
X145121380Y-91178000D01*
X145169000Y-91035142D01*
X145264238Y-90939904D01*
X145359476Y-90892285D01*
X145549952Y-90844666D01*
X145692809Y-90844666D01*
X145883285Y-90892285D01*
X145978523Y-90939904D01*
X146073761Y-91035142D01*
X146121380Y-91178000D01*
X146121380Y-91416095D01*
X145121380Y-90511333D02*
X145121380Y-89892285D01*
X145502333Y-90225619D01*
X145502333Y-90082761D01*
X145549952Y-89987523D01*
X145597571Y-89939904D01*
X145692809Y-89892285D01*
X145930904Y-89892285D01*
X146026142Y-89939904D01*
X146073761Y-89987523D01*
X146121380Y-90082761D01*
X146121380Y-90368476D01*
X146073761Y-90463714D01*
X146026142Y-90511333D01*
X138564880Y-91416095D02*
X137564880Y-91416095D01*
X137564880Y-91178000D01*
X137612500Y-91035142D01*
X137707738Y-90939904D01*
X137802976Y-90892285D01*
X137993452Y-90844666D01*
X138136309Y-90844666D01*
X138326785Y-90892285D01*
X138422023Y-90939904D01*
X138517261Y-91035142D01*
X138564880Y-91178000D01*
X138564880Y-91416095D01*
X137660119Y-90463714D02*
X137612500Y-90416095D01*
X137564880Y-90320857D01*
X137564880Y-90082761D01*
X137612500Y-89987523D01*
X137660119Y-89939904D01*
X137755357Y-89892285D01*
X137850595Y-89892285D01*
X137993452Y-89939904D01*
X138564880Y-90511333D01*
X138564880Y-89892285D01*
X143454380Y-91416095D02*
X142454380Y-91416095D01*
X142454380Y-91178000D01*
X142502000Y-91035142D01*
X142597238Y-90939904D01*
X142692476Y-90892285D01*
X142882952Y-90844666D01*
X143025809Y-90844666D01*
X143216285Y-90892285D01*
X143311523Y-90939904D01*
X143406761Y-91035142D01*
X143454380Y-91178000D01*
X143454380Y-91416095D01*
X143454380Y-89892285D02*
X143454380Y-90463714D01*
X143454380Y-90178000D02*
X142454380Y-90178000D01*
X142597238Y-90273238D01*
X142692476Y-90368476D01*
X142740095Y-90463714D01*
X115982904Y-72350380D02*
X116649571Y-73350380D01*
X116649571Y-72350380D02*
X115982904Y-73350380D01*
X116982904Y-73064666D02*
X117459095Y-73064666D01*
X116887666Y-73350380D02*
X117221000Y-72350380D01*
X117554333Y-73350380D01*
X118411476Y-73350380D02*
X117840047Y-73350380D01*
X118125761Y-73350380D02*
X118125761Y-72350380D01*
X118030523Y-72493238D01*
X117935285Y-72588476D01*
X117840047Y-72636095D01*
X179649380Y-88860238D02*
X179173190Y-89193571D01*
X179649380Y-89431666D02*
X178649380Y-89431666D01*
X178649380Y-89050714D01*
X178697000Y-88955476D01*
X178744619Y-88907857D01*
X178839857Y-88860238D01*
X178982714Y-88860238D01*
X179077952Y-88907857D01*
X179125571Y-88955476D01*
X179173190Y-89050714D01*
X179173190Y-89431666D01*
X178649380Y-88574523D02*
X179649380Y-88241190D01*
X178649380Y-87907857D01*
X179649380Y-87050714D02*
X179649380Y-87622142D01*
X179649380Y-87336428D02*
X178649380Y-87336428D01*
X178792238Y-87431666D01*
X178887476Y-87526904D01*
X178935095Y-87622142D01*
X149915666Y-117562380D02*
X149915666Y-118276666D01*
X149868047Y-118419523D01*
X149772809Y-118514761D01*
X149629952Y-118562380D01*
X149534714Y-118562380D01*
X150391857Y-118562380D02*
X150391857Y-117562380D01*
X150772809Y-117562380D01*
X150868047Y-117610000D01*
X150915666Y-117657619D01*
X150963285Y-117752857D01*
X150963285Y-117895714D01*
X150915666Y-117990952D01*
X150868047Y-118038571D01*
X150772809Y-118086190D01*
X150391857Y-118086190D01*
X151915666Y-118562380D02*
X151344238Y-118562380D01*
X151629952Y-118562380D02*
X151629952Y-117562380D01*
X151534714Y-117705238D01*
X151439476Y-117800476D01*
X151344238Y-117848095D01*
X177696880Y-81232333D02*
X178411166Y-81232333D01*
X178554023Y-81279952D01*
X178649261Y-81375190D01*
X178696880Y-81518047D01*
X178696880Y-81613285D01*
X177792119Y-80803761D02*
X177744500Y-80756142D01*
X177696880Y-80660904D01*
X177696880Y-80422809D01*
X177744500Y-80327571D01*
X177792119Y-80279952D01*
X177887357Y-80232333D01*
X177982595Y-80232333D01*
X178125452Y-80279952D01*
X178696880Y-80851380D01*
X178696880Y-80232333D01*
X164131666Y-91962380D02*
X164131666Y-92676666D01*
X164084047Y-92819523D01*
X163988809Y-92914761D01*
X163845952Y-92962380D01*
X163750714Y-92962380D01*
X164512619Y-91962380D02*
X165131666Y-91962380D01*
X164798333Y-92343333D01*
X164941190Y-92343333D01*
X165036428Y-92390952D01*
X165084047Y-92438571D01*
X165131666Y-92533809D01*
X165131666Y-92771904D01*
X165084047Y-92867142D01*
X165036428Y-92914761D01*
X164941190Y-92962380D01*
X164655476Y-92962380D01*
X164560238Y-92914761D01*
X164512619Y-92867142D01*
X156946333Y-119450142D02*
X156898714Y-119497761D01*
X156755857Y-119545380D01*
X156660619Y-119545380D01*
X156517761Y-119497761D01*
X156422523Y-119402523D01*
X156374904Y-119307285D01*
X156327285Y-119116809D01*
X156327285Y-118973952D01*
X156374904Y-118783476D01*
X156422523Y-118688238D01*
X156517761Y-118593000D01*
X156660619Y-118545380D01*
X156755857Y-118545380D01*
X156898714Y-118593000D01*
X156946333Y-118640619D01*
X157803476Y-118545380D02*
X157613000Y-118545380D01*
X157517761Y-118593000D01*
X157470142Y-118640619D01*
X157374904Y-118783476D01*
X157327285Y-118973952D01*
X157327285Y-119354904D01*
X157374904Y-119450142D01*
X157422523Y-119497761D01*
X157517761Y-119545380D01*
X157708238Y-119545380D01*
X157803476Y-119497761D01*
X157851095Y-119450142D01*
X157898714Y-119354904D01*
X157898714Y-119116809D01*
X157851095Y-119021571D01*
X157803476Y-118973952D01*
X157708238Y-118926333D01*
X157517761Y-118926333D01*
X157422523Y-118973952D01*
X157374904Y-119021571D01*
X157327285Y-119116809D01*
%LPC*%
G36*
G01*
X144904750Y-99537000D02*
X145417250Y-99537000D01*
G75*
G02*
X145636000Y-99755750I0J-218750D01*
G01*
X145636000Y-100193250D01*
G75*
G02*
X145417250Y-100412000I-218750J0D01*
G01*
X144904750Y-100412000D01*
G75*
G02*
X144686000Y-100193250I0J218750D01*
G01*
X144686000Y-99755750D01*
G75*
G02*
X144904750Y-99537000I218750J0D01*
G01*
G37*
G36*
G01*
X144904750Y-97962000D02*
X145417250Y-97962000D01*
G75*
G02*
X145636000Y-98180750I0J-218750D01*
G01*
X145636000Y-98618250D01*
G75*
G02*
X145417250Y-98837000I-218750J0D01*
G01*
X144904750Y-98837000D01*
G75*
G02*
X144686000Y-98618250I0J218750D01*
G01*
X144686000Y-98180750D01*
G75*
G02*
X144904750Y-97962000I218750J0D01*
G01*
G37*
G36*
G01*
X136722500Y-95887250D02*
X136722500Y-95374750D01*
G75*
G02*
X136941250Y-95156000I218750J0D01*
G01*
X137378750Y-95156000D01*
G75*
G02*
X137597500Y-95374750I0J-218750D01*
G01*
X137597500Y-95887250D01*
G75*
G02*
X137378750Y-96106000I-218750J0D01*
G01*
X136941250Y-96106000D01*
G75*
G02*
X136722500Y-95887250I0J218750D01*
G01*
G37*
G36*
G01*
X135147500Y-95887250D02*
X135147500Y-95374750D01*
G75*
G02*
X135366250Y-95156000I218750J0D01*
G01*
X135803750Y-95156000D01*
G75*
G02*
X136022500Y-95374750I0J-218750D01*
G01*
X136022500Y-95887250D01*
G75*
G02*
X135803750Y-96106000I-218750J0D01*
G01*
X135366250Y-96106000D01*
G75*
G02*
X135147500Y-95887250I0J218750D01*
G01*
G37*
G36*
G01*
X146995500Y-93596750D02*
X146995500Y-94109250D01*
G75*
G02*
X146776750Y-94328000I-218750J0D01*
G01*
X146339250Y-94328000D01*
G75*
G02*
X146120500Y-94109250I0J218750D01*
G01*
X146120500Y-93596750D01*
G75*
G02*
X146339250Y-93378000I218750J0D01*
G01*
X146776750Y-93378000D01*
G75*
G02*
X146995500Y-93596750I0J-218750D01*
G01*
G37*
G36*
G01*
X148570500Y-93596750D02*
X148570500Y-94109250D01*
G75*
G02*
X148351750Y-94328000I-218750J0D01*
G01*
X147914250Y-94328000D01*
G75*
G02*
X147695500Y-94109250I0J218750D01*
G01*
X147695500Y-93596750D01*
G75*
G02*
X147914250Y-93378000I218750J0D01*
G01*
X148351750Y-93378000D01*
G75*
G02*
X148570500Y-93596750I0J-218750D01*
G01*
G37*
G36*
G01*
X146995500Y-95374750D02*
X146995500Y-95887250D01*
G75*
G02*
X146776750Y-96106000I-218750J0D01*
G01*
X146339250Y-96106000D01*
G75*
G02*
X146120500Y-95887250I0J218750D01*
G01*
X146120500Y-95374750D01*
G75*
G02*
X146339250Y-95156000I218750J0D01*
G01*
X146776750Y-95156000D01*
G75*
G02*
X146995500Y-95374750I0J-218750D01*
G01*
G37*
G36*
G01*
X148570500Y-95374750D02*
X148570500Y-95887250D01*
G75*
G02*
X148351750Y-96106000I-218750J0D01*
G01*
X147914250Y-96106000D01*
G75*
G02*
X147695500Y-95887250I0J218750D01*
G01*
X147695500Y-95374750D01*
G75*
G02*
X147914250Y-95156000I218750J0D01*
G01*
X148351750Y-95156000D01*
G75*
G02*
X148570500Y-95374750I0J-218750D01*
G01*
G37*
G36*
G01*
X138974000Y-108074750D02*
X138974000Y-108587250D01*
G75*
G02*
X138755250Y-108806000I-218750J0D01*
G01*
X138317750Y-108806000D01*
G75*
G02*
X138099000Y-108587250I0J218750D01*
G01*
X138099000Y-108074750D01*
G75*
G02*
X138317750Y-107856000I218750J0D01*
G01*
X138755250Y-107856000D01*
G75*
G02*
X138974000Y-108074750I0J-218750D01*
G01*
G37*
G36*
G01*
X140549000Y-108074750D02*
X140549000Y-108587250D01*
G75*
G02*
X140330250Y-108806000I-218750J0D01*
G01*
X139892750Y-108806000D01*
G75*
G02*
X139674000Y-108587250I0J218750D01*
G01*
X139674000Y-108074750D01*
G75*
G02*
X139892750Y-107856000I218750J0D01*
G01*
X140330250Y-107856000D01*
G75*
G02*
X140549000Y-108074750I0J-218750D01*
G01*
G37*
G36*
G01*
X142824000Y-108587250D02*
X142824000Y-108074750D01*
G75*
G02*
X143042750Y-107856000I218750J0D01*
G01*
X143480250Y-107856000D01*
G75*
G02*
X143699000Y-108074750I0J-218750D01*
G01*
X143699000Y-108587250D01*
G75*
G02*
X143480250Y-108806000I-218750J0D01*
G01*
X143042750Y-108806000D01*
G75*
G02*
X142824000Y-108587250I0J218750D01*
G01*
G37*
G36*
G01*
X141249000Y-108587250D02*
X141249000Y-108074750D01*
G75*
G02*
X141467750Y-107856000I218750J0D01*
G01*
X141905250Y-107856000D01*
G75*
G02*
X142124000Y-108074750I0J-218750D01*
G01*
X142124000Y-108587250D01*
G75*
G02*
X141905250Y-108806000I-218750J0D01*
G01*
X141467750Y-108806000D01*
G75*
G02*
X141249000Y-108587250I0J218750D01*
G01*
G37*
D15*
X138359000Y-114427000D03*
X143439000Y-114427000D03*
G36*
G01*
X145290250Y-103536000D02*
X144777750Y-103536000D01*
G75*
G02*
X144559000Y-103317250I0J218750D01*
G01*
X144559000Y-102879750D01*
G75*
G02*
X144777750Y-102661000I218750J0D01*
G01*
X145290250Y-102661000D01*
G75*
G02*
X145509000Y-102879750I0J-218750D01*
G01*
X145509000Y-103317250D01*
G75*
G02*
X145290250Y-103536000I-218750J0D01*
G01*
G37*
G36*
G01*
X145290250Y-105111000D02*
X144777750Y-105111000D01*
G75*
G02*
X144559000Y-104892250I0J218750D01*
G01*
X144559000Y-104454750D01*
G75*
G02*
X144777750Y-104236000I218750J0D01*
G01*
X145290250Y-104236000D01*
G75*
G02*
X145509000Y-104454750I0J-218750D01*
G01*
X145509000Y-104892250D01*
G75*
G02*
X145290250Y-105111000I-218750J0D01*
G01*
G37*
G36*
G01*
X137381500Y-106423750D02*
X137381500Y-106936250D01*
G75*
G02*
X137162750Y-107155000I-218750J0D01*
G01*
X136725250Y-107155000D01*
G75*
G02*
X136506500Y-106936250I0J218750D01*
G01*
X136506500Y-106423750D01*
G75*
G02*
X136725250Y-106205000I218750J0D01*
G01*
X137162750Y-106205000D01*
G75*
G02*
X137381500Y-106423750I0J-218750D01*
G01*
G37*
G36*
G01*
X138956500Y-106423750D02*
X138956500Y-106936250D01*
G75*
G02*
X138737750Y-107155000I-218750J0D01*
G01*
X138300250Y-107155000D01*
G75*
G02*
X138081500Y-106936250I0J218750D01*
G01*
X138081500Y-106423750D01*
G75*
G02*
X138300250Y-106205000I218750J0D01*
G01*
X138737750Y-106205000D01*
G75*
G02*
X138956500Y-106423750I0J-218750D01*
G01*
G37*
G36*
G01*
X140549000Y-106423750D02*
X140549000Y-106936250D01*
G75*
G02*
X140330250Y-107155000I-218750J0D01*
G01*
X139892750Y-107155000D01*
G75*
G02*
X139674000Y-106936250I0J218750D01*
G01*
X139674000Y-106423750D01*
G75*
G02*
X139892750Y-106205000I218750J0D01*
G01*
X140330250Y-106205000D01*
G75*
G02*
X140549000Y-106423750I0J-218750D01*
G01*
G37*
G36*
G01*
X142124000Y-106423750D02*
X142124000Y-106936250D01*
G75*
G02*
X141905250Y-107155000I-218750J0D01*
G01*
X141467750Y-107155000D01*
G75*
G02*
X141249000Y-106936250I0J218750D01*
G01*
X141249000Y-106423750D01*
G75*
G02*
X141467750Y-106205000I218750J0D01*
G01*
X141905250Y-106205000D01*
G75*
G02*
X142124000Y-106423750I0J-218750D01*
G01*
G37*
G36*
G01*
X143731500Y-106423750D02*
X143731500Y-106936250D01*
G75*
G02*
X143512750Y-107155000I-218750J0D01*
G01*
X143075250Y-107155000D01*
G75*
G02*
X142856500Y-106936250I0J218750D01*
G01*
X142856500Y-106423750D01*
G75*
G02*
X143075250Y-106205000I218750J0D01*
G01*
X143512750Y-106205000D01*
G75*
G02*
X143731500Y-106423750I0J-218750D01*
G01*
G37*
G36*
G01*
X145306500Y-106423750D02*
X145306500Y-106936250D01*
G75*
G02*
X145087750Y-107155000I-218750J0D01*
G01*
X144650250Y-107155000D01*
G75*
G02*
X144431500Y-106936250I0J218750D01*
G01*
X144431500Y-106423750D01*
G75*
G02*
X144650250Y-106205000I218750J0D01*
G01*
X145087750Y-106205000D01*
G75*
G02*
X145306500Y-106423750I0J-218750D01*
G01*
G37*
G36*
G01*
X139374000Y-99406500D02*
X139174000Y-99406500D01*
G75*
G02*
X139074000Y-99306500I0J100000D01*
G01*
X139074000Y-98031500D01*
G75*
G02*
X139174000Y-97931500I100000J0D01*
G01*
X139374000Y-97931500D01*
G75*
G02*
X139474000Y-98031500I0J-100000D01*
G01*
X139474000Y-99306500D01*
G75*
G02*
X139374000Y-99406500I-100000J0D01*
G01*
G37*
G36*
G01*
X140024000Y-99406500D02*
X139824000Y-99406500D01*
G75*
G02*
X139724000Y-99306500I0J100000D01*
G01*
X139724000Y-98031500D01*
G75*
G02*
X139824000Y-97931500I100000J0D01*
G01*
X140024000Y-97931500D01*
G75*
G02*
X140124000Y-98031500I0J-100000D01*
G01*
X140124000Y-99306500D01*
G75*
G02*
X140024000Y-99406500I-100000J0D01*
G01*
G37*
G36*
G01*
X140674000Y-99406500D02*
X140474000Y-99406500D01*
G75*
G02*
X140374000Y-99306500I0J100000D01*
G01*
X140374000Y-98031500D01*
G75*
G02*
X140474000Y-97931500I100000J0D01*
G01*
X140674000Y-97931500D01*
G75*
G02*
X140774000Y-98031500I0J-100000D01*
G01*
X140774000Y-99306500D01*
G75*
G02*
X140674000Y-99406500I-100000J0D01*
G01*
G37*
G36*
G01*
X141324000Y-99406500D02*
X141124000Y-99406500D01*
G75*
G02*
X141024000Y-99306500I0J100000D01*
G01*
X141024000Y-98031500D01*
G75*
G02*
X141124000Y-97931500I100000J0D01*
G01*
X141324000Y-97931500D01*
G75*
G02*
X141424000Y-98031500I0J-100000D01*
G01*
X141424000Y-99306500D01*
G75*
G02*
X141324000Y-99406500I-100000J0D01*
G01*
G37*
G36*
G01*
X141974000Y-99406500D02*
X141774000Y-99406500D01*
G75*
G02*
X141674000Y-99306500I0J100000D01*
G01*
X141674000Y-98031500D01*
G75*
G02*
X141774000Y-97931500I100000J0D01*
G01*
X141974000Y-97931500D01*
G75*
G02*
X142074000Y-98031500I0J-100000D01*
G01*
X142074000Y-99306500D01*
G75*
G02*
X141974000Y-99406500I-100000J0D01*
G01*
G37*
G36*
G01*
X142624000Y-99406500D02*
X142424000Y-99406500D01*
G75*
G02*
X142324000Y-99306500I0J100000D01*
G01*
X142324000Y-98031500D01*
G75*
G02*
X142424000Y-97931500I100000J0D01*
G01*
X142624000Y-97931500D01*
G75*
G02*
X142724000Y-98031500I0J-100000D01*
G01*
X142724000Y-99306500D01*
G75*
G02*
X142624000Y-99406500I-100000J0D01*
G01*
G37*
G36*
G01*
X143274000Y-99406500D02*
X143074000Y-99406500D01*
G75*
G02*
X142974000Y-99306500I0J100000D01*
G01*
X142974000Y-98031500D01*
G75*
G02*
X143074000Y-97931500I100000J0D01*
G01*
X143274000Y-97931500D01*
G75*
G02*
X143374000Y-98031500I0J-100000D01*
G01*
X143374000Y-99306500D01*
G75*
G02*
X143274000Y-99406500I-100000J0D01*
G01*
G37*
G36*
G01*
X143274000Y-105131500D02*
X143074000Y-105131500D01*
G75*
G02*
X142974000Y-105031500I0J100000D01*
G01*
X142974000Y-103756500D01*
G75*
G02*
X143074000Y-103656500I100000J0D01*
G01*
X143274000Y-103656500D01*
G75*
G02*
X143374000Y-103756500I0J-100000D01*
G01*
X143374000Y-105031500D01*
G75*
G02*
X143274000Y-105131500I-100000J0D01*
G01*
G37*
G36*
G01*
X142624000Y-105131500D02*
X142424000Y-105131500D01*
G75*
G02*
X142324000Y-105031500I0J100000D01*
G01*
X142324000Y-103756500D01*
G75*
G02*
X142424000Y-103656500I100000J0D01*
G01*
X142624000Y-103656500D01*
G75*
G02*
X142724000Y-103756500I0J-100000D01*
G01*
X142724000Y-105031500D01*
G75*
G02*
X142624000Y-105131500I-100000J0D01*
G01*
G37*
G36*
G01*
X141974000Y-105131500D02*
X141774000Y-105131500D01*
G75*
G02*
X141674000Y-105031500I0J100000D01*
G01*
X141674000Y-103756500D01*
G75*
G02*
X141774000Y-103656500I100000J0D01*
G01*
X141974000Y-103656500D01*
G75*
G02*
X142074000Y-103756500I0J-100000D01*
G01*
X142074000Y-105031500D01*
G75*
G02*
X141974000Y-105131500I-100000J0D01*
G01*
G37*
G36*
G01*
X141324000Y-105131500D02*
X141124000Y-105131500D01*
G75*
G02*
X141024000Y-105031500I0J100000D01*
G01*
X141024000Y-103756500D01*
G75*
G02*
X141124000Y-103656500I100000J0D01*
G01*
X141324000Y-103656500D01*
G75*
G02*
X141424000Y-103756500I0J-100000D01*
G01*
X141424000Y-105031500D01*
G75*
G02*
X141324000Y-105131500I-100000J0D01*
G01*
G37*
G36*
G01*
X140674000Y-105131500D02*
X140474000Y-105131500D01*
G75*
G02*
X140374000Y-105031500I0J100000D01*
G01*
X140374000Y-103756500D01*
G75*
G02*
X140474000Y-103656500I100000J0D01*
G01*
X140674000Y-103656500D01*
G75*
G02*
X140774000Y-103756500I0J-100000D01*
G01*
X140774000Y-105031500D01*
G75*
G02*
X140674000Y-105131500I-100000J0D01*
G01*
G37*
G36*
G01*
X140024000Y-105131500D02*
X139824000Y-105131500D01*
G75*
G02*
X139724000Y-105031500I0J100000D01*
G01*
X139724000Y-103756500D01*
G75*
G02*
X139824000Y-103656500I100000J0D01*
G01*
X140024000Y-103656500D01*
G75*
G02*
X140124000Y-103756500I0J-100000D01*
G01*
X140124000Y-105031500D01*
G75*
G02*
X140024000Y-105131500I-100000J0D01*
G01*
G37*
G36*
G01*
X139374000Y-105131500D02*
X139174000Y-105131500D01*
G75*
G02*
X139074000Y-105031500I0J100000D01*
G01*
X139074000Y-103756500D01*
G75*
G02*
X139174000Y-103656500I100000J0D01*
G01*
X139374000Y-103656500D01*
G75*
G02*
X139474000Y-103756500I0J-100000D01*
G01*
X139474000Y-105031500D01*
G75*
G02*
X139374000Y-105131500I-100000J0D01*
G01*
G37*
D16*
X144526000Y-95630000D03*
X144526000Y-92330000D03*
X139192000Y-95630000D03*
X139192000Y-92330000D03*
X141859000Y-95630000D03*
X141859000Y-92330000D03*
D17*
X178181000Y-124714000D03*
X175641000Y-124714000D03*
X173101000Y-124714000D03*
X170561000Y-124714000D03*
X168021000Y-124714000D03*
X142621000Y-124714000D03*
X148717000Y-76454000D03*
X146177000Y-76454000D03*
X143637000Y-76454000D03*
X138557000Y-76454000D03*
X136017000Y-76454000D03*
X133477000Y-76454000D03*
X151257000Y-76454000D03*
X153797000Y-76454000D03*
X156337000Y-76454000D03*
X141097000Y-76454000D03*
X160401000Y-76454000D03*
X162941000Y-76454000D03*
X165481000Y-76454000D03*
X168021000Y-76454000D03*
X170561000Y-76454000D03*
X173101000Y-76454000D03*
X175641000Y-76454000D03*
X178181000Y-76454000D03*
X145161000Y-124714000D03*
X147701000Y-124714000D03*
X150241000Y-124714000D03*
X152781000Y-124714000D03*
X155321000Y-124714000D03*
X157861000Y-124714000D03*
X160401000Y-124714000D03*
X165481000Y-124714000D03*
D18*
X177625000Y-89415000D03*
X177625000Y-87115000D03*
D19*
X172125000Y-88265000D03*
D20*
X149606000Y-120523000D03*
D21*
X152146000Y-120523000D03*
D20*
X175641000Y-80899000D03*
D21*
X173101000Y-80899000D03*
D22*
X173355000Y-96520000D03*
X173355000Y-99060000D03*
X170815000Y-96520000D03*
X170815000Y-99060000D03*
X168275000Y-96520000D03*
X168275000Y-99060000D03*
X165735000Y-96520000D03*
X165735000Y-99060000D03*
X163195000Y-96520000D03*
X163195000Y-99060000D03*
X160655000Y-96520000D03*
X160655000Y-99060000D03*
X158115000Y-96520000D03*
X158115000Y-99060000D03*
X155575000Y-96520000D03*
X155575000Y-99060000D03*
G36*
G01*
X155713000Y-120760500D02*
X155713000Y-120285500D01*
G75*
G02*
X155950500Y-120048000I237500J0D01*
G01*
X156525500Y-120048000D01*
G75*
G02*
X156763000Y-120285500I0J-237500D01*
G01*
X156763000Y-120760500D01*
G75*
G02*
X156525500Y-120998000I-237500J0D01*
G01*
X155950500Y-120998000D01*
G75*
G02*
X155713000Y-120760500I0J237500D01*
G01*
G37*
G36*
G01*
X157463000Y-120760500D02*
X157463000Y-120285500D01*
G75*
G02*
X157700500Y-120048000I237500J0D01*
G01*
X158275500Y-120048000D01*
G75*
G02*
X158513000Y-120285500I0J-237500D01*
G01*
X158513000Y-120760500D01*
G75*
G02*
X158275500Y-120998000I-237500J0D01*
G01*
X157700500Y-120998000D01*
G75*
G02*
X157463000Y-120760500I0J237500D01*
G01*
G37*
M02*
