G04 #@! TF.GenerationSoftware,KiCad,Pcbnew,(5.1.6)-1*
G04 #@! TF.CreationDate,2021-01-14T14:31:44+01:00*
G04 #@! TF.ProjectId,Thermolino2,54686572-6d6f-46c6-996e-6f322e6b6963,C*
G04 #@! TF.SameCoordinates,Original*
G04 #@! TF.FileFunction,Legend,Bot*
G04 #@! TF.FilePolarity,Positive*
%FSLAX46Y46*%
G04 Gerber Fmt 4.6, Leading zero omitted, Abs format (unit mm)*
G04 Created by KiCad (PCBNEW (5.1.6)-1) date 2021-01-14 14:31:44*
%MOMM*%
%LPD*%
G01*
G04 APERTURE LIST*
%ADD10C,2.000000*%
%ADD11O,1.727200X1.727200*%
%ADD12R,1.700000X1.700000*%
%ADD13O,1.700000X1.700000*%
%ADD14C,1.524000*%
G04 APERTURE END LIST*
%LPC*%
D10*
X138359000Y-114427000D03*
X143439000Y-114427000D03*
D11*
X178181000Y-124714000D03*
X175641000Y-124714000D03*
X173101000Y-124714000D03*
X170561000Y-124714000D03*
X168021000Y-124714000D03*
X142621000Y-124714000D03*
X148717000Y-76454000D03*
X146177000Y-76454000D03*
X143637000Y-76454000D03*
X138557000Y-76454000D03*
X136017000Y-76454000D03*
X133477000Y-76454000D03*
X151257000Y-76454000D03*
X153797000Y-76454000D03*
X156337000Y-76454000D03*
X141097000Y-76454000D03*
X160401000Y-76454000D03*
X162941000Y-76454000D03*
X165481000Y-76454000D03*
X168021000Y-76454000D03*
X170561000Y-76454000D03*
X173101000Y-76454000D03*
X175641000Y-76454000D03*
X178181000Y-76454000D03*
X145161000Y-124714000D03*
X147701000Y-124714000D03*
X150241000Y-124714000D03*
X152781000Y-124714000D03*
X155321000Y-124714000D03*
X157861000Y-124714000D03*
X160401000Y-124714000D03*
X165481000Y-124714000D03*
D12*
X149606000Y-120523000D03*
D13*
X152146000Y-120523000D03*
D12*
X175641000Y-80899000D03*
D13*
X173101000Y-80899000D03*
D14*
X173355000Y-96520000D03*
X173355000Y-99060000D03*
X170815000Y-96520000D03*
X170815000Y-99060000D03*
X168275000Y-96520000D03*
X168275000Y-99060000D03*
X165735000Y-96520000D03*
X165735000Y-99060000D03*
X163195000Y-96520000D03*
X163195000Y-99060000D03*
X160655000Y-96520000D03*
X160655000Y-99060000D03*
X158115000Y-96520000D03*
X158115000Y-99060000D03*
X155575000Y-96520000D03*
X155575000Y-99060000D03*
M02*
