G04 #@! TF.GenerationSoftware,KiCad,Pcbnew,(5.1.6)-1*
G04 #@! TF.CreationDate,2021-02-02T01:52:48+01:00*
G04 #@! TF.ProjectId,Thermolino2,54686572-6d6f-46c6-996e-6f322e6b6963,C*
G04 #@! TF.SameCoordinates,Original*
G04 #@! TF.FileFunction,Soldermask,Bot*
G04 #@! TF.FilePolarity,Negative*
%FSLAX46Y46*%
G04 Gerber Fmt 4.6, Leading zero omitted, Abs format (unit mm)*
G04 Created by KiCad (PCBNEW (5.1.6)-1) date 2021-02-02 01:52:48*
%MOMM*%
%LPD*%
G01*
G04 APERTURE LIST*
%ADD10C,0.152400*%
G04 APERTURE END LIST*
D10*
G36*
X178349480Y-123866994D02*
G01*
X178432903Y-123883587D01*
X178590068Y-123948687D01*
X178731513Y-124043198D01*
X178851802Y-124163487D01*
X178946313Y-124304932D01*
X179011413Y-124462097D01*
X179044600Y-124628943D01*
X179044600Y-124799057D01*
X179011413Y-124965903D01*
X178946313Y-125123068D01*
X178851802Y-125264513D01*
X178731513Y-125384802D01*
X178590068Y-125479313D01*
X178432903Y-125544413D01*
X178349480Y-125561006D01*
X178266059Y-125577600D01*
X178095941Y-125577600D01*
X178012520Y-125561006D01*
X177929097Y-125544413D01*
X177771932Y-125479313D01*
X177630487Y-125384802D01*
X177510198Y-125264513D01*
X177415687Y-125123068D01*
X177350587Y-124965903D01*
X177317400Y-124799057D01*
X177317400Y-124628943D01*
X177350587Y-124462097D01*
X177415687Y-124304932D01*
X177510198Y-124163487D01*
X177630487Y-124043198D01*
X177771932Y-123948687D01*
X177929097Y-123883587D01*
X178012520Y-123866994D01*
X178095941Y-123850400D01*
X178266059Y-123850400D01*
X178349480Y-123866994D01*
G37*
G36*
X173269480Y-123866994D02*
G01*
X173352903Y-123883587D01*
X173510068Y-123948687D01*
X173651513Y-124043198D01*
X173771802Y-124163487D01*
X173866313Y-124304932D01*
X173931413Y-124462097D01*
X173964600Y-124628943D01*
X173964600Y-124799057D01*
X173931413Y-124965903D01*
X173866313Y-125123068D01*
X173771802Y-125264513D01*
X173651513Y-125384802D01*
X173510068Y-125479313D01*
X173352903Y-125544413D01*
X173269480Y-125561006D01*
X173186059Y-125577600D01*
X173015941Y-125577600D01*
X172932520Y-125561006D01*
X172849097Y-125544413D01*
X172691932Y-125479313D01*
X172550487Y-125384802D01*
X172430198Y-125264513D01*
X172335687Y-125123068D01*
X172270587Y-124965903D01*
X172237400Y-124799057D01*
X172237400Y-124628943D01*
X172270587Y-124462097D01*
X172335687Y-124304932D01*
X172430198Y-124163487D01*
X172550487Y-124043198D01*
X172691932Y-123948687D01*
X172849097Y-123883587D01*
X172932520Y-123866994D01*
X173015941Y-123850400D01*
X173186059Y-123850400D01*
X173269480Y-123866994D01*
G37*
G36*
X170729480Y-123866994D02*
G01*
X170812903Y-123883587D01*
X170970068Y-123948687D01*
X171111513Y-124043198D01*
X171231802Y-124163487D01*
X171326313Y-124304932D01*
X171391413Y-124462097D01*
X171424600Y-124628943D01*
X171424600Y-124799057D01*
X171391413Y-124965903D01*
X171326313Y-125123068D01*
X171231802Y-125264513D01*
X171111513Y-125384802D01*
X170970068Y-125479313D01*
X170812903Y-125544413D01*
X170729480Y-125561006D01*
X170646059Y-125577600D01*
X170475941Y-125577600D01*
X170392520Y-125561006D01*
X170309097Y-125544413D01*
X170151932Y-125479313D01*
X170010487Y-125384802D01*
X169890198Y-125264513D01*
X169795687Y-125123068D01*
X169730587Y-124965903D01*
X169697400Y-124799057D01*
X169697400Y-124628943D01*
X169730587Y-124462097D01*
X169795687Y-124304932D01*
X169890198Y-124163487D01*
X170010487Y-124043198D01*
X170151932Y-123948687D01*
X170309097Y-123883587D01*
X170392520Y-123866994D01*
X170475941Y-123850400D01*
X170646059Y-123850400D01*
X170729480Y-123866994D01*
G37*
G36*
X168189480Y-123866994D02*
G01*
X168272903Y-123883587D01*
X168430068Y-123948687D01*
X168571513Y-124043198D01*
X168691802Y-124163487D01*
X168786313Y-124304932D01*
X168851413Y-124462097D01*
X168884600Y-124628943D01*
X168884600Y-124799057D01*
X168851413Y-124965903D01*
X168786313Y-125123068D01*
X168691802Y-125264513D01*
X168571513Y-125384802D01*
X168430068Y-125479313D01*
X168272903Y-125544413D01*
X168189480Y-125561006D01*
X168106059Y-125577600D01*
X167935941Y-125577600D01*
X167852520Y-125561006D01*
X167769097Y-125544413D01*
X167611932Y-125479313D01*
X167470487Y-125384802D01*
X167350198Y-125264513D01*
X167255687Y-125123068D01*
X167190587Y-124965903D01*
X167157400Y-124799057D01*
X167157400Y-124628943D01*
X167190587Y-124462097D01*
X167255687Y-124304932D01*
X167350198Y-124163487D01*
X167470487Y-124043198D01*
X167611932Y-123948687D01*
X167769097Y-123883587D01*
X167852520Y-123866994D01*
X167935941Y-123850400D01*
X168106059Y-123850400D01*
X168189480Y-123866994D01*
G37*
G36*
X142789480Y-123866994D02*
G01*
X142872903Y-123883587D01*
X143030068Y-123948687D01*
X143171513Y-124043198D01*
X143291802Y-124163487D01*
X143386313Y-124304932D01*
X143451413Y-124462097D01*
X143484600Y-124628943D01*
X143484600Y-124799057D01*
X143451413Y-124965903D01*
X143386313Y-125123068D01*
X143291802Y-125264513D01*
X143171513Y-125384802D01*
X143030068Y-125479313D01*
X142872903Y-125544413D01*
X142789480Y-125561006D01*
X142706059Y-125577600D01*
X142535941Y-125577600D01*
X142452520Y-125561006D01*
X142369097Y-125544413D01*
X142211932Y-125479313D01*
X142070487Y-125384802D01*
X141950198Y-125264513D01*
X141855687Y-125123068D01*
X141790587Y-124965903D01*
X141757400Y-124799057D01*
X141757400Y-124628943D01*
X141790587Y-124462097D01*
X141855687Y-124304932D01*
X141950198Y-124163487D01*
X142070487Y-124043198D01*
X142211932Y-123948687D01*
X142369097Y-123883587D01*
X142452520Y-123866994D01*
X142535941Y-123850400D01*
X142706059Y-123850400D01*
X142789480Y-123866994D01*
G37*
G36*
X145329480Y-123866994D02*
G01*
X145412903Y-123883587D01*
X145570068Y-123948687D01*
X145711513Y-124043198D01*
X145831802Y-124163487D01*
X145926313Y-124304932D01*
X145991413Y-124462097D01*
X146024600Y-124628943D01*
X146024600Y-124799057D01*
X145991413Y-124965903D01*
X145926313Y-125123068D01*
X145831802Y-125264513D01*
X145711513Y-125384802D01*
X145570068Y-125479313D01*
X145412903Y-125544413D01*
X145329480Y-125561006D01*
X145246059Y-125577600D01*
X145075941Y-125577600D01*
X144992520Y-125561006D01*
X144909097Y-125544413D01*
X144751932Y-125479313D01*
X144610487Y-125384802D01*
X144490198Y-125264513D01*
X144395687Y-125123068D01*
X144330587Y-124965903D01*
X144297400Y-124799057D01*
X144297400Y-124628943D01*
X144330587Y-124462097D01*
X144395687Y-124304932D01*
X144490198Y-124163487D01*
X144610487Y-124043198D01*
X144751932Y-123948687D01*
X144909097Y-123883587D01*
X144992520Y-123866994D01*
X145075941Y-123850400D01*
X145246059Y-123850400D01*
X145329480Y-123866994D01*
G37*
G36*
X147869480Y-123866994D02*
G01*
X147952903Y-123883587D01*
X148110068Y-123948687D01*
X148251513Y-124043198D01*
X148371802Y-124163487D01*
X148466313Y-124304932D01*
X148531413Y-124462097D01*
X148564600Y-124628943D01*
X148564600Y-124799057D01*
X148531413Y-124965903D01*
X148466313Y-125123068D01*
X148371802Y-125264513D01*
X148251513Y-125384802D01*
X148110068Y-125479313D01*
X147952903Y-125544413D01*
X147869480Y-125561006D01*
X147786059Y-125577600D01*
X147615941Y-125577600D01*
X147532520Y-125561006D01*
X147449097Y-125544413D01*
X147291932Y-125479313D01*
X147150487Y-125384802D01*
X147030198Y-125264513D01*
X146935687Y-125123068D01*
X146870587Y-124965903D01*
X146837400Y-124799057D01*
X146837400Y-124628943D01*
X146870587Y-124462097D01*
X146935687Y-124304932D01*
X147030198Y-124163487D01*
X147150487Y-124043198D01*
X147291932Y-123948687D01*
X147449097Y-123883587D01*
X147532520Y-123866994D01*
X147615941Y-123850400D01*
X147786059Y-123850400D01*
X147869480Y-123866994D01*
G37*
G36*
X150409480Y-123866994D02*
G01*
X150492903Y-123883587D01*
X150650068Y-123948687D01*
X150791513Y-124043198D01*
X150911802Y-124163487D01*
X151006313Y-124304932D01*
X151071413Y-124462097D01*
X151104600Y-124628943D01*
X151104600Y-124799057D01*
X151071413Y-124965903D01*
X151006313Y-125123068D01*
X150911802Y-125264513D01*
X150791513Y-125384802D01*
X150650068Y-125479313D01*
X150492903Y-125544413D01*
X150409480Y-125561006D01*
X150326059Y-125577600D01*
X150155941Y-125577600D01*
X150072520Y-125561006D01*
X149989097Y-125544413D01*
X149831932Y-125479313D01*
X149690487Y-125384802D01*
X149570198Y-125264513D01*
X149475687Y-125123068D01*
X149410587Y-124965903D01*
X149377400Y-124799057D01*
X149377400Y-124628943D01*
X149410587Y-124462097D01*
X149475687Y-124304932D01*
X149570198Y-124163487D01*
X149690487Y-124043198D01*
X149831932Y-123948687D01*
X149989097Y-123883587D01*
X150072520Y-123866994D01*
X150155941Y-123850400D01*
X150326059Y-123850400D01*
X150409480Y-123866994D01*
G37*
G36*
X152949480Y-123866994D02*
G01*
X153032903Y-123883587D01*
X153190068Y-123948687D01*
X153331513Y-124043198D01*
X153451802Y-124163487D01*
X153546313Y-124304932D01*
X153611413Y-124462097D01*
X153644600Y-124628943D01*
X153644600Y-124799057D01*
X153611413Y-124965903D01*
X153546313Y-125123068D01*
X153451802Y-125264513D01*
X153331513Y-125384802D01*
X153190068Y-125479313D01*
X153032903Y-125544413D01*
X152949480Y-125561006D01*
X152866059Y-125577600D01*
X152695941Y-125577600D01*
X152612520Y-125561006D01*
X152529097Y-125544413D01*
X152371932Y-125479313D01*
X152230487Y-125384802D01*
X152110198Y-125264513D01*
X152015687Y-125123068D01*
X151950587Y-124965903D01*
X151917400Y-124799057D01*
X151917400Y-124628943D01*
X151950587Y-124462097D01*
X152015687Y-124304932D01*
X152110198Y-124163487D01*
X152230487Y-124043198D01*
X152371932Y-123948687D01*
X152529097Y-123883587D01*
X152612520Y-123866994D01*
X152695941Y-123850400D01*
X152866059Y-123850400D01*
X152949480Y-123866994D01*
G37*
G36*
X155489480Y-123866994D02*
G01*
X155572903Y-123883587D01*
X155730068Y-123948687D01*
X155871513Y-124043198D01*
X155991802Y-124163487D01*
X156086313Y-124304932D01*
X156151413Y-124462097D01*
X156184600Y-124628943D01*
X156184600Y-124799057D01*
X156151413Y-124965903D01*
X156086313Y-125123068D01*
X155991802Y-125264513D01*
X155871513Y-125384802D01*
X155730068Y-125479313D01*
X155572903Y-125544413D01*
X155489480Y-125561006D01*
X155406059Y-125577600D01*
X155235941Y-125577600D01*
X155152520Y-125561006D01*
X155069097Y-125544413D01*
X154911932Y-125479313D01*
X154770487Y-125384802D01*
X154650198Y-125264513D01*
X154555687Y-125123068D01*
X154490587Y-124965903D01*
X154457400Y-124799057D01*
X154457400Y-124628943D01*
X154490587Y-124462097D01*
X154555687Y-124304932D01*
X154650198Y-124163487D01*
X154770487Y-124043198D01*
X154911932Y-123948687D01*
X155069097Y-123883587D01*
X155152520Y-123866994D01*
X155235941Y-123850400D01*
X155406059Y-123850400D01*
X155489480Y-123866994D01*
G37*
G36*
X158029480Y-123866994D02*
G01*
X158112903Y-123883587D01*
X158270068Y-123948687D01*
X158411513Y-124043198D01*
X158531802Y-124163487D01*
X158626313Y-124304932D01*
X158691413Y-124462097D01*
X158724600Y-124628943D01*
X158724600Y-124799057D01*
X158691413Y-124965903D01*
X158626313Y-125123068D01*
X158531802Y-125264513D01*
X158411513Y-125384802D01*
X158270068Y-125479313D01*
X158112903Y-125544413D01*
X158029480Y-125561006D01*
X157946059Y-125577600D01*
X157775941Y-125577600D01*
X157692520Y-125561006D01*
X157609097Y-125544413D01*
X157451932Y-125479313D01*
X157310487Y-125384802D01*
X157190198Y-125264513D01*
X157095687Y-125123068D01*
X157030587Y-124965903D01*
X156997400Y-124799057D01*
X156997400Y-124628943D01*
X157030587Y-124462097D01*
X157095687Y-124304932D01*
X157190198Y-124163487D01*
X157310487Y-124043198D01*
X157451932Y-123948687D01*
X157609097Y-123883587D01*
X157692520Y-123866994D01*
X157775941Y-123850400D01*
X157946059Y-123850400D01*
X158029480Y-123866994D01*
G37*
G36*
X160569480Y-123866994D02*
G01*
X160652903Y-123883587D01*
X160810068Y-123948687D01*
X160951513Y-124043198D01*
X161071802Y-124163487D01*
X161166313Y-124304932D01*
X161231413Y-124462097D01*
X161264600Y-124628943D01*
X161264600Y-124799057D01*
X161231413Y-124965903D01*
X161166313Y-125123068D01*
X161071802Y-125264513D01*
X160951513Y-125384802D01*
X160810068Y-125479313D01*
X160652903Y-125544413D01*
X160569480Y-125561006D01*
X160486059Y-125577600D01*
X160315941Y-125577600D01*
X160232520Y-125561006D01*
X160149097Y-125544413D01*
X159991932Y-125479313D01*
X159850487Y-125384802D01*
X159730198Y-125264513D01*
X159635687Y-125123068D01*
X159570587Y-124965903D01*
X159537400Y-124799057D01*
X159537400Y-124628943D01*
X159570587Y-124462097D01*
X159635687Y-124304932D01*
X159730198Y-124163487D01*
X159850487Y-124043198D01*
X159991932Y-123948687D01*
X160149097Y-123883587D01*
X160232520Y-123866994D01*
X160315941Y-123850400D01*
X160486059Y-123850400D01*
X160569480Y-123866994D01*
G37*
G36*
X165649480Y-123866994D02*
G01*
X165732903Y-123883587D01*
X165890068Y-123948687D01*
X166031513Y-124043198D01*
X166151802Y-124163487D01*
X166246313Y-124304932D01*
X166311413Y-124462097D01*
X166344600Y-124628943D01*
X166344600Y-124799057D01*
X166311413Y-124965903D01*
X166246313Y-125123068D01*
X166151802Y-125264513D01*
X166031513Y-125384802D01*
X165890068Y-125479313D01*
X165732903Y-125544413D01*
X165649480Y-125561006D01*
X165566059Y-125577600D01*
X165395941Y-125577600D01*
X165312520Y-125561006D01*
X165229097Y-125544413D01*
X165071932Y-125479313D01*
X164930487Y-125384802D01*
X164810198Y-125264513D01*
X164715687Y-125123068D01*
X164650587Y-124965903D01*
X164617400Y-124799057D01*
X164617400Y-124628943D01*
X164650587Y-124462097D01*
X164715687Y-124304932D01*
X164810198Y-124163487D01*
X164930487Y-124043198D01*
X165071932Y-123948687D01*
X165229097Y-123883587D01*
X165312520Y-123866994D01*
X165395941Y-123850400D01*
X165566059Y-123850400D01*
X165649480Y-123866994D01*
G37*
G36*
X175809480Y-123866994D02*
G01*
X175892903Y-123883587D01*
X176050068Y-123948687D01*
X176191513Y-124043198D01*
X176311802Y-124163487D01*
X176406313Y-124304932D01*
X176471413Y-124462097D01*
X176504600Y-124628943D01*
X176504600Y-124799057D01*
X176471413Y-124965903D01*
X176406313Y-125123068D01*
X176311802Y-125264513D01*
X176191513Y-125384802D01*
X176050068Y-125479313D01*
X175892903Y-125544413D01*
X175809480Y-125561006D01*
X175726059Y-125577600D01*
X175555941Y-125577600D01*
X175472520Y-125561006D01*
X175389097Y-125544413D01*
X175231932Y-125479313D01*
X175090487Y-125384802D01*
X174970198Y-125264513D01*
X174875687Y-125123068D01*
X174810587Y-124965903D01*
X174777400Y-124799057D01*
X174777400Y-124628943D01*
X174810587Y-124462097D01*
X174875687Y-124304932D01*
X174970198Y-124163487D01*
X175090487Y-124043198D01*
X175231932Y-123948687D01*
X175389097Y-123883587D01*
X175472520Y-123866994D01*
X175555941Y-123850400D01*
X175726059Y-123850400D01*
X175809480Y-123866994D01*
G37*
G36*
X152393936Y-119705665D02*
G01*
X152548626Y-119769739D01*
X152618076Y-119816145D01*
X152687844Y-119862762D01*
X152806238Y-119981156D01*
X152852855Y-120050924D01*
X152899261Y-120120374D01*
X152963335Y-120275064D01*
X152996000Y-120439282D01*
X152996000Y-120606718D01*
X152963335Y-120770936D01*
X152899261Y-120925626D01*
X152852855Y-120995076D01*
X152806238Y-121064844D01*
X152687844Y-121183238D01*
X152618076Y-121229855D01*
X152548626Y-121276261D01*
X152393936Y-121340335D01*
X152229718Y-121373000D01*
X152062282Y-121373000D01*
X151898064Y-121340335D01*
X151743374Y-121276261D01*
X151673924Y-121229855D01*
X151604156Y-121183238D01*
X151485762Y-121064844D01*
X151439145Y-120995076D01*
X151392739Y-120925626D01*
X151328665Y-120770936D01*
X151296000Y-120606718D01*
X151296000Y-120439282D01*
X151328665Y-120275064D01*
X151392739Y-120120374D01*
X151439145Y-120050924D01*
X151485762Y-119981156D01*
X151604156Y-119862762D01*
X151673924Y-119816145D01*
X151743374Y-119769739D01*
X151898064Y-119705665D01*
X152062282Y-119673000D01*
X152229718Y-119673000D01*
X152393936Y-119705665D01*
G37*
G36*
X150456000Y-121373000D02*
G01*
X148756000Y-121373000D01*
X148756000Y-119673000D01*
X150456000Y-119673000D01*
X150456000Y-121373000D01*
G37*
G36*
X143634090Y-113446214D02*
G01*
X143730689Y-113465429D01*
X143912678Y-113540811D01*
X144076463Y-113650249D01*
X144215751Y-113789537D01*
X144325189Y-113953322D01*
X144400571Y-114135311D01*
X144439000Y-114328509D01*
X144439000Y-114525491D01*
X144400571Y-114718689D01*
X144325189Y-114900678D01*
X144215751Y-115064463D01*
X144076463Y-115203751D01*
X143912678Y-115313189D01*
X143730689Y-115388571D01*
X143634090Y-115407785D01*
X143537493Y-115427000D01*
X143340507Y-115427000D01*
X143243910Y-115407785D01*
X143147311Y-115388571D01*
X142965322Y-115313189D01*
X142801537Y-115203751D01*
X142662249Y-115064463D01*
X142552811Y-114900678D01*
X142477429Y-114718689D01*
X142439000Y-114525491D01*
X142439000Y-114328509D01*
X142477429Y-114135311D01*
X142552811Y-113953322D01*
X142662249Y-113789537D01*
X142801537Y-113650249D01*
X142965322Y-113540811D01*
X143147311Y-113465429D01*
X143243910Y-113446214D01*
X143340507Y-113427000D01*
X143537493Y-113427000D01*
X143634090Y-113446214D01*
G37*
G36*
X138554090Y-113446214D02*
G01*
X138650689Y-113465429D01*
X138832678Y-113540811D01*
X138996463Y-113650249D01*
X139135751Y-113789537D01*
X139245189Y-113953322D01*
X139320571Y-114135311D01*
X139359000Y-114328509D01*
X139359000Y-114525491D01*
X139320571Y-114718689D01*
X139245189Y-114900678D01*
X139135751Y-115064463D01*
X138996463Y-115203751D01*
X138832678Y-115313189D01*
X138650689Y-115388571D01*
X138554090Y-115407785D01*
X138457493Y-115427000D01*
X138260507Y-115427000D01*
X138163910Y-115407785D01*
X138067311Y-115388571D01*
X137885322Y-115313189D01*
X137721537Y-115203751D01*
X137582249Y-115064463D01*
X137472811Y-114900678D01*
X137397429Y-114718689D01*
X137359000Y-114525491D01*
X137359000Y-114328509D01*
X137397429Y-114135311D01*
X137472811Y-113953322D01*
X137582249Y-113789537D01*
X137721537Y-113650249D01*
X137885322Y-113540811D01*
X138067311Y-113465429D01*
X138163910Y-113446214D01*
X138260507Y-113427000D01*
X138457493Y-113427000D01*
X138554090Y-113446214D01*
G37*
G36*
X155699122Y-98307761D02*
G01*
X155797267Y-98327283D01*
X155935942Y-98384724D01*
X155935944Y-98384725D01*
X155998345Y-98426420D01*
X156060747Y-98468116D01*
X156166884Y-98574253D01*
X156250276Y-98699058D01*
X156307717Y-98837733D01*
X156337000Y-98984950D01*
X156337000Y-99135050D01*
X156307717Y-99282267D01*
X156250276Y-99420942D01*
X156166884Y-99545747D01*
X156060747Y-99651884D01*
X155998344Y-99693580D01*
X155935944Y-99735275D01*
X155935943Y-99735276D01*
X155935942Y-99735276D01*
X155797267Y-99792717D01*
X155699122Y-99812239D01*
X155650051Y-99822000D01*
X155499949Y-99822000D01*
X155450878Y-99812239D01*
X155352733Y-99792717D01*
X155214058Y-99735276D01*
X155214057Y-99735276D01*
X155214056Y-99735275D01*
X155151656Y-99693580D01*
X155089253Y-99651884D01*
X154983116Y-99545747D01*
X154899724Y-99420942D01*
X154842283Y-99282267D01*
X154813000Y-99135050D01*
X154813000Y-98984950D01*
X154842283Y-98837733D01*
X154899724Y-98699058D01*
X154983116Y-98574253D01*
X155089253Y-98468116D01*
X155151655Y-98426420D01*
X155214056Y-98384725D01*
X155214058Y-98384724D01*
X155352733Y-98327283D01*
X155450878Y-98307761D01*
X155499949Y-98298000D01*
X155650051Y-98298000D01*
X155699122Y-98307761D01*
G37*
G36*
X158239122Y-98307761D02*
G01*
X158337267Y-98327283D01*
X158475942Y-98384724D01*
X158475944Y-98384725D01*
X158538345Y-98426420D01*
X158600747Y-98468116D01*
X158706884Y-98574253D01*
X158790276Y-98699058D01*
X158847717Y-98837733D01*
X158877000Y-98984950D01*
X158877000Y-99135050D01*
X158847717Y-99282267D01*
X158790276Y-99420942D01*
X158706884Y-99545747D01*
X158600747Y-99651884D01*
X158538344Y-99693580D01*
X158475944Y-99735275D01*
X158475943Y-99735276D01*
X158475942Y-99735276D01*
X158337267Y-99792717D01*
X158239122Y-99812239D01*
X158190051Y-99822000D01*
X158039949Y-99822000D01*
X157990878Y-99812239D01*
X157892733Y-99792717D01*
X157754058Y-99735276D01*
X157754057Y-99735276D01*
X157754056Y-99735275D01*
X157691656Y-99693580D01*
X157629253Y-99651884D01*
X157523116Y-99545747D01*
X157439724Y-99420942D01*
X157382283Y-99282267D01*
X157353000Y-99135050D01*
X157353000Y-98984950D01*
X157382283Y-98837733D01*
X157439724Y-98699058D01*
X157523116Y-98574253D01*
X157629253Y-98468116D01*
X157691655Y-98426420D01*
X157754056Y-98384725D01*
X157754058Y-98384724D01*
X157892733Y-98327283D01*
X157990878Y-98307761D01*
X158039949Y-98298000D01*
X158190051Y-98298000D01*
X158239122Y-98307761D01*
G37*
G36*
X160779122Y-98307761D02*
G01*
X160877267Y-98327283D01*
X161015942Y-98384724D01*
X161015944Y-98384725D01*
X161078345Y-98426420D01*
X161140747Y-98468116D01*
X161246884Y-98574253D01*
X161330276Y-98699058D01*
X161387717Y-98837733D01*
X161417000Y-98984950D01*
X161417000Y-99135050D01*
X161387717Y-99282267D01*
X161330276Y-99420942D01*
X161246884Y-99545747D01*
X161140747Y-99651884D01*
X161078344Y-99693580D01*
X161015944Y-99735275D01*
X161015943Y-99735276D01*
X161015942Y-99735276D01*
X160877267Y-99792717D01*
X160779122Y-99812239D01*
X160730051Y-99822000D01*
X160579949Y-99822000D01*
X160530878Y-99812239D01*
X160432733Y-99792717D01*
X160294058Y-99735276D01*
X160294057Y-99735276D01*
X160294056Y-99735275D01*
X160231656Y-99693580D01*
X160169253Y-99651884D01*
X160063116Y-99545747D01*
X159979724Y-99420942D01*
X159922283Y-99282267D01*
X159893000Y-99135050D01*
X159893000Y-98984950D01*
X159922283Y-98837733D01*
X159979724Y-98699058D01*
X160063116Y-98574253D01*
X160169253Y-98468116D01*
X160231655Y-98426420D01*
X160294056Y-98384725D01*
X160294058Y-98384724D01*
X160432733Y-98327283D01*
X160530878Y-98307761D01*
X160579949Y-98298000D01*
X160730051Y-98298000D01*
X160779122Y-98307761D01*
G37*
G36*
X163319122Y-98307761D02*
G01*
X163417267Y-98327283D01*
X163555942Y-98384724D01*
X163555944Y-98384725D01*
X163618345Y-98426420D01*
X163680747Y-98468116D01*
X163786884Y-98574253D01*
X163870276Y-98699058D01*
X163927717Y-98837733D01*
X163957000Y-98984950D01*
X163957000Y-99135050D01*
X163927717Y-99282267D01*
X163870276Y-99420942D01*
X163786884Y-99545747D01*
X163680747Y-99651884D01*
X163618344Y-99693580D01*
X163555944Y-99735275D01*
X163555943Y-99735276D01*
X163555942Y-99735276D01*
X163417267Y-99792717D01*
X163319122Y-99812239D01*
X163270051Y-99822000D01*
X163119949Y-99822000D01*
X163070878Y-99812239D01*
X162972733Y-99792717D01*
X162834058Y-99735276D01*
X162834057Y-99735276D01*
X162834056Y-99735275D01*
X162771656Y-99693580D01*
X162709253Y-99651884D01*
X162603116Y-99545747D01*
X162519724Y-99420942D01*
X162462283Y-99282267D01*
X162433000Y-99135050D01*
X162433000Y-98984950D01*
X162462283Y-98837733D01*
X162519724Y-98699058D01*
X162603116Y-98574253D01*
X162709253Y-98468116D01*
X162771655Y-98426420D01*
X162834056Y-98384725D01*
X162834058Y-98384724D01*
X162972733Y-98327283D01*
X163070878Y-98307761D01*
X163119949Y-98298000D01*
X163270051Y-98298000D01*
X163319122Y-98307761D01*
G37*
G36*
X165859122Y-98307761D02*
G01*
X165957267Y-98327283D01*
X166095942Y-98384724D01*
X166095944Y-98384725D01*
X166158345Y-98426420D01*
X166220747Y-98468116D01*
X166326884Y-98574253D01*
X166410276Y-98699058D01*
X166467717Y-98837733D01*
X166497000Y-98984950D01*
X166497000Y-99135050D01*
X166467717Y-99282267D01*
X166410276Y-99420942D01*
X166326884Y-99545747D01*
X166220747Y-99651884D01*
X166158344Y-99693580D01*
X166095944Y-99735275D01*
X166095943Y-99735276D01*
X166095942Y-99735276D01*
X165957267Y-99792717D01*
X165859122Y-99812239D01*
X165810051Y-99822000D01*
X165659949Y-99822000D01*
X165610878Y-99812239D01*
X165512733Y-99792717D01*
X165374058Y-99735276D01*
X165374057Y-99735276D01*
X165374056Y-99735275D01*
X165311656Y-99693580D01*
X165249253Y-99651884D01*
X165143116Y-99545747D01*
X165059724Y-99420942D01*
X165002283Y-99282267D01*
X164973000Y-99135050D01*
X164973000Y-98984950D01*
X165002283Y-98837733D01*
X165059724Y-98699058D01*
X165143116Y-98574253D01*
X165249253Y-98468116D01*
X165311655Y-98426420D01*
X165374056Y-98384725D01*
X165374058Y-98384724D01*
X165512733Y-98327283D01*
X165610878Y-98307761D01*
X165659949Y-98298000D01*
X165810051Y-98298000D01*
X165859122Y-98307761D01*
G37*
G36*
X168399122Y-98307761D02*
G01*
X168497267Y-98327283D01*
X168635942Y-98384724D01*
X168635944Y-98384725D01*
X168698345Y-98426420D01*
X168760747Y-98468116D01*
X168866884Y-98574253D01*
X168950276Y-98699058D01*
X169007717Y-98837733D01*
X169037000Y-98984950D01*
X169037000Y-99135050D01*
X169007717Y-99282267D01*
X168950276Y-99420942D01*
X168866884Y-99545747D01*
X168760747Y-99651884D01*
X168698344Y-99693580D01*
X168635944Y-99735275D01*
X168635943Y-99735276D01*
X168635942Y-99735276D01*
X168497267Y-99792717D01*
X168399122Y-99812239D01*
X168350051Y-99822000D01*
X168199949Y-99822000D01*
X168150878Y-99812239D01*
X168052733Y-99792717D01*
X167914058Y-99735276D01*
X167914057Y-99735276D01*
X167914056Y-99735275D01*
X167851656Y-99693580D01*
X167789253Y-99651884D01*
X167683116Y-99545747D01*
X167599724Y-99420942D01*
X167542283Y-99282267D01*
X167513000Y-99135050D01*
X167513000Y-98984950D01*
X167542283Y-98837733D01*
X167599724Y-98699058D01*
X167683116Y-98574253D01*
X167789253Y-98468116D01*
X167851655Y-98426420D01*
X167914056Y-98384725D01*
X167914058Y-98384724D01*
X168052733Y-98327283D01*
X168150878Y-98307761D01*
X168199949Y-98298000D01*
X168350051Y-98298000D01*
X168399122Y-98307761D01*
G37*
G36*
X170939122Y-98307761D02*
G01*
X171037267Y-98327283D01*
X171175942Y-98384724D01*
X171175944Y-98384725D01*
X171238345Y-98426420D01*
X171300747Y-98468116D01*
X171406884Y-98574253D01*
X171490276Y-98699058D01*
X171547717Y-98837733D01*
X171577000Y-98984950D01*
X171577000Y-99135050D01*
X171547717Y-99282267D01*
X171490276Y-99420942D01*
X171406884Y-99545747D01*
X171300747Y-99651884D01*
X171238344Y-99693580D01*
X171175944Y-99735275D01*
X171175943Y-99735276D01*
X171175942Y-99735276D01*
X171037267Y-99792717D01*
X170939122Y-99812239D01*
X170890051Y-99822000D01*
X170739949Y-99822000D01*
X170690878Y-99812239D01*
X170592733Y-99792717D01*
X170454058Y-99735276D01*
X170454057Y-99735276D01*
X170454056Y-99735275D01*
X170391656Y-99693580D01*
X170329253Y-99651884D01*
X170223116Y-99545747D01*
X170139724Y-99420942D01*
X170082283Y-99282267D01*
X170053000Y-99135050D01*
X170053000Y-98984950D01*
X170082283Y-98837733D01*
X170139724Y-98699058D01*
X170223116Y-98574253D01*
X170329253Y-98468116D01*
X170391655Y-98426420D01*
X170454056Y-98384725D01*
X170454058Y-98384724D01*
X170592733Y-98327283D01*
X170690878Y-98307761D01*
X170739949Y-98298000D01*
X170890051Y-98298000D01*
X170939122Y-98307761D01*
G37*
G36*
X173479122Y-98307761D02*
G01*
X173577267Y-98327283D01*
X173715942Y-98384724D01*
X173715944Y-98384725D01*
X173778345Y-98426420D01*
X173840747Y-98468116D01*
X173946884Y-98574253D01*
X174030276Y-98699058D01*
X174087717Y-98837733D01*
X174117000Y-98984950D01*
X174117000Y-99135050D01*
X174087717Y-99282267D01*
X174030276Y-99420942D01*
X173946884Y-99545747D01*
X173840747Y-99651884D01*
X173778344Y-99693580D01*
X173715944Y-99735275D01*
X173715943Y-99735276D01*
X173715942Y-99735276D01*
X173577267Y-99792717D01*
X173479122Y-99812239D01*
X173430051Y-99822000D01*
X173279949Y-99822000D01*
X173230878Y-99812239D01*
X173132733Y-99792717D01*
X172994058Y-99735276D01*
X172994057Y-99735276D01*
X172994056Y-99735275D01*
X172931656Y-99693580D01*
X172869253Y-99651884D01*
X172763116Y-99545747D01*
X172679724Y-99420942D01*
X172622283Y-99282267D01*
X172593000Y-99135050D01*
X172593000Y-98984950D01*
X172622283Y-98837733D01*
X172679724Y-98699058D01*
X172763116Y-98574253D01*
X172869253Y-98468116D01*
X172931655Y-98426420D01*
X172994056Y-98384725D01*
X172994058Y-98384724D01*
X173132733Y-98327283D01*
X173230878Y-98307761D01*
X173279949Y-98298000D01*
X173430051Y-98298000D01*
X173479122Y-98307761D01*
G37*
G36*
X155699122Y-95767761D02*
G01*
X155797267Y-95787283D01*
X155935942Y-95844724D01*
X155935944Y-95844725D01*
X155998345Y-95886420D01*
X156060747Y-95928116D01*
X156166884Y-96034253D01*
X156250276Y-96159058D01*
X156307717Y-96297733D01*
X156337000Y-96444950D01*
X156337000Y-96595050D01*
X156307717Y-96742267D01*
X156250276Y-96880942D01*
X156166884Y-97005747D01*
X156060747Y-97111884D01*
X155998345Y-97153580D01*
X155935944Y-97195275D01*
X155935943Y-97195276D01*
X155935942Y-97195276D01*
X155797267Y-97252717D01*
X155699122Y-97272239D01*
X155650051Y-97282000D01*
X155499949Y-97282000D01*
X155450878Y-97272239D01*
X155352733Y-97252717D01*
X155214058Y-97195276D01*
X155214057Y-97195276D01*
X155214056Y-97195275D01*
X155151656Y-97153580D01*
X155089253Y-97111884D01*
X154983116Y-97005747D01*
X154899724Y-96880942D01*
X154842283Y-96742267D01*
X154813000Y-96595050D01*
X154813000Y-96444950D01*
X154842283Y-96297733D01*
X154899724Y-96159058D01*
X154983116Y-96034253D01*
X155089253Y-95928116D01*
X155151655Y-95886420D01*
X155214056Y-95844725D01*
X155214058Y-95844724D01*
X155352733Y-95787283D01*
X155450878Y-95767761D01*
X155499949Y-95758000D01*
X155650051Y-95758000D01*
X155699122Y-95767761D01*
G37*
G36*
X165859122Y-95767761D02*
G01*
X165957267Y-95787283D01*
X166095942Y-95844724D01*
X166095944Y-95844725D01*
X166158345Y-95886420D01*
X166220747Y-95928116D01*
X166326884Y-96034253D01*
X166410276Y-96159058D01*
X166467717Y-96297733D01*
X166497000Y-96444950D01*
X166497000Y-96595050D01*
X166467717Y-96742267D01*
X166410276Y-96880942D01*
X166326884Y-97005747D01*
X166220747Y-97111884D01*
X166158345Y-97153580D01*
X166095944Y-97195275D01*
X166095943Y-97195276D01*
X166095942Y-97195276D01*
X165957267Y-97252717D01*
X165859122Y-97272239D01*
X165810051Y-97282000D01*
X165659949Y-97282000D01*
X165610878Y-97272239D01*
X165512733Y-97252717D01*
X165374058Y-97195276D01*
X165374057Y-97195276D01*
X165374056Y-97195275D01*
X165311656Y-97153580D01*
X165249253Y-97111884D01*
X165143116Y-97005747D01*
X165059724Y-96880942D01*
X165002283Y-96742267D01*
X164973000Y-96595050D01*
X164973000Y-96444950D01*
X165002283Y-96297733D01*
X165059724Y-96159058D01*
X165143116Y-96034253D01*
X165249253Y-95928116D01*
X165311655Y-95886420D01*
X165374056Y-95844725D01*
X165374058Y-95844724D01*
X165512733Y-95787283D01*
X165610878Y-95767761D01*
X165659949Y-95758000D01*
X165810051Y-95758000D01*
X165859122Y-95767761D01*
G37*
G36*
X168399122Y-95767761D02*
G01*
X168497267Y-95787283D01*
X168635942Y-95844724D01*
X168635944Y-95844725D01*
X168698345Y-95886420D01*
X168760747Y-95928116D01*
X168866884Y-96034253D01*
X168950276Y-96159058D01*
X169007717Y-96297733D01*
X169037000Y-96444950D01*
X169037000Y-96595050D01*
X169007717Y-96742267D01*
X168950276Y-96880942D01*
X168866884Y-97005747D01*
X168760747Y-97111884D01*
X168698345Y-97153580D01*
X168635944Y-97195275D01*
X168635943Y-97195276D01*
X168635942Y-97195276D01*
X168497267Y-97252717D01*
X168399122Y-97272239D01*
X168350051Y-97282000D01*
X168199949Y-97282000D01*
X168150878Y-97272239D01*
X168052733Y-97252717D01*
X167914058Y-97195276D01*
X167914057Y-97195276D01*
X167914056Y-97195275D01*
X167851656Y-97153580D01*
X167789253Y-97111884D01*
X167683116Y-97005747D01*
X167599724Y-96880942D01*
X167542283Y-96742267D01*
X167513000Y-96595050D01*
X167513000Y-96444950D01*
X167542283Y-96297733D01*
X167599724Y-96159058D01*
X167683116Y-96034253D01*
X167789253Y-95928116D01*
X167851655Y-95886420D01*
X167914056Y-95844725D01*
X167914058Y-95844724D01*
X168052733Y-95787283D01*
X168150878Y-95767761D01*
X168199949Y-95758000D01*
X168350051Y-95758000D01*
X168399122Y-95767761D01*
G37*
G36*
X173479122Y-95767761D02*
G01*
X173577267Y-95787283D01*
X173715942Y-95844724D01*
X173715944Y-95844725D01*
X173778345Y-95886420D01*
X173840747Y-95928116D01*
X173946884Y-96034253D01*
X174030276Y-96159058D01*
X174087717Y-96297733D01*
X174117000Y-96444950D01*
X174117000Y-96595050D01*
X174087717Y-96742267D01*
X174030276Y-96880942D01*
X173946884Y-97005747D01*
X173840747Y-97111884D01*
X173778345Y-97153580D01*
X173715944Y-97195275D01*
X173715943Y-97195276D01*
X173715942Y-97195276D01*
X173577267Y-97252717D01*
X173479122Y-97272239D01*
X173430051Y-97282000D01*
X173279949Y-97282000D01*
X173230878Y-97272239D01*
X173132733Y-97252717D01*
X172994058Y-97195276D01*
X172994057Y-97195276D01*
X172994056Y-97195275D01*
X172931656Y-97153580D01*
X172869253Y-97111884D01*
X172763116Y-97005747D01*
X172679724Y-96880942D01*
X172622283Y-96742267D01*
X172593000Y-96595050D01*
X172593000Y-96444950D01*
X172622283Y-96297733D01*
X172679724Y-96159058D01*
X172763116Y-96034253D01*
X172869253Y-95928116D01*
X172931655Y-95886420D01*
X172994056Y-95844725D01*
X172994058Y-95844724D01*
X173132733Y-95787283D01*
X173230878Y-95767761D01*
X173279949Y-95758000D01*
X173430051Y-95758000D01*
X173479122Y-95767761D01*
G37*
G36*
X160779122Y-95767761D02*
G01*
X160877267Y-95787283D01*
X161015942Y-95844724D01*
X161015944Y-95844725D01*
X161078345Y-95886420D01*
X161140747Y-95928116D01*
X161246884Y-96034253D01*
X161330276Y-96159058D01*
X161387717Y-96297733D01*
X161417000Y-96444950D01*
X161417000Y-96595050D01*
X161387717Y-96742267D01*
X161330276Y-96880942D01*
X161246884Y-97005747D01*
X161140747Y-97111884D01*
X161078345Y-97153580D01*
X161015944Y-97195275D01*
X161015943Y-97195276D01*
X161015942Y-97195276D01*
X160877267Y-97252717D01*
X160779122Y-97272239D01*
X160730051Y-97282000D01*
X160579949Y-97282000D01*
X160530878Y-97272239D01*
X160432733Y-97252717D01*
X160294058Y-97195276D01*
X160294057Y-97195276D01*
X160294056Y-97195275D01*
X160231656Y-97153580D01*
X160169253Y-97111884D01*
X160063116Y-97005747D01*
X159979724Y-96880942D01*
X159922283Y-96742267D01*
X159893000Y-96595050D01*
X159893000Y-96444950D01*
X159922283Y-96297733D01*
X159979724Y-96159058D01*
X160063116Y-96034253D01*
X160169253Y-95928116D01*
X160231655Y-95886420D01*
X160294056Y-95844725D01*
X160294058Y-95844724D01*
X160432733Y-95787283D01*
X160530878Y-95767761D01*
X160579949Y-95758000D01*
X160730051Y-95758000D01*
X160779122Y-95767761D01*
G37*
G36*
X158239122Y-95767761D02*
G01*
X158337267Y-95787283D01*
X158475942Y-95844724D01*
X158475944Y-95844725D01*
X158538345Y-95886420D01*
X158600747Y-95928116D01*
X158706884Y-96034253D01*
X158790276Y-96159058D01*
X158847717Y-96297733D01*
X158877000Y-96444950D01*
X158877000Y-96595050D01*
X158847717Y-96742267D01*
X158790276Y-96880942D01*
X158706884Y-97005747D01*
X158600747Y-97111884D01*
X158538345Y-97153580D01*
X158475944Y-97195275D01*
X158475943Y-97195276D01*
X158475942Y-97195276D01*
X158337267Y-97252717D01*
X158239122Y-97272239D01*
X158190051Y-97282000D01*
X158039949Y-97282000D01*
X157990878Y-97272239D01*
X157892733Y-97252717D01*
X157754058Y-97195276D01*
X157754057Y-97195276D01*
X157754056Y-97195275D01*
X157691656Y-97153580D01*
X157629253Y-97111884D01*
X157523116Y-97005747D01*
X157439724Y-96880942D01*
X157382283Y-96742267D01*
X157353000Y-96595050D01*
X157353000Y-96444950D01*
X157382283Y-96297733D01*
X157439724Y-96159058D01*
X157523116Y-96034253D01*
X157629253Y-95928116D01*
X157691655Y-95886420D01*
X157754056Y-95844725D01*
X157754058Y-95844724D01*
X157892733Y-95787283D01*
X157990878Y-95767761D01*
X158039949Y-95758000D01*
X158190051Y-95758000D01*
X158239122Y-95767761D01*
G37*
G36*
X170939122Y-95767761D02*
G01*
X171037267Y-95787283D01*
X171175942Y-95844724D01*
X171175944Y-95844725D01*
X171238345Y-95886420D01*
X171300747Y-95928116D01*
X171406884Y-96034253D01*
X171490276Y-96159058D01*
X171547717Y-96297733D01*
X171577000Y-96444950D01*
X171577000Y-96595050D01*
X171547717Y-96742267D01*
X171490276Y-96880942D01*
X171406884Y-97005747D01*
X171300747Y-97111884D01*
X171238345Y-97153580D01*
X171175944Y-97195275D01*
X171175943Y-97195276D01*
X171175942Y-97195276D01*
X171037267Y-97252717D01*
X170939122Y-97272239D01*
X170890051Y-97282000D01*
X170739949Y-97282000D01*
X170690878Y-97272239D01*
X170592733Y-97252717D01*
X170454058Y-97195276D01*
X170454057Y-97195276D01*
X170454056Y-97195275D01*
X170391656Y-97153580D01*
X170329253Y-97111884D01*
X170223116Y-97005747D01*
X170139724Y-96880942D01*
X170082283Y-96742267D01*
X170053000Y-96595050D01*
X170053000Y-96444950D01*
X170082283Y-96297733D01*
X170139724Y-96159058D01*
X170223116Y-96034253D01*
X170329253Y-95928116D01*
X170391655Y-95886420D01*
X170454056Y-95844725D01*
X170454058Y-95844724D01*
X170592733Y-95787283D01*
X170690878Y-95767761D01*
X170739949Y-95758000D01*
X170890051Y-95758000D01*
X170939122Y-95767761D01*
G37*
G36*
X163319122Y-95767761D02*
G01*
X163417267Y-95787283D01*
X163555942Y-95844724D01*
X163555944Y-95844725D01*
X163618345Y-95886420D01*
X163680747Y-95928116D01*
X163786884Y-96034253D01*
X163870276Y-96159058D01*
X163927717Y-96297733D01*
X163957000Y-96444950D01*
X163957000Y-96595050D01*
X163927717Y-96742267D01*
X163870276Y-96880942D01*
X163786884Y-97005747D01*
X163680747Y-97111884D01*
X163618345Y-97153580D01*
X163555944Y-97195275D01*
X163555943Y-97195276D01*
X163555942Y-97195276D01*
X163417267Y-97252717D01*
X163319122Y-97272239D01*
X163270051Y-97282000D01*
X163119949Y-97282000D01*
X163070878Y-97272239D01*
X162972733Y-97252717D01*
X162834058Y-97195276D01*
X162834057Y-97195276D01*
X162834056Y-97195275D01*
X162771656Y-97153580D01*
X162709253Y-97111884D01*
X162603116Y-97005747D01*
X162519724Y-96880942D01*
X162462283Y-96742267D01*
X162433000Y-96595050D01*
X162433000Y-96444950D01*
X162462283Y-96297733D01*
X162519724Y-96159058D01*
X162603116Y-96034253D01*
X162709253Y-95928116D01*
X162771655Y-95886420D01*
X162834056Y-95844725D01*
X162834058Y-95844724D01*
X162972733Y-95787283D01*
X163070878Y-95767761D01*
X163119949Y-95758000D01*
X163270051Y-95758000D01*
X163319122Y-95767761D01*
G37*
G36*
X176491000Y-81749000D02*
G01*
X174791000Y-81749000D01*
X174791000Y-80049000D01*
X176491000Y-80049000D01*
X176491000Y-81749000D01*
G37*
G36*
X173348936Y-80081665D02*
G01*
X173503626Y-80145739D01*
X173573076Y-80192145D01*
X173642844Y-80238762D01*
X173761238Y-80357156D01*
X173807855Y-80426924D01*
X173854261Y-80496374D01*
X173918335Y-80651064D01*
X173951000Y-80815282D01*
X173951000Y-80982718D01*
X173918335Y-81146936D01*
X173854261Y-81301626D01*
X173807855Y-81371076D01*
X173761238Y-81440844D01*
X173642844Y-81559238D01*
X173573076Y-81605855D01*
X173503626Y-81652261D01*
X173348936Y-81716335D01*
X173184718Y-81749000D01*
X173017282Y-81749000D01*
X172853064Y-81716335D01*
X172698374Y-81652261D01*
X172628924Y-81605855D01*
X172559156Y-81559238D01*
X172440762Y-81440844D01*
X172394145Y-81371076D01*
X172347739Y-81301626D01*
X172283665Y-81146936D01*
X172251000Y-80982718D01*
X172251000Y-80815282D01*
X172283665Y-80651064D01*
X172347739Y-80496374D01*
X172394145Y-80426924D01*
X172440762Y-80357156D01*
X172559156Y-80238762D01*
X172628924Y-80192145D01*
X172698374Y-80145739D01*
X172853064Y-80081665D01*
X173017282Y-80049000D01*
X173184718Y-80049000D01*
X173348936Y-80081665D01*
G37*
G36*
X178349480Y-75606994D02*
G01*
X178432903Y-75623587D01*
X178590068Y-75688687D01*
X178731513Y-75783198D01*
X178851802Y-75903487D01*
X178946313Y-76044932D01*
X179011413Y-76202097D01*
X179044600Y-76368943D01*
X179044600Y-76539057D01*
X179011413Y-76705903D01*
X178946313Y-76863068D01*
X178851802Y-77004513D01*
X178731513Y-77124802D01*
X178590068Y-77219313D01*
X178432903Y-77284413D01*
X178349480Y-77301007D01*
X178266059Y-77317600D01*
X178095941Y-77317600D01*
X178012520Y-77301006D01*
X177929097Y-77284413D01*
X177771932Y-77219313D01*
X177630487Y-77124802D01*
X177510198Y-77004513D01*
X177415687Y-76863068D01*
X177350587Y-76705903D01*
X177317400Y-76539057D01*
X177317400Y-76368943D01*
X177350587Y-76202097D01*
X177415687Y-76044932D01*
X177510198Y-75903487D01*
X177630487Y-75783198D01*
X177771932Y-75688687D01*
X177929097Y-75623587D01*
X178012520Y-75606993D01*
X178095941Y-75590400D01*
X178266059Y-75590400D01*
X178349480Y-75606994D01*
G37*
G36*
X175809480Y-75606994D02*
G01*
X175892903Y-75623587D01*
X176050068Y-75688687D01*
X176191513Y-75783198D01*
X176311802Y-75903487D01*
X176406313Y-76044932D01*
X176471413Y-76202097D01*
X176504600Y-76368943D01*
X176504600Y-76539057D01*
X176471413Y-76705903D01*
X176406313Y-76863068D01*
X176311802Y-77004513D01*
X176191513Y-77124802D01*
X176050068Y-77219313D01*
X175892903Y-77284413D01*
X175809480Y-77301007D01*
X175726059Y-77317600D01*
X175555941Y-77317600D01*
X175472520Y-77301006D01*
X175389097Y-77284413D01*
X175231932Y-77219313D01*
X175090487Y-77124802D01*
X174970198Y-77004513D01*
X174875687Y-76863068D01*
X174810587Y-76705903D01*
X174777400Y-76539057D01*
X174777400Y-76368943D01*
X174810587Y-76202097D01*
X174875687Y-76044932D01*
X174970198Y-75903487D01*
X175090487Y-75783198D01*
X175231932Y-75688687D01*
X175389097Y-75623587D01*
X175472520Y-75606993D01*
X175555941Y-75590400D01*
X175726059Y-75590400D01*
X175809480Y-75606994D01*
G37*
G36*
X173269480Y-75606994D02*
G01*
X173352903Y-75623587D01*
X173510068Y-75688687D01*
X173651513Y-75783198D01*
X173771802Y-75903487D01*
X173866313Y-76044932D01*
X173931413Y-76202097D01*
X173964600Y-76368943D01*
X173964600Y-76539057D01*
X173931413Y-76705903D01*
X173866313Y-76863068D01*
X173771802Y-77004513D01*
X173651513Y-77124802D01*
X173510068Y-77219313D01*
X173352903Y-77284413D01*
X173269480Y-77301007D01*
X173186059Y-77317600D01*
X173015941Y-77317600D01*
X172932520Y-77301006D01*
X172849097Y-77284413D01*
X172691932Y-77219313D01*
X172550487Y-77124802D01*
X172430198Y-77004513D01*
X172335687Y-76863068D01*
X172270587Y-76705903D01*
X172237400Y-76539057D01*
X172237400Y-76368943D01*
X172270587Y-76202097D01*
X172335687Y-76044932D01*
X172430198Y-75903487D01*
X172550487Y-75783198D01*
X172691932Y-75688687D01*
X172849097Y-75623587D01*
X172932520Y-75606993D01*
X173015941Y-75590400D01*
X173186059Y-75590400D01*
X173269480Y-75606994D01*
G37*
G36*
X170729480Y-75606994D02*
G01*
X170812903Y-75623587D01*
X170970068Y-75688687D01*
X171111513Y-75783198D01*
X171231802Y-75903487D01*
X171326313Y-76044932D01*
X171391413Y-76202097D01*
X171424600Y-76368943D01*
X171424600Y-76539057D01*
X171391413Y-76705903D01*
X171326313Y-76863068D01*
X171231802Y-77004513D01*
X171111513Y-77124802D01*
X170970068Y-77219313D01*
X170812903Y-77284413D01*
X170729480Y-77301007D01*
X170646059Y-77317600D01*
X170475941Y-77317600D01*
X170392520Y-77301006D01*
X170309097Y-77284413D01*
X170151932Y-77219313D01*
X170010487Y-77124802D01*
X169890198Y-77004513D01*
X169795687Y-76863068D01*
X169730587Y-76705903D01*
X169697400Y-76539057D01*
X169697400Y-76368943D01*
X169730587Y-76202097D01*
X169795687Y-76044932D01*
X169890198Y-75903487D01*
X170010487Y-75783198D01*
X170151932Y-75688687D01*
X170309097Y-75623587D01*
X170392520Y-75606993D01*
X170475941Y-75590400D01*
X170646059Y-75590400D01*
X170729480Y-75606994D01*
G37*
G36*
X168189480Y-75606994D02*
G01*
X168272903Y-75623587D01*
X168430068Y-75688687D01*
X168571513Y-75783198D01*
X168691802Y-75903487D01*
X168786313Y-76044932D01*
X168851413Y-76202097D01*
X168884600Y-76368943D01*
X168884600Y-76539057D01*
X168851413Y-76705903D01*
X168786313Y-76863068D01*
X168691802Y-77004513D01*
X168571513Y-77124802D01*
X168430068Y-77219313D01*
X168272903Y-77284413D01*
X168189480Y-77301007D01*
X168106059Y-77317600D01*
X167935941Y-77317600D01*
X167852520Y-77301006D01*
X167769097Y-77284413D01*
X167611932Y-77219313D01*
X167470487Y-77124802D01*
X167350198Y-77004513D01*
X167255687Y-76863068D01*
X167190587Y-76705903D01*
X167157400Y-76539057D01*
X167157400Y-76368943D01*
X167190587Y-76202097D01*
X167255687Y-76044932D01*
X167350198Y-75903487D01*
X167470487Y-75783198D01*
X167611932Y-75688687D01*
X167769097Y-75623587D01*
X167852520Y-75606993D01*
X167935941Y-75590400D01*
X168106059Y-75590400D01*
X168189480Y-75606994D01*
G37*
G36*
X165649480Y-75606994D02*
G01*
X165732903Y-75623587D01*
X165890068Y-75688687D01*
X166031513Y-75783198D01*
X166151802Y-75903487D01*
X166246313Y-76044932D01*
X166311413Y-76202097D01*
X166344600Y-76368943D01*
X166344600Y-76539057D01*
X166311413Y-76705903D01*
X166246313Y-76863068D01*
X166151802Y-77004513D01*
X166031513Y-77124802D01*
X165890068Y-77219313D01*
X165732903Y-77284413D01*
X165649480Y-77301007D01*
X165566059Y-77317600D01*
X165395941Y-77317600D01*
X165312520Y-77301006D01*
X165229097Y-77284413D01*
X165071932Y-77219313D01*
X164930487Y-77124802D01*
X164810198Y-77004513D01*
X164715687Y-76863068D01*
X164650587Y-76705903D01*
X164617400Y-76539057D01*
X164617400Y-76368943D01*
X164650587Y-76202097D01*
X164715687Y-76044932D01*
X164810198Y-75903487D01*
X164930487Y-75783198D01*
X165071932Y-75688687D01*
X165229097Y-75623587D01*
X165312520Y-75606993D01*
X165395941Y-75590400D01*
X165566059Y-75590400D01*
X165649480Y-75606994D01*
G37*
G36*
X163109480Y-75606994D02*
G01*
X163192903Y-75623587D01*
X163350068Y-75688687D01*
X163491513Y-75783198D01*
X163611802Y-75903487D01*
X163706313Y-76044932D01*
X163771413Y-76202097D01*
X163804600Y-76368943D01*
X163804600Y-76539057D01*
X163771413Y-76705903D01*
X163706313Y-76863068D01*
X163611802Y-77004513D01*
X163491513Y-77124802D01*
X163350068Y-77219313D01*
X163192903Y-77284413D01*
X163109480Y-77301007D01*
X163026059Y-77317600D01*
X162855941Y-77317600D01*
X162772520Y-77301006D01*
X162689097Y-77284413D01*
X162531932Y-77219313D01*
X162390487Y-77124802D01*
X162270198Y-77004513D01*
X162175687Y-76863068D01*
X162110587Y-76705903D01*
X162077400Y-76539057D01*
X162077400Y-76368943D01*
X162110587Y-76202097D01*
X162175687Y-76044932D01*
X162270198Y-75903487D01*
X162390487Y-75783198D01*
X162531932Y-75688687D01*
X162689097Y-75623587D01*
X162772520Y-75606993D01*
X162855941Y-75590400D01*
X163026059Y-75590400D01*
X163109480Y-75606994D01*
G37*
G36*
X160569480Y-75606994D02*
G01*
X160652903Y-75623587D01*
X160810068Y-75688687D01*
X160951513Y-75783198D01*
X161071802Y-75903487D01*
X161166313Y-76044932D01*
X161231413Y-76202097D01*
X161264600Y-76368943D01*
X161264600Y-76539057D01*
X161231413Y-76705903D01*
X161166313Y-76863068D01*
X161071802Y-77004513D01*
X160951513Y-77124802D01*
X160810068Y-77219313D01*
X160652903Y-77284413D01*
X160569480Y-77301007D01*
X160486059Y-77317600D01*
X160315941Y-77317600D01*
X160232520Y-77301006D01*
X160149097Y-77284413D01*
X159991932Y-77219313D01*
X159850487Y-77124802D01*
X159730198Y-77004513D01*
X159635687Y-76863068D01*
X159570587Y-76705903D01*
X159537400Y-76539057D01*
X159537400Y-76368943D01*
X159570587Y-76202097D01*
X159635687Y-76044932D01*
X159730198Y-75903487D01*
X159850487Y-75783198D01*
X159991932Y-75688687D01*
X160149097Y-75623587D01*
X160232520Y-75606993D01*
X160315941Y-75590400D01*
X160486059Y-75590400D01*
X160569480Y-75606994D01*
G37*
G36*
X156505480Y-75606994D02*
G01*
X156588903Y-75623587D01*
X156746068Y-75688687D01*
X156887513Y-75783198D01*
X157007802Y-75903487D01*
X157102313Y-76044932D01*
X157167413Y-76202097D01*
X157200600Y-76368943D01*
X157200600Y-76539057D01*
X157167413Y-76705903D01*
X157102313Y-76863068D01*
X157007802Y-77004513D01*
X156887513Y-77124802D01*
X156746068Y-77219313D01*
X156588903Y-77284413D01*
X156505480Y-77301007D01*
X156422059Y-77317600D01*
X156251941Y-77317600D01*
X156168520Y-77301006D01*
X156085097Y-77284413D01*
X155927932Y-77219313D01*
X155786487Y-77124802D01*
X155666198Y-77004513D01*
X155571687Y-76863068D01*
X155506587Y-76705903D01*
X155473400Y-76539057D01*
X155473400Y-76368943D01*
X155506587Y-76202097D01*
X155571687Y-76044932D01*
X155666198Y-75903487D01*
X155786487Y-75783198D01*
X155927932Y-75688687D01*
X156085097Y-75623587D01*
X156168520Y-75606994D01*
X156251941Y-75590400D01*
X156422059Y-75590400D01*
X156505480Y-75606994D01*
G37*
G36*
X153965480Y-75606994D02*
G01*
X154048903Y-75623587D01*
X154206068Y-75688687D01*
X154347513Y-75783198D01*
X154467802Y-75903487D01*
X154562313Y-76044932D01*
X154627413Y-76202097D01*
X154660600Y-76368943D01*
X154660600Y-76539057D01*
X154627413Y-76705903D01*
X154562313Y-76863068D01*
X154467802Y-77004513D01*
X154347513Y-77124802D01*
X154206068Y-77219313D01*
X154048903Y-77284413D01*
X153965480Y-77301007D01*
X153882059Y-77317600D01*
X153711941Y-77317600D01*
X153628520Y-77301006D01*
X153545097Y-77284413D01*
X153387932Y-77219313D01*
X153246487Y-77124802D01*
X153126198Y-77004513D01*
X153031687Y-76863068D01*
X152966587Y-76705903D01*
X152933400Y-76539057D01*
X152933400Y-76368943D01*
X152966587Y-76202097D01*
X153031687Y-76044932D01*
X153126198Y-75903487D01*
X153246487Y-75783198D01*
X153387932Y-75688687D01*
X153545097Y-75623587D01*
X153628520Y-75606994D01*
X153711941Y-75590400D01*
X153882059Y-75590400D01*
X153965480Y-75606994D01*
G37*
G36*
X151425480Y-75606994D02*
G01*
X151508903Y-75623587D01*
X151666068Y-75688687D01*
X151807513Y-75783198D01*
X151927802Y-75903487D01*
X152022313Y-76044932D01*
X152087413Y-76202097D01*
X152120600Y-76368943D01*
X152120600Y-76539057D01*
X152087413Y-76705903D01*
X152022313Y-76863068D01*
X151927802Y-77004513D01*
X151807513Y-77124802D01*
X151666068Y-77219313D01*
X151508903Y-77284413D01*
X151425480Y-77301007D01*
X151342059Y-77317600D01*
X151171941Y-77317600D01*
X151088520Y-77301006D01*
X151005097Y-77284413D01*
X150847932Y-77219313D01*
X150706487Y-77124802D01*
X150586198Y-77004513D01*
X150491687Y-76863068D01*
X150426587Y-76705903D01*
X150393400Y-76539057D01*
X150393400Y-76368943D01*
X150426587Y-76202097D01*
X150491687Y-76044932D01*
X150586198Y-75903487D01*
X150706487Y-75783198D01*
X150847932Y-75688687D01*
X151005097Y-75623587D01*
X151088520Y-75606994D01*
X151171941Y-75590400D01*
X151342059Y-75590400D01*
X151425480Y-75606994D01*
G37*
G36*
X148885480Y-75606994D02*
G01*
X148968903Y-75623587D01*
X149126068Y-75688687D01*
X149267513Y-75783198D01*
X149387802Y-75903487D01*
X149482313Y-76044932D01*
X149547413Y-76202097D01*
X149580600Y-76368943D01*
X149580600Y-76539057D01*
X149547413Y-76705903D01*
X149482313Y-76863068D01*
X149387802Y-77004513D01*
X149267513Y-77124802D01*
X149126068Y-77219313D01*
X148968903Y-77284413D01*
X148885480Y-77301007D01*
X148802059Y-77317600D01*
X148631941Y-77317600D01*
X148548520Y-77301006D01*
X148465097Y-77284413D01*
X148307932Y-77219313D01*
X148166487Y-77124802D01*
X148046198Y-77004513D01*
X147951687Y-76863068D01*
X147886587Y-76705903D01*
X147853400Y-76539057D01*
X147853400Y-76368943D01*
X147886587Y-76202097D01*
X147951687Y-76044932D01*
X148046198Y-75903487D01*
X148166487Y-75783198D01*
X148307932Y-75688687D01*
X148465097Y-75623587D01*
X148548520Y-75606994D01*
X148631941Y-75590400D01*
X148802059Y-75590400D01*
X148885480Y-75606994D01*
G37*
G36*
X146345480Y-75606994D02*
G01*
X146428903Y-75623587D01*
X146586068Y-75688687D01*
X146727513Y-75783198D01*
X146847802Y-75903487D01*
X146942313Y-76044932D01*
X147007413Y-76202097D01*
X147040600Y-76368943D01*
X147040600Y-76539057D01*
X147007413Y-76705903D01*
X146942313Y-76863068D01*
X146847802Y-77004513D01*
X146727513Y-77124802D01*
X146586068Y-77219313D01*
X146428903Y-77284413D01*
X146345480Y-77301006D01*
X146262059Y-77317600D01*
X146091941Y-77317600D01*
X146008520Y-77301006D01*
X145925097Y-77284413D01*
X145767932Y-77219313D01*
X145626487Y-77124802D01*
X145506198Y-77004513D01*
X145411687Y-76863068D01*
X145346587Y-76705903D01*
X145313400Y-76539057D01*
X145313400Y-76368943D01*
X145346587Y-76202097D01*
X145411687Y-76044932D01*
X145506198Y-75903487D01*
X145626487Y-75783198D01*
X145767932Y-75688687D01*
X145925097Y-75623587D01*
X146008520Y-75606994D01*
X146091941Y-75590400D01*
X146262059Y-75590400D01*
X146345480Y-75606994D01*
G37*
G36*
X143805480Y-75606994D02*
G01*
X143888903Y-75623587D01*
X144046068Y-75688687D01*
X144187513Y-75783198D01*
X144307802Y-75903487D01*
X144402313Y-76044932D01*
X144467413Y-76202097D01*
X144500600Y-76368943D01*
X144500600Y-76539057D01*
X144467413Y-76705903D01*
X144402313Y-76863068D01*
X144307802Y-77004513D01*
X144187513Y-77124802D01*
X144046068Y-77219313D01*
X143888903Y-77284413D01*
X143805480Y-77301006D01*
X143722059Y-77317600D01*
X143551941Y-77317600D01*
X143468520Y-77301006D01*
X143385097Y-77284413D01*
X143227932Y-77219313D01*
X143086487Y-77124802D01*
X142966198Y-77004513D01*
X142871687Y-76863068D01*
X142806587Y-76705903D01*
X142773400Y-76539057D01*
X142773400Y-76368943D01*
X142806587Y-76202097D01*
X142871687Y-76044932D01*
X142966198Y-75903487D01*
X143086487Y-75783198D01*
X143227932Y-75688687D01*
X143385097Y-75623587D01*
X143468520Y-75606994D01*
X143551941Y-75590400D01*
X143722059Y-75590400D01*
X143805480Y-75606994D01*
G37*
G36*
X141265480Y-75606994D02*
G01*
X141348903Y-75623587D01*
X141506068Y-75688687D01*
X141647513Y-75783198D01*
X141767802Y-75903487D01*
X141862313Y-76044932D01*
X141927413Y-76202097D01*
X141960600Y-76368943D01*
X141960600Y-76539057D01*
X141927413Y-76705903D01*
X141862313Y-76863068D01*
X141767802Y-77004513D01*
X141647513Y-77124802D01*
X141506068Y-77219313D01*
X141348903Y-77284413D01*
X141265480Y-77301006D01*
X141182059Y-77317600D01*
X141011941Y-77317600D01*
X140928520Y-77301006D01*
X140845097Y-77284413D01*
X140687932Y-77219313D01*
X140546487Y-77124802D01*
X140426198Y-77004513D01*
X140331687Y-76863068D01*
X140266587Y-76705903D01*
X140233400Y-76539057D01*
X140233400Y-76368943D01*
X140266587Y-76202097D01*
X140331687Y-76044932D01*
X140426198Y-75903487D01*
X140546487Y-75783198D01*
X140687932Y-75688687D01*
X140845097Y-75623587D01*
X140928520Y-75606994D01*
X141011941Y-75590400D01*
X141182059Y-75590400D01*
X141265480Y-75606994D01*
G37*
G36*
X138725480Y-75606994D02*
G01*
X138808903Y-75623587D01*
X138966068Y-75688687D01*
X139107513Y-75783198D01*
X139227802Y-75903487D01*
X139322313Y-76044932D01*
X139387413Y-76202097D01*
X139420600Y-76368943D01*
X139420600Y-76539057D01*
X139387413Y-76705903D01*
X139322313Y-76863068D01*
X139227802Y-77004513D01*
X139107513Y-77124802D01*
X138966068Y-77219313D01*
X138808903Y-77284413D01*
X138725480Y-77301006D01*
X138642059Y-77317600D01*
X138471941Y-77317600D01*
X138388520Y-77301006D01*
X138305097Y-77284413D01*
X138147932Y-77219313D01*
X138006487Y-77124802D01*
X137886198Y-77004513D01*
X137791687Y-76863068D01*
X137726587Y-76705903D01*
X137693400Y-76539057D01*
X137693400Y-76368943D01*
X137726587Y-76202097D01*
X137791687Y-76044932D01*
X137886198Y-75903487D01*
X138006487Y-75783198D01*
X138147932Y-75688687D01*
X138305097Y-75623587D01*
X138388520Y-75606994D01*
X138471941Y-75590400D01*
X138642059Y-75590400D01*
X138725480Y-75606994D01*
G37*
G36*
X133645480Y-75606994D02*
G01*
X133728903Y-75623587D01*
X133886068Y-75688687D01*
X134027513Y-75783198D01*
X134147802Y-75903487D01*
X134242313Y-76044932D01*
X134307413Y-76202097D01*
X134340600Y-76368943D01*
X134340600Y-76539057D01*
X134307413Y-76705903D01*
X134242313Y-76863068D01*
X134147802Y-77004513D01*
X134027513Y-77124802D01*
X133886068Y-77219313D01*
X133728903Y-77284413D01*
X133645480Y-77301006D01*
X133562059Y-77317600D01*
X133391941Y-77317600D01*
X133308520Y-77301006D01*
X133225097Y-77284413D01*
X133067932Y-77219313D01*
X132926487Y-77124802D01*
X132806198Y-77004513D01*
X132711687Y-76863068D01*
X132646587Y-76705903D01*
X132613400Y-76539057D01*
X132613400Y-76368943D01*
X132646587Y-76202097D01*
X132711687Y-76044932D01*
X132806198Y-75903487D01*
X132926487Y-75783198D01*
X133067932Y-75688687D01*
X133225097Y-75623587D01*
X133308520Y-75606994D01*
X133391941Y-75590400D01*
X133562059Y-75590400D01*
X133645480Y-75606994D01*
G37*
G36*
X136185480Y-75606994D02*
G01*
X136268903Y-75623587D01*
X136426068Y-75688687D01*
X136567513Y-75783198D01*
X136687802Y-75903487D01*
X136782313Y-76044932D01*
X136847413Y-76202097D01*
X136880600Y-76368943D01*
X136880600Y-76539057D01*
X136847413Y-76705903D01*
X136782313Y-76863068D01*
X136687802Y-77004513D01*
X136567513Y-77124802D01*
X136426068Y-77219313D01*
X136268903Y-77284413D01*
X136185480Y-77301006D01*
X136102059Y-77317600D01*
X135931941Y-77317600D01*
X135848520Y-77301006D01*
X135765097Y-77284413D01*
X135607932Y-77219313D01*
X135466487Y-77124802D01*
X135346198Y-77004513D01*
X135251687Y-76863068D01*
X135186587Y-76705903D01*
X135153400Y-76539057D01*
X135153400Y-76368943D01*
X135186587Y-76202097D01*
X135251687Y-76044932D01*
X135346198Y-75903487D01*
X135466487Y-75783198D01*
X135607932Y-75688687D01*
X135765097Y-75623587D01*
X135848520Y-75606994D01*
X135931941Y-75590400D01*
X136102059Y-75590400D01*
X136185480Y-75606994D01*
G37*
M02*
